<?xml version="1.0" encoding="utf-8"?>
<!-- Generated by IcoMoon.io -->
<!DOCTYPE svg PUBLIC "-//W3C//DTD SVG 1.1//EN" "http://www.w3.org/Graphics/SVG/1.1/DTD/svg11.dtd">
<svg version="1.1" xmlns="http://www.w3.org/2000/svg" xmlns:xlink="http://www.w3.org/1999/xlink" width="32" height="32" viewBox="0 0 32 32">
<path d="M16 26.688c5.188 0 9.313-4.188 9.313-9.375s-4.125-9.313-9.313-9.313-9.313 4.125-9.313 9.313 4.125 9.375 9.313 9.375zM16 5.313c6.688 0 12 5.313 12 12s-5.313 12-12 12-12-5.313-12-12 5.313-12 12-12zM16.688 10.688v7.063l5.313 3.188-1.063 1.625-6.25-3.875v-8h2zM10.563 4.563l-6.188 5.063-1.688-2 6.125-5.063zM29.313 7.625l-1.688 2-6.188-5.25 1.75-2z"></path>
</svg>
