<?xml version="1.0" encoding="utf-8"?>
<!-- Generated by IcoMoon.io -->
<!DOCTYPE svg PUBLIC "-//W3C//DTD SVG 1.1//EN" "http://www.w3.org/Graphics/SVG/1.1/DTD/svg11.dtd">
<svg version="1.1" xmlns="http://www.w3.org/2000/svg" xmlns:xlink="http://www.w3.org/1999/xlink" width="32" height="32" viewBox="0 0 32 32">
<path d="M30.438 23c0.563 1 0.063 2.25-0.938 2.75l-4.938 2.25-4.563-9.313h-9.313c-2.188 0-4-1.813-4-4v-10.688h8v8h4.688c1 0 1.938 0.563 2.375 1.5l4.5 9.313 1.5-0.688c1-0.438 2.188-0.063 2.688 0.875zM5.313 16c0 2.188 1.813 4 4 4h8v2.688h-8c-3.688 0-6.625-3-6.625-6.688v-12h2.625v12z"></path>
</svg>
