<?xml version="1.0" encoding="utf-8"?>
<!-- Generated by IcoMoon.io -->
<!DOCTYPE svg PUBLIC "-//W3C//DTD SVG 1.1//EN" "http://www.w3.org/Graphics/SVG/1.1/DTD/svg11.dtd">
<svg version="1.1" xmlns="http://www.w3.org/2000/svg" xmlns:xlink="http://www.w3.org/1999/xlink" width="32" height="32" viewBox="0 0 32 32">
<path d="M14 20l-3-4-2.313 3-1.688-2-2.313 3h9.313zM16 12v8c0 1.438-1.25 2.688-2.688 2.688h-8c-1.438 0-2.625-1.25-2.625-2.688v-8c0-1.438 1.188-2.688 2.625-2.688h8c1.438 0 2.688 1.25 2.688 2.688zM18.688 22.688v-2.688h10.625v2.688h-10.625zM29.313 9.313v2.688h-10.625v-2.688h10.625zM29.313 17.313h-10.625v-2.625h10.625v2.625z"></path>
</svg>
