<?xml version="1.0" encoding="utf-8"?>
<!-- Generated by IcoMoon.io -->
<!DOCTYPE svg PUBLIC "-//W3C//DTD SVG 1.1//EN" "http://www.w3.org/Graphics/SVG/1.1/DTD/svg11.dtd">
<svg version="1.1" xmlns="http://www.w3.org/2000/svg" xmlns:xlink="http://www.w3.org/1999/xlink" width="32" height="32" viewBox="0 0 32 32">
<path d="M29.313 16v-8h-10.625v8h10.625zM18.688 24v-1.313c0-2.688-5.313-4.125-8-4.125s-8 1.438-8 4.125v1.313h16zM10.688 8c-2.188 0-4 1.813-4 4s1.813 4 4 4 4-1.813 4-4-1.813-4-4-4zM29.313 4c1.438 0 2.688 1.25 2.688 2.688v18.625c0 1.438-1.25 2.688-2.688 2.688h-26.625c-1.438 0-2.688-1.25-2.688-2.688v-18.625c0-1.438 1.25-2.688 2.688-2.688h26.625zM28 10.688l-4 2.625-4-2.625v-1.375l4 2.688 4-2.688v1.375z"></path>
</svg>
