<?xml version="1.0" encoding="utf-8"?>
<!-- Generated by IcoMoon.io -->
<!DOCTYPE svg PUBLIC "-//W3C//DTD SVG 1.1//EN" "http://www.w3.org/Graphics/SVG/1.1/DTD/svg11.dtd">
<svg version="1.1" xmlns="http://www.w3.org/2000/svg" xmlns:xlink="http://www.w3.org/1999/xlink" width="32" height="32" viewBox="0 0 32 32">
<path d="M9.313 12c1.438 0 2.688-1.25 2.688-2.688s-1.25-2.625-2.688-2.625-2.625 1.188-2.625 2.625 1.188 2.688 2.625 2.688zM26.688 4c0.75 0 1.313 0.563 1.313 1.313v8c0 0.75-0.563 1.375-1.313 1.375h-21.375c-0.75 0-1.313-0.625-1.313-1.375v-8c0-0.75 0.563-1.313 1.313-1.313h21.375zM9.313 25.313c1.438 0 2.688-1.188 2.688-2.625s-1.25-2.688-2.688-2.688-2.625 1.25-2.625 2.688 1.188 2.625 2.625 2.625zM26.688 17.313c0.75 0 1.313 0.625 1.313 1.375v8c0 0.75-0.563 1.313-1.313 1.313h-21.375c-0.75 0-1.313-0.563-1.313-1.313v-8c0-0.75 0.563-1.375 1.313-1.375h21.375z"></path>
</svg>
