<?xml version="1.0" encoding="utf-8"?>
<!-- Generated by IcoMoon.io -->
<!DOCTYPE svg PUBLIC "-//W3C//DTD SVG 1.1//EN" "http://www.w3.org/Graphics/SVG/1.1/DTD/svg11.dtd">
<svg version="1.1" xmlns="http://www.w3.org/2000/svg" xmlns:xlink="http://www.w3.org/1999/xlink" width="32" height="32" viewBox="0 0 32 32">
<path d="M9.313 17.313h4.625l-2.688-2.625h-1.938v2.625zM3 3l26 26-1.75 1.688-3.688-3.75c-2.125 1.5-4.75 2.375-7.563 2.375-7.375 0-13.313-5.938-13.313-13.313 0-2.813 0.875-5.438 2.375-7.563l-3.75-3.688zM22.688 14.688h-4.625l-9.625-9.625c2.125-1.5 4.75-2.375 7.563-2.375 7.375 0 13.313 5.938 13.313 13.313 0 2.813-0.875 5.438-2.375 7.563l-6.188-6.25h1.938v-2.625z"></path>
</svg>
