<?xml version="1.0" encoding="utf-8"?>
<!-- Generated by IcoMoon.io -->
<!DOCTYPE svg PUBLIC "-//W3C//DTD SVG 1.1//EN" "http://www.w3.org/Graphics/SVG/1.1/DTD/svg11.dtd">
<svg version="1.1" xmlns="http://www.w3.org/2000/svg" xmlns:xlink="http://www.w3.org/1999/xlink" width="32" height="32" viewBox="0 0 32 32">
<path d="M16 26.688c5.875 0 10.688-4.813 10.688-10.688 0-2.375-0.875-4.688-2.313-6.563l-14.938 14.938c1.875 1.438 4.188 2.313 6.563 2.313zM5.313 16c0 2.375 0.875 4.688 2.313 6.563l14.938-14.938c-1.875-1.438-4.188-2.313-6.563-2.313-5.875 0-10.688 4.813-10.688 10.688zM16 2.688c7.313 0 13.313 6 13.313 13.313s-6 13.313-13.313 13.313-13.313-6-13.313-13.313 6-13.313 13.313-13.313z"></path>
</svg>
