<svg viewBox="0 0 256 256" version="1.1" xmlns="http://www.w3.org/2000/svg" xmlns:xlink="http://www.w3.org/1999/xlink">
<defs>
  <symbol id="icon-home">
    <path d="M16 9.226l-8-6.21-8 6.21v-2.532l8-6.21 8 6.21zM14 9v6h-4v-4h-4v4h-4v-6l6-4.5z"></path>
  </symbol>
  <symbol id="icon-music">
    <path d="M15 0h1v11.5c0 1.381-1.567 2.5-3.5 2.5s-3.5-1.119-3.5-2.5c0-1.381 1.567-2.5 3.5-2.5 0.979 0 1.865 0.287 2.5 0.751v-5.751l-8 1.778v7.722c0 1.381-1.567 2.5-3.5 2.5s-3.5-1.119-3.5-2.5c0-1.381 1.567-2.5 3.5-2.5 0.979 0 1.865 0.287 2.5 0.751v-9.751l9-2z"></path>
  </symbol>
  <symbol id="icon-folder">
    <path d="M7 2l2 2h7v11h-16v-13z"></path>
  </symbol>
  <symbol id="icon-display">
    <circle class="cls-1" cx="8" cy="8" r="1.22"/>
    <path d="M16 9.226l-8-6.21-8 6.21v-2.532l8-6.21 8 6.21zM14 9v6h-4v-4h-4v4h-4v-6l6-4.5z"></path>
  </symbol>
    <symbol id="icon-camera">
    <path class="path1" d="M4.75 9.5c0 1.795 1.455 3.25 3.25 3.25s3.25-1.455 3.25-3.25-1.455-3.25-3.25-3.25-3.25 1.455-3.25 3.25zM15 4h-3.5c-0.25-1-0.5-2-1.5-2h-4c-1 0-1.25 1-1.5 2h-3.5c-0.55 0-1 0.45-1 1v9c0 0.55 0.45 1 1 1h14c0.55 0 1-0.45 1-1v-9c0-0.55-0.45-1-1-1zM8 13.938c-2.451 0-4.438-1.987-4.438-4.438s1.987-4.438 4.438-4.438c2.451 0 4.438 1.987 4.438 4.438s-1.987 4.438-4.438 4.438zM15 7h-2v-1h2v1z"></path>
    </symbol>
    <symbol id="icon-play">
    <path class="path1" d="M15.331 2.502c-2.244-0.323-4.724-0.502-7.331-0.502s-5.087 0.179-7.331 0.502c-0.43 1.683-0.669 3.543-0.669 5.498s0.239 3.815 0.669 5.498c2.244 0.323 4.724 0.502 7.331 0.502s5.087-0.179 7.331-0.502c0.43-1.683 0.669-3.543 0.669-5.498s-0.239-3.815-0.669-5.498zM6 11v-6l5 3-5 3z"></path>
    </symbol>
    <symbol id="icon-copy">
    <path class="path1" d="M10 4v-4h-7l-3 3v9h6v4h10v-12h-6zM3 1.414v1.586h-1.586l1.586-1.586zM1 11v-7h3v-3h5v3l-3 3v4h-5zM9 5.414v1.586h-1.586l1.586-1.586zM15 15h-8v-7h3v-3h5v10z"></path>
    </symbol>
    <symbol id="icon-mobile">
    <path class="path1" d="M11.5 0h-7c-0.825 0-1.5 0.675-1.5 1.5v13c0 0.825 0.675 1.5 1.5 1.5h7c0.825 0 1.5-0.675 1.5-1.5v-13c0-0.825-0.675-1.5-1.5-1.5zM6 0.75h4v0.5h-4v-0.5zM8 15c-0.552 0-1-0.448-1-1s0.448-1 1-1 1 0.448 1 1-0.448 1-1 1zM12 12h-8v-10h8v10z"></path>
    </symbol>
    <symbol id="icon-next">
    <path class="path1" d="M6.656 4l4 4-4 4-0.938-0.938 3.063-3.063-3.063-3.063z"></path>
    </symbol>
  <symbol id="icon-gift">
  <path class="path1" d="M12.667 5.333h-1.568c0.146-0.305 0.235-0.641 0.235-1 0-1.287-1.047-2.333-2.333-2.333-0.653 0-1.243 0.271-1.667 0.705-0.424-0.434-1.014-0.705-1.667-0.705-1.287 0-2.333 1.047-2.333 2.333 0 0.359 0.089 0.695 0.235 1h-1.568c-0.369 0-0.667 0.299-0.667 0.667v2.667c0 0.368 0.298 0.667 0.667 0.667v3.333c0 1.103 0.897 2 2 2h6.667c1.103 0 2-0.897 2-2v-3.333c0.369 0 0.667-0.299 0.667-0.667v-2.667c0-0.368-0.298-0.667-0.667-0.667zM12 8h-3.333v-1.333h3.333v1.333zM6.667 4.667h1.333v0.667h-1.333v-0.667zM8 6.667v1.333h-1.333v-1.333h1.333zM9 3.333c0.551 0 1 0.449 1 1s-0.449 1-1 1c-0.118 0-0.229-0.026-0.333-0.065v-0.602c0-0.347-0.269-0.625-0.609-0.655 0.135-0.393 0.504-0.679 0.942-0.679zM4.667 4.333c0-0.551 0.449-1 1-1 0.438 0 0.807 0.285 0.942 0.679-0.339 0.030-0.609 0.307-0.609 0.655v0.602c-0.104 0.039-0.215 0.065-0.333 0.065-0.551 0-1-0.449-1-1zM6 6.667v1.333h-3.333v-1.333h3.333zM4 13.333c-0.367 0-0.667-0.299-0.667-0.667v-4h2.667v4.667h-2zM6.667 13.333v-4.667h1.333v4.667h-1.333zM10.667 13.333h-2v-4.667h2.667v4c0 0.367-0.299 0.667-0.667 0.667z"></path>
  </symbol>
  <symbol id="icon-arrow">
  <path d="M16 9.226l-8-6.21-8 6.21v-2.532l8-6.21 8 6.21zM14 9v6h-4v-4h-4v4h-4v-6l6-4.5z"></path>
  </symbol>
  </defs>

  <use transform="translate(0, 0)" xlink:href="#icon-home" />
  <use transform="translate(16, 0)" xlink:href="#icon-music" />
  <use transform="translate(32, 0)" xlink:href="#icon-folder" />
  <use transform="translate(48, 0)" xlink:href="#icon-display" />
  <use transform="translate(64, 0)" xlink:href="#icon-camera" />
  <use transform="translate(80, 0)" xlink:href="#icon-play"/>
  <use transform="translate(96, 0)" xlink:href="#icon-copy"/>
  <use transform="translate(112 0)" xlink:href="#icon-mobile"/>
  <use transform="translate(128 0)" xlink:href="#icon-next"/>
  <use transform="translate(144 0)" xlink:href="#icon-gift"/>
  <use transform="translate(160, 0)" xlink:href="#icon-arrow" />

</svg>
