<svg width="512" height="512" viewBox="0 0 512 512" xmlns="http://www.w3.org/2000/svg" xmlns:xlink="http://www.w3.org/1999/xlink"><defs><symbol id="Arrow"><path class="path1" d="M5.719 10.906l3.063-3.063L5.719 4.78l.938-.938 4 4-4 4z"/></symbol><symbol id="Eye"><path class="path1" d="M8 2q1.089 0 2.117.331t1.805.859 1.461 1.169 1.151 1.281.807 1.169.503.857l.156.333-.099.211q-.063.133-.294.542t-.495.807-.693.938-.888 1.005-1.086.94-1.286.805-1.482.542T8 14q-1.089 0-2.117-.331t-1.805-.857-1.461-1.161-1.151-1.273-.807-1.164-.503-.859L0 8.027l.099-.211q.063-.133.294-.544t.495-.81.693-.943.888-1.01 1.086-.943 1.286-.81 1.482-.544T8 2.001zm0 1.333q-.729 0-1.432.193T5.3 4.023t-1.104.737-.932.852-.763.901-.589.826-.411.688q.193.339.411.68t.589.818.763.891.932.841 1.104.729 1.268.492 1.432.19 1.432-.193 1.268-.495 1.104-.732.932-.846.763-.896.589-.823.411-.682q-.193-.339-.411-.682t-.589-.823-.763-.896-.932-.846-1.104-.732-1.268-.495T8 3.334zm0 2q1.104 0 1.885.781t.781 1.885-.781 1.885T8 10.665t-1.885-.781-.781-1.885.781-1.885T8 5.333zm0 1.334q-.552 0-.943.391t-.391.943.391.943.943.391.943-.391.391-.943-.391-.943T8 6.667z"/></symbol><symbol id="Paper-clip"><path class="path1" d="M10.531 0q.651 0 1.25.245.625.25 1.104.729.484.49.729 1.099.24.589.24 1.25t-.24 1.25q-.245.609-.729 1.099L6.75 11.807q-.281.281-.667.443-.375.146-.75.146t-.75-.146q-.385-.161-.667-.443-.292-.292-.438-.661-.146-.354-.146-.75 0-.401.146-.755.146-.365.438-.661l5.661-5.656q.198-.198.474-.198.271 0 .469.198t.198.469q0 .276-.198.474L4.859 9.923q-.193.193-.193.474 0 .276.193.469.208.198.474.198t.474-.198l6.135-6.135q.578-.578.578-1.406t-.578-1.406q-.594-.583-1.411-.583-.823 0-1.406.583l-6.151 6.12q-.479.479-.729 1.104Q2 9.742 2 10.398q0 .646.245 1.255.25.62.729 1.099.495.49 1.104.734t1.255.245 1.255-.245 1.104-.734l6.125-6.125q.198-.198.474-.198.271 0 .469.198t.198.469q0 .276-.198.474l-6.125 6.125q-.672.672-1.547 1.026-.833.344-1.755.344-.917 0-1.755-.344-.875-.354-1.547-1.026-.667-.667-1.021-1.542-.344-.844-.344-1.755 0-.917.344-1.755.349-.865 1.021-1.547h.005L8.182.976Q8.661.497 9.281.247q.609-.245 1.25-.245z"/></symbol><symbol id="Mail"><path class="path1" d="M2.667 2h10.667q.828 0 1.414.586T15.334 4v8q0 .828-.586 1.414T13.334 14H2.667q-.828 0-1.414-.586T.667 12V4q0-.828.586-1.414T2.667 2zM14 12V4.719L8.417 9.188q-.177.146-.417.146t-.417-.146L2 4.719V12q0 .276.195.471t.471.195h10.667q.276 0 .471-.195t.195-.471zm-.667-8.667H2.666q-.099 0-.219.036l5.552 4.443 5.552-4.443q-.12-.036-.219-.036z"/></symbol><symbol id="Toggle"><path class="path1" d="M5.333 2.667h5.333q1.083 0 2.07.422t1.703 1.138 1.138 1.703.422 2.07-.422 2.07-1.138 1.703-1.703 1.138-2.07.422H5.333q-1.083 0-2.07-.422T1.56 11.773.422 10.07 0 8t.422-2.07T1.56 4.227t1.703-1.138 2.07-.422zm0 2.666q1.104 0 1.885.781t.781 1.885-.781 1.885-1.885.781-1.885-.781-.781-1.885.781-1.885 1.885-.781zm0 1.334q-.552 0-.943.391t-.391.943.391.943.943.391.943-.391.391-.943-.391-.943-.943-.391zM10.667 4H5.334q-1.089 0-2.008.536T1.87 5.992 1.334 8t.536 2.008 1.456 1.456T5.334 12h5.333q1.089 0 2.008-.536t1.456-1.456T14.667 8t-.536-2.008-1.456-1.456T10.667 4z"/></symbol><symbol id="Layout"><path class="path1" d="M2.667.667h10.667q.828 0 1.414.586t.586 1.414v10.667q0 .828-.586 1.414t-1.414.586H2.667q-.828 0-1.414-.586t-.586-1.414V2.667q0-.828.586-1.414T2.667.667zM5.333 14V6H2v7.333q0 .276.195.471t.471.195h2.667zM14 13.333V6H6.667v8h6.667q.276 0 .471-.195t.195-.471zM13.333 2H2.666q-.276 0-.471.195T2 2.666v2h12v-2q0-.276-.195-.471T13.334 2z"/></symbol><symbol id="Link"><path class="path1" d="M11.333.667q.786 0 1.518.297t1.31.875.875 1.31.297 1.518q0 .781-.299 1.518t-.872 1.31l-2 2q-.057.057-.172.161-.557.495-1.245.753t-1.411.258q-.911 0-1.724-.391-.609-.286-1.104-.781t-.781-1.104Q6.116 8 6.668 8q.193 0 .391.057.339.547.885.885.641.391 1.391.391.521 0 1.01-.198t.875-.583l2-2q.385-.385.583-.875t.198-1.01-.198-1.01-.583-.875-.875-.583-1.01-.198-1.01.198-.875.583L8.049 4.183q-.667-.182-1.38-.182-.115 0-.323.01.104-.115.161-.172l2-2q.573-.573 1.31-.872t1.518-.299zM6.667 5.333q.911 0 1.724.391.609.286 1.104.781t.781 1.104Q9.885 8 9.333 8q-.193 0-.391-.057-.339-.547-.885-.885-.641-.391-1.391-.391-.521 0-1.01.198t-.875.583l-2 2q-.385.385-.583.875T2 11.333t.198 1.01.583.875.875.583 1.01.198 1.01-.198.875-.583l1.401-1.401q.667.182 1.38.182.115 0 .323-.01-.104.115-.161.172l-2 2q-.578.578-1.31.875t-1.518.297q-.781 0-1.518-.299t-1.31-.872q-.578-.578-.875-1.31t-.297-1.518.297-1.518.875-1.31l2-2q.057-.057.172-.161.557-.495 1.245-.753t1.411-.258z"/></symbol><symbol id="Bell"><path class="path1" d="M8 .667q.859 0 1.625.279t1.359.768 1.068 1.164.789 1.458T13.333 6q.526 2.641 1.117 4.174t1.549 2.492H9.884q.115.328.115.667 0 .828-.586 1.414t-1.414.586-1.414-.586-.586-1.414q0-.339.115-.667H-.001q.958-.958 1.549-2.492T2.665 6q.177-.88.492-1.664t.789-1.458 1.068-1.164T6.373.946 7.998.667zm0 12q-.276 0-.471.195t-.195.471.195.471.471.195.471-.195.195-.471-.195-.471T8 12.667zM8 2q-.604 0-1.138.188t-.914.479-.706.701-.529.794-.367.823-.242.721-.13.555q-.667 3.359-1.469 5.073h10.99q-.802-1.714-1.469-5.073-.052-.271-.13-.555t-.242-.721-.367-.823-.529-.794-.706-.701-.914-.479T8 2z"/></symbol><symbol id="Lock"><path class="path1" d="M8 .667q1.089 0 2.008.536t1.456 1.456T12 4.667v2.667h1.333q.828 0 1.414.586t.586 1.414v4q0 .828-.586 1.414t-1.414.586H2.666q-.828 0-1.414-.586t-.586-1.414v-4q0-.828.586-1.414t1.414-.586h1.333V4.667q0-1.089.536-2.008t1.456-1.456T7.999.667zm5.333 8H2.666q-.276 0-.471.195T2 9.333v4q0 .276.195.471t.471.195h10.667q.276 0 .471-.195t.195-.471v-4q0-.276-.195-.471t-.471-.195zM8 2q-1.104 0-1.885.781t-.781 1.885v2.667h5.333V4.666q0-1.104-.781-1.885T8.001 2z"/></symbol><symbol id="Unlock"><path class="path1" d="M8 .667q1.089 0 2.008.536t1.456 1.456T12 4.667v.667q0 .276-.195.471T11.334 6t-.471-.195-.195-.471v-.667q0-1.104-.781-1.885t-1.885-.781-1.885.781-.781 1.885v2.667h8q.828 0 1.414.586t.586 1.414v4q0 .828-.586 1.414t-1.414.586H2.669q-.828 0-1.414-.586t-.586-1.414v-4q0-.828.586-1.414t1.414-.586h1.333V4.667q0-1.089.536-2.008t1.456-1.456T8.002.667zm5.333 8H2.666q-.276 0-.471.195T2 9.333v4q0 .276.195.471t.471.195h10.667q.276 0 .471-.195t.195-.471v-4q0-.276-.195-.471t-.471-.195z"/></symbol><symbol id="Ribbon"><path class="path1" d="M4.667.667h6.667q.828 0 1.414.586t.586 1.414v12.667l-5.333-4-5.333 4V2.667q0-.828.586-1.414T4.668.667zM11.333 2H4.666q-.276 0-.471.195T4 2.666v10l4-3 4 3v-10q0-.276-.195-.471T11.334 2z"/></symbol><symbol id="Image"><path class="path1" d="M2.667.667h10.667q.828 0 1.414.586t.586 1.414v10.667q0 .828-.586 1.414t-1.414.586H2.667q-.828 0-1.414-.586t-.586-1.414V2.667q0-.828.586-1.414T2.667.667zM14 11.609l-3.333-3.333L4.943 14h8.391q.276 0 .471-.195t.195-.471V11.61zM13.333 2H2.666q-.276 0-.471.195T2 2.666v10.667q0 .276.195.471t.471.195h.391l7.609-7.609 3.333 3.333V2.666q0-.276-.195-.471T13.333 2zm-8 1.333q.828 0 1.414.586t.586 1.414-.586 1.414-1.414.586-1.414-.586-.586-1.414.586-1.414 1.414-.586zm0 1.334q-.276 0-.471.195t-.195.471.195.471.471.195.471-.195.195-.471-.195-.471-.471-.195z"/></symbol><symbol id="Signal"><path class="path1" d="M8 2.667q2.047 0 3.984.719T15.5 5.501q.224.193.224.5 0 .26-.167.443l-.031.031q-.193.193-.469.193-.26 0-.443-.167-1.391-1.229-3.102-1.865t-3.513-.635-3.513.635-3.102 1.865q-.182.167-.443.167-.307 0-.5-.224-.167-.182-.167-.443 0-.307.224-.5 1.583-1.396 3.518-2.115t3.982-.719zm.005 8q.906 0 1.682.458.156.094.245.247t.089.331-.094.333q-.047.078-.104.135-.193.193-.474.193-.188 0-.333-.089-.474-.276-1.01-.276-.542 0-1.016.276-.167.094-.339.094-.38 0-.578-.328-.094-.156-.094-.333 0-.38.328-.578.786-.464 1.698-.464zM8 6.672q1.26 0 2.453.417t2.188 1.234q.245.198.245.516 0 .24-.151.422-.031.042-.042.052-.193.193-.469.193-.245 0-.427-.151-.813-.667-1.792-1.01T8 8.001t-2.005.344-1.792 1.01q-.182.151-.422.151-.318 0-.516-.245-.151-.182-.151-.422 0-.318.245-.516.99-.818 2.188-1.234T8 6.672z"/></symbol><symbol id="Target"><path class="path1" d="M8 .667q1.495 0 2.852.581t2.339 1.563 1.563 2.339.581 2.852-.581 2.852-1.563 2.339-2.339 1.563T8 15.337t-2.852-.581-2.339-1.563-1.563-2.339-.581-2.852.581-2.852 1.563-2.339 2.339-1.563T8 .667zM8 2q-1.219 0-2.331.477T3.755 3.756 2.476 5.67t-.477 2.331.477 2.331 1.279 1.914 1.914 1.279T8 14.002t2.331-.477 1.914-1.279 1.279-1.914.477-2.331-.477-2.331-1.279-1.914-1.914-1.279T8 2zm0 1.333q.948 0 1.813.37t1.49.995.995 1.49.37 1.813-.37 1.813-.995 1.49-1.49.995-1.813.37-1.813-.37-1.49-.995-.995-1.49-.37-1.813.37-1.813.995-1.49 1.49-.995T8 3.333zm0 1.334q-.677 0-1.294.266t-1.063.711-.711 1.063-.266 1.294.266 1.294.711 1.063 1.063.711T8 11.335t1.294-.266 1.063-.711.711-1.063.266-1.294-.266-1.294-.711-1.063-1.063-.711T8 4.667zM8 6q.828 0 1.414.586T10 8t-.586 1.414T8 10t-1.414-.586T6 8t.586-1.414T8 6zm0 1.333q-.276 0-.471.195t-.195.471.195.471.471.195.471-.195.195-.471-.195-.471T8 7.333z"/></symbol><symbol id="Clipboard"><path class="path1" d="M6.667.667h2.667q.646 0 1.161.372t.724.961H12q.828 0 1.414.586T14 4v9.333q0 .828-.586 1.414T12 15.333H4q-.828 0-1.414-.586T2 13.333V4q0-.828.586-1.414T4 2h.781q.208-.589.724-.961T6.666.667zM12 3.333h-.781q-.208.589-.724.961t-1.161.372H6.667q-.646 0-1.161-.372t-.724-.961h-.781q-.276 0-.471.195t-.195.471v9.333q0 .276.195.471t.471.195h8q.276 0 .471-.195t.195-.471V3.999q0-.276-.195-.471t-.471-.195zM9.333 2H6.666q-.276 0-.471.195T6 2.666t.195.471.471.195h2.667q.276 0 .471-.195t.195-.471-.195-.471T9.333 2z"/></symbol><symbol id="Clock"><path class="path1" d="M8 .667q1.495 0 2.852.581t2.339 1.563 1.563 2.339.581 2.852-.581 2.852-1.563 2.339-2.339 1.563T8 15.337t-2.852-.581-2.339-1.563-1.563-2.339-.581-2.852.581-2.852 1.563-2.339 2.339-1.563T8 .667zM8 2q-1.219 0-2.331.477T3.755 3.756 2.476 5.67t-.477 2.331.477 2.331 1.279 1.914 1.914 1.279T8 14.002t2.331-.477 1.914-1.279 1.279-1.914.477-2.331-.477-2.331-1.279-1.914-1.914-1.279T8 2zm0 1.333q.276 0 .471.195t.195.471v3.724l1.807 1.802q.193.193.193.474t-.193.474-.474.193-.474-.193l-2-2q-.193-.193-.193-.474v-4q0-.276.195-.471t.471-.195z"/></symbol><symbol id="Watch"><path class="path1" d="M6 0h4q.828 0 1.414.586T12 2v1.531q.938.833 1.469 1.997T14 7.999t-.531 2.469-1.469 2v1.531q0 .828-.586 1.414T10 15.999H6q-.828 0-1.414-.586T4 13.999v-1.531q-.938-.839-1.469-2T2 7.999t.531-2.471T4 3.531V2q0-.828.586-1.414T6 0zm4.667 14v-.625Q9.417 14 8 14t-2.667-.625V14q0 .276.195.471t.471.195h4q.276 0 .471-.195t.195-.471zM8 3.333q-.948 0-1.813.37t-1.49.995-.995 1.49-.37 1.813.37 1.813.995 1.49 1.49.995 1.813.37 1.813-.37 1.49-.995.995-1.49.37-1.813-.37-1.813-.995-1.49-1.49-.995T8 3.333zm0 1.334q.276 0 .471.195t.195.471v2.391l1.141 1.135q.193.193.193.474t-.193.474-.474.193-.474-.193L7.526 8.474Q7.333 8.281 7.333 8V5.333q0-.276.195-.471t.471-.195zm2-3.334H6q-.276 0-.471.195t-.195.471v.625q1.25-.625 2.667-.625t2.667.625v-.625q0-.276-.195-.471t-.471-.195z"/></symbol><symbol id="Air-play"><path class="path1" d="M2.667 1.333h10.667q.828 0 1.414.586t.586 1.414V10q0 .828-.586 1.414T13.334 12h-1.667l-1-1.333h2.667q.276 0 .471-.195t.195-.471V3.334q0-.276-.195-.471t-.471-.195H2.667q-.276 0-.471.195t-.195.471v6.667q0 .276.195.471t.471.195h2.667l-1 1.333H2.667q-.828 0-1.414-.586T.667 10V3.333q0-.828.586-1.414t1.414-.586zm6.666 12L8 11.557l-1.333 1.776h2.667zM4 14.667l4-5.333 4 5.333H4z"/></symbol><symbol id="Camera"><path class="path1" d="M5.333 1.333h5.333l1.333 2h2q.828 0 1.414.596t.586 1.424v7.323q0 .828-.586 1.409t-1.414.581h-12q-.828 0-1.414-.586t-.586-1.414V5.343q0-.828.586-1.419t1.414-.591h2zm2.667 4q.677 0 1.294.266t1.063.711.711 1.063.266 1.294-.266 1.294-.711 1.063-1.063.711T8 12.001t-1.294-.266-1.063-.711-.711-1.063-.266-1.294.266-1.294.711-1.063 1.063-.711T8 5.333zm0 1.334q-.828 0-1.414.586T6 8.667t.586 1.414T8 10.667t1.414-.586T10 8.667t-.586-1.414T8 6.667zm3.286-2l-1.307-2H6.047l-1.333 2H2q-.276 0-.471.198t-.195.479v7.323q0 .276.195.471t.471.195h12q.281 0 .474-.19t.193-.466V5.354q0-.281-.198-.484T14 4.667h-2.714z"/></symbol><symbol id="Video"><path class="path1" d="M2 3.333h7.333q.828 0 1.414.586t.586 1.414v1.214L16 4v8l-4.667-2.547v1.214q0 .828-.586 1.414t-1.414.586H2q-.828 0-1.414-.586T0 10.667V5.334q0-.828.586-1.414T2 3.334zm7.333 1.334H2q-.276 0-.471.195t-.195.471v5.333q0 .276.195.471t.471.195h7.333q.276 0 .471-.195t.195-.471V5.333q0-.276-.195-.471t-.471-.195zm5.334 5.088v-3.51L11.453 8z"/></symbol><symbol id="Disc"><path class="path1" d="M8 .667q1.495 0 2.852.581t2.339 1.563 1.563 2.339.581 2.852-.581 2.852-1.563 2.339-2.339 1.563T8 15.337t-2.852-.581-2.339-1.563-1.563-2.339-.581-2.852.581-2.852 1.563-2.339 2.339-1.563T8 .667zM8 2q-1.219 0-2.331.477T3.755 3.756 2.476 5.67t-.477 2.331.477 2.331 1.279 1.914 1.914 1.279T8 14.002t2.331-.477 1.914-1.279 1.279-1.914.477-2.331-.477-2.331-1.279-1.914-1.914-1.279T8 2zm0 3.333q1.104 0 1.885.781t.781 1.885-.781 1.885T8 10.665t-1.885-.781-.781-1.885.781-1.885T8 5.333zm0 1.334q-.552 0-.943.391t-.391.943.391.943.943.391.943-.391.391-.943-.391-.943T8 6.667z"/></symbol><symbol id="Printer"><path class="path1" d="M6 1.333h4q.828 0 1.414.586T12 3.333v3.333h1.333q.828 0 1.414.586t.586 1.414v2.667q0 .828-.586 1.414t-1.414.586h-1.448q-.208.589-.724.961T10 14.666H6q-.646 0-1.161-.372t-.724-.961H2.667q-.828 0-1.414-.586t-.586-1.414V8.666q0-.828.586-1.414t1.414-.586H4V3.333q0-.828.586-1.414T6 1.333zM10 12H6q-.276 0-.471.195t-.195.471.195.471.471.195h4q.276 0 .471-.195t.195-.471-.195-.471T10 12zm3.333-4H2.666q-.276 0-.471.195T2 8.666v2.667q0 .276.195.471t.471.195h1.448q.208-.589.724-.961t1.161-.372h4q.646 0 1.161.372t.724.961h1.448q.276 0 .471-.195t.195-.471V8.666q0-.276-.195-.471T13.332 8zM10 2.667H6q-.276 0-.471.195t-.195.471v3.333h5.333V3.333q0-.276-.195-.471t-.471-.195z"/></symbol><symbol id="Monitor"><path class="path1" d="M2.667 1.333h10.667q.828 0 1.414.586t.586 1.414V10q0 .828-.586 1.414T13.334 12H8.667v1.333h2q.276 0 .471.195t.195.471-.195.471-.471.195H5.334q-.276 0-.471-.195t-.195-.471.195-.471.471-.195h2V12H2.667q-.828 0-1.414-.586T.667 10V3.333q0-.828.586-1.414t1.414-.586zm10.666 1.334H2.666q-.276 0-.471.195T2 3.333V10q0 .276.195.471t.471.195h10.667q.276 0 .471-.195t.195-.471V3.333q0-.276-.195-.471t-.471-.195z"/></symbol><symbol id="Server"><path class="path1" d="M8 .667q1.365 0 2.641.164t2.341.479 1.708.839.643 1.185v9.333q0 .661-.643 1.185t-1.708.839-2.341.479T8 15.334t-2.641-.164-2.341-.479-1.708-.839-.643-1.185V3.334q0-.661.643-1.185t1.708-.839T5.359.831 8 .667zm6 11.989V9.62q-1.021.516-2.63.781T8 10.667t-3.37-.266T2 9.62v3.047q.031.115.279.276t.758.349 1.188.344 1.672.26T8.001 14t2.104-.104 1.672-.263 1.188-.346.758-.349.279-.281zm0-4.666V4.954q-1.021.516-2.63.781T8 6.001t-3.37-.266T2 4.954v3.047q.031.115.279.276t.758.349 1.188.344 1.672.26 2.104.104 2.104-.104 1.669-.26 1.185-.344.76-.352T14 7.99zM8 2q-1.099 0-2.089.104t-1.661.258-1.185.339-.768.349T2 3.334q.042.12.297.284t.768.349 1.185.339 1.661.258T8 4.668t2.089-.104 1.661-.258 1.185-.339.768-.349.297-.284q-.042-.12-.297-.284t-.768-.349-1.185-.339-1.661-.258T8 2z"/></symbol><symbol id="Cog"><path class="path1" d="M8 0q.828 0 1.414.586T10 2v.344q.245.083.589.24l.24-.24q.589-.589 1.417-.589.823 0 1.411.589t.589 1.411q0 .828-.589 1.417l-.24.24q.156.344.24.589h.344q.828 0 1.414.586t.586 1.414-.586 1.414-1.414.586h-.344q-.083.245-.24.589l.24.24q.589.589.589 1.417 0 .823-.589 1.411t-1.411.589q-.828 0-1.417-.589l-.24-.24q-.344.156-.589.24v.344q0 .828-.586 1.414T8 16.002t-1.414-.586T6 14.002v-.344q-.245-.083-.589-.24l-.24.24q-.589.589-1.411.589-.828 0-1.414-.589t-.586-1.411q0-.833.583-1.417l.24-.24q-.156-.344-.24-.589h-.344q-.828 0-1.414-.586t-.586-1.414.586-1.414 1.414-.586h.344q.083-.245.24-.589l-.24-.24q-.583-.583-.583-1.417 0-.823.586-1.411t1.414-.589q.823 0 1.411.589l.24.24q.344-.156.589-.24V2q0-.828.586-1.414T8 0zm0 1.333q-.276 0-.471.195t-.195.471v1.38q-1.167.167-2.13.88l-.974-.974q-.198-.198-.469-.198-.276 0-.471.195t-.195.471q0 .281.193.474l.974.974q-.714.964-.88 2.13h-1.38q-.276 0-.471.195t-.195.471.195.471.471.195h1.38q.167 1.167.88 2.13l-.974.974q-.193.193-.193.474 0 .276.195.471t.471.195q.271 0 .469-.198l.974-.974q.964.714 2.13.88v1.38q0 .276.195.471t.471.195.471-.195.195-.471v-1.38q1.167-.167 2.13-.88l.974.974q.198.198.474.198t.471-.195.195-.471-.198-.474l-.974-.974q.714-.964.88-2.13h1.38q.276 0 .471-.195t.195-.471-.195-.471-.471-.195h-1.38q-.167-1.167-.88-2.13l.974-.974q.198-.198.198-.474t-.195-.471-.471-.195-.474.198l-.974.974q-.964-.714-2.13-.88v-1.38q0-.276-.195-.471T8 1.333zm0 4q1.104 0 1.885.781t.781 1.885-.781 1.885T8 10.665t-1.885-.781-.781-1.885.781-1.885T8 5.333zm0 1.334q-.552 0-.943.391t-.391.943.391.943.943.391.943-.391.391-.943-.391-.943T8 6.667z"/></symbol><symbol id="Heart"><path class="path1" d="M11.771 1.333q1.089 0 2.008.536t1.456 1.456.536 2.008q0 .781-.299 1.518t-.872 1.31L8.001 14.76 1.402 8.161Q.829 7.588.53 6.851T.231 5.333q0-1.089.536-2.008t1.456-1.456 2.008-.536q.786 0 1.518.297t1.31.875l.943.943.943-.943q.573-.573 1.31-.872t1.518-.299zm0 1.334q-.521 0-1.01.198t-.875.583L8.001 5.333 6.116 3.448q-.385-.385-.875-.583t-1.01-.198q-.729 0-1.341.357t-.969.969-.357 1.341q0 .521.198 1.01t.583.875l5.656 5.656 5.656-5.656q.385-.385.583-.875t.198-1.01q0-.729-.357-1.341t-.969-.969-1.341-.357z"/></symbol><symbol id="Paragraph"><path class="path1" d="M6.667.667h6q.276 0 .471.195t.195.471v13.333q0 .276-.195.471t-.471.195-.471-.195-.195-.471V1.999h-1.333v12.667q0 .276-.195.471t-.471.195-.471-.195-.195-.471v-6H6.669q-1.089 0-2.008-.536T3.205 6.674t-.536-2.008.536-2.008 1.456-1.456T6.669.666zm2.666 6.666V2H6.666q-1.104 0-1.885.781T4 4.666t.781 1.885 1.885.781h2.667z"/></symbol><symbol id="Align-justify"><path class="path1" d="M2 3.333h12q.276 0 .471.195t.195.471-.195.471-.471.195H2q-.276 0-.471-.195t-.195-.471.195-.471T2 3.333zm0 8h12q.276 0 .471.195t.195.471-.195.471-.471.195H2q-.276 0-.471-.195t-.195-.471.195-.471.471-.195zm0-2.666h12q.276 0 .471.195t.195.471-.195.471-.471.195H2q-.276 0-.471-.195t-.195-.471.195-.471T2 8.667zM2 6h12q.276 0 .471.195t.195.471-.195.471-.471.195H2q-.276 0-.471-.195t-.195-.471.195-.471T2 6z"/></symbol><symbol id="Align-left"><path class="path1" d="M2 3.333h12q.276 0 .471.195t.195.471-.195.471-.471.195H2q-.276 0-.471-.195t-.195-.471.195-.471T2 3.333zm0 8h9.333q.276 0 .471.195t.195.471-.195.471-.471.195H2q-.276 0-.471-.195t-.195-.471.195-.471.471-.195zm0-2.666h12q.276 0 .471.195t.195.471-.195.471-.471.195H2q-.276 0-.471-.195t-.195-.471.195-.471T2 8.667zM2 6h9.333q.276 0 .471.195t.195.471-.195.471-.471.195H2q-.276 0-.471-.195t-.195-.471.195-.471T2 6z"/></symbol><symbol id="Align-center"><path class="path1" d="M2 3.333h12q.276 0 .471.195t.195.471-.195.471-.471.195H2q-.276 0-.471-.195t-.195-.471.195-.471T2 3.333zm1.333 8h9.333q.276 0 .471.195t.195.471-.195.471-.471.195H3.333q-.276 0-.471-.195t-.195-.471.195-.471.471-.195zM2 8.667h12q.276 0 .471.195t.195.471-.195.471-.471.195H2q-.276 0-.471-.195t-.195-.471.195-.471T2 8.667zM3.333 6h9.333q.276 0 .471.195t.195.471-.195.471-.471.195H3.333q-.276 0-.471-.195t-.195-.471.195-.471T3.333 6z"/></symbol><symbol id="Align-right"><path class="path1" d="M2 3.333h12q.276 0 .471.195t.195.471-.195.471-.471.195H2q-.276 0-.471-.195t-.195-.471.195-.471T2 3.333zm2.667 8H14q.276 0 .471.195t.195.471-.195.471-.471.195H4.667q-.276 0-.471-.195t-.195-.471.195-.471.471-.195zM2 8.667h12q.276 0 .471.195t.195.471-.195.471-.471.195H2q-.276 0-.471-.195t-.195-.471.195-.471T2 8.667zM4.667 6H14q.276 0 .471.195t.195.471-.195.471-.471.195H4.667q-.276 0-.471-.195t-.195-.471.195-.471T4.667 6z"/></symbol><symbol id="Book"><path class="path1" d="M3.333.667H14v14.667H3.333q-.828 0-1.414-.586t-.586-1.414V2.667q0-.828.586-1.414T3.333.667zM12.667 14v-1.333H3.334q-.276 0-.471.195t-.195.471.195.471.471.195h9.333zm0-2.667V2H3.334q-.276 0-.471.195t-.195.471v8.781q.328-.115.667-.115h9.333z"/></symbol><symbol id="Layers"><path class="path1" d="M0 4.667l8-4 8 4-8 4zm8 8.172l6.5-3.255 1.5.75-8 4.005-8-4.005 1.5-.75zm0-2.834l6.5-3.25 1.5.75-8 4-8-4 1.5-.75zm5.021-5.338L8 2.157l-5.021 2.51L8 7.177z"/></symbol><symbol id="Stack"><path class="path1" d="M7.333.667h6q.828 0 1.414.586t.586 1.414v6q0 .828-.586 1.414t-1.414.586h-2.667v2.667q0 .828-.586 1.414t-1.414.586h-6q-.828 0-1.414-.586t-.586-1.414v-6q0-.828.586-1.414t1.414-.586h2.667V2.667q0-.828.586-1.414T7.333.667zm-2 8v-2H2.666q-.276 0-.471.195T2 7.333v6q0 .276.195.471t.471.195h6q.276 0 .471-.195t.195-.471v-2.667h-2q-.828 0-1.414-.586t-.586-1.414zm8-6.667h-6q-.276 0-.471.195t-.195.471v6q0 .276.195.471t.471.195h6q.276 0 .471-.195t.195-.471v-6q0-.276-.195-.471T13.333 2z"/></symbol><symbol id="Stack-2"><path class="path1" d="M6 1.333h6.667q.828 0 1.414.586t.586 1.414V10q0 .828-.586 1.414T12.667 12H6q-.828 0-1.414-.586T4 10V3.333q0-.828.586-1.414T6 1.333zM2.667 4.115v8.552q0 .276.195.471t.471.195h8.552q-.208.589-.724.961T10 14.666H3.333q-.828 0-1.414-.586t-.586-1.414V5.999q0-.646.372-1.161t.961-.724zm10-1.448H6q-.276 0-.471.195t-.195.471V10q0 .276.195.471t.471.195h6.667q.276 0 .471-.195t.195-.471V3.333q0-.276-.195-.471t-.471-.195z"/></symbol><symbol id="Paper"><path class="path1" d="M3.333 0h9.333q.828 0 1.414.586T14.666 2v12q0 .828-.586 1.414T12.666 16H3.333q-.828 0-1.414-.586T1.333 14V2q0-.828.586-1.414T3.333 0zm2 11.333h5.333q.276 0 .471.195t.195.471-.195.471-.471.195H5.333q-.276 0-.471-.195t-.195-.471.195-.471.471-.195zm0-2.666h5.333q.276 0 .471.195t.195.471-.195.471-.471.195H5.333q-.276 0-.471-.195t-.195-.471.195-.471.471-.195zm7.334-7.334H3.334q-.276 0-.471.195t-.195.471v12q0 .276.195.471t.471.195h9.333q.276 0 .471-.195t.195-.471v-12q0-.276-.195-.471t-.471-.195zM5.333 6h5.333q.276 0 .471.195t.195.471-.195.471-.471.195H5.333q-.276 0-.471-.195t-.195-.471.195-.471T5.333 6zm0-2.667H8q.276 0 .471.195t.195.471-.195.471T8 4.665H5.333q-.276 0-.471-.195t-.195-.471.195-.471.471-.195z"/></symbol><symbol id="Paper-stack"><path class="path1" d="M6 0h6.667q.828 0 1.414.586T14.667 2v9.333q0 .828-.586 1.414t-1.414.586H6q-.828 0-1.414-.586T4 11.333V2q0-.828.586-1.414T6 0zM2.667 2.781V14q0 .276.195.471t.471.195h8.552q-.208.589-.724.961T10 15.999H3.333q-.828 0-1.414-.586t-.586-1.414V4.666q0-.646.372-1.161t.961-.724zm10-1.448H6q-.276 0-.471.195t-.195.471v9.333q0 .276.195.471t.471.195h6.667q.276 0 .471-.195t.195-.471V1.999q0-.276-.195-.471t-.471-.195z"/></symbol><symbol id="Search"><path class="path1" d="M6.667.667q1.219 0 2.331.477t1.914 1.279 1.279 1.914.477 2.331q0 1.047-.341 2.005t-.971 1.74l3.786 3.781q.193.193.193.474 0 .286-.19.477t-.477.19q-.281 0-.474-.193l-3.781-3.786q-.781.63-1.74.971t-2.005.341q-1.219 0-2.331-.477t-1.914-1.279-1.279-1.914-.477-2.331.477-2.331 1.279-1.914 1.914-1.279T6.668.666zm0 1.333q-.948 0-1.813.37t-1.49.995-.995 1.49-.37 1.813.37 1.813.995 1.49 1.49.995 1.813.37 1.812-.37 1.49-.995.995-1.49.37-1.813-.37-1.813-.995-1.49-1.49-.995T6.666 2z"/></symbol><symbol id="Zoom-in"><path class="path1" d="M6.667.667q1.219 0 2.331.477t1.914 1.279 1.279 1.914.477 2.331q0 1.047-.341 2.005t-.971 1.74l3.786 3.781q.193.193.193.474 0 .286-.19.477t-.477.19q-.281 0-.474-.193l-3.781-3.786q-.781.63-1.74.971t-2.005.341q-1.219 0-2.331-.477t-1.914-1.279-1.279-1.914-.477-2.331.477-2.331 1.279-1.914 1.914-1.279T6.668.666zm0 1.333q-.948 0-1.813.37t-1.49.995-.995 1.49-.37 1.813.37 1.813.995 1.49 1.49.995 1.813.37 1.812-.37 1.49-.995.995-1.49.37-1.813-.37-1.813-.995-1.49-1.49-.995T6.666 2zm0 2q.276 0 .471.195t.195.471v1.333h1.333q.276 0 .471.195t.195.471-.195.471-.471.195H7.333v1.333q0 .276-.195.471t-.471.195-.471-.195-.195-.471V7.331H4.668q-.276 0-.471-.195t-.195-.471.195-.471.471-.195h1.333V4.666q0-.276.195-.471T6.667 4z"/></symbol><symbol id="Zoom-out"><path class="path1" d="M6.667.667q1.219 0 2.331.477t1.914 1.279 1.279 1.914.477 2.331q0 1.047-.341 2.005t-.971 1.74l3.786 3.781q.193.193.193.474 0 .286-.19.477t-.477.19q-.281 0-.474-.193l-3.781-3.786q-.781.63-1.74.971t-2.005.341q-1.219 0-2.331-.477t-1.914-1.279-1.279-1.914-.477-2.331.477-2.331 1.279-1.914 1.914-1.279T6.668.666zm0 1.333q-.948 0-1.813.37t-1.49.995-.995 1.49-.37 1.813.37 1.813.995 1.49 1.49.995 1.813.37 1.812-.37 1.49-.995.995-1.49.37-1.813-.37-1.813-.995-1.49-1.49-.995T6.666 2zm-2 4h4q.276 0 .471.195t.195.471-.195.471-.471.195h-4q-.276 0-.471-.195t-.195-.471.195-.471T4.667 6z"/></symbol><symbol id="Reply"><path class="path1" d="M5.573 2.422q.271 0 .469.195t.198.471-.198.474L2.938 6.666h6.396q1.219 0 2.331.474t1.914 1.279 1.279 1.914.477 2.333v.667q0 .276-.195.471t-.471.195q-.271 0-.469-.198t-.198-.469v-.667q0-.948-.37-1.813t-.995-1.49-1.49-.995-1.813-.37H2.938l3.104 3.109q.198.198.198.469 0 .276-.195.474t-.471.198-.474-.198L.86 7.804Q.667 7.611.667 7.33q0-.276.193-.469L5.1 2.616q.198-.198.474-.198z"/></symbol><symbol id="Circle-plus"><path class="path1" d="M8 .667q1.495 0 2.852.581t2.339 1.563 1.563 2.339.581 2.852-.581 2.852-1.563 2.339-2.339 1.563T8 15.337t-2.852-.581-2.339-1.563-1.563-2.339-.581-2.852.581-2.852 1.563-2.339 2.339-1.563T8 .667zM8 2q-1.219 0-2.331.477T3.755 3.756 2.476 5.67t-.477 2.331.477 2.331 1.279 1.914 1.914 1.279T8 14.002t2.331-.477 1.914-1.279 1.279-1.914.477-2.331-.477-2.331-1.279-1.914-1.914-1.279T8 2zm0 2.667q.276 0 .471.195t.195.471v2h2q.276 0 .471.195t.195.471-.195.471-.471.195h-2v2q0 .276-.195.471T8 11.331t-.471-.195-.195-.471v-2h-2q-.276 0-.471-.195t-.195-.471.195-.471.471-.195h2v-2q0-.276.195-.471T8 4.667z"/></symbol><symbol id="Circle-minus"><path class="path1" d="M8 .667q1.495 0 2.852.581t2.339 1.563 1.563 2.339.581 2.852-.581 2.852-1.563 2.339-2.339 1.563T8 15.337t-2.852-.581-2.339-1.563-1.563-2.339-.581-2.852.581-2.852 1.563-2.339 2.339-1.563T8 .667zM8 2q-1.219 0-2.331.477T3.755 3.756 2.476 5.67t-.477 2.331.477 2.331 1.279 1.914 1.914 1.279T8 14.002t2.331-.477 1.914-1.279 1.279-1.914.477-2.331-.477-2.331-1.279-1.914-1.914-1.279T8 2zM5.333 7.333h5.333q.276 0 .471.195t.195.471-.195.471-.471.195H5.333q-.276 0-.471-.195t-.195-.471.195-.471.471-.195z"/></symbol><symbol id="Circle-check"><path class="path1" d="M8 .667q1.495 0 2.852.581t2.339 1.563 1.563 2.339.581 2.852-.581 2.852-1.563 2.339-2.339 1.563T8 15.337t-2.852-.581-2.339-1.563-1.563-2.339-.581-2.852.581-2.852 1.563-2.339 2.339-1.563T8 .667zM8 2q-1.219 0-2.331.477T3.755 3.756 2.476 5.67t-.477 2.331.477 2.331 1.279 1.914 1.914 1.279T8 14.002t2.331-.477 1.914-1.279 1.279-1.914.477-2.331-.477-2.331-1.279-1.914-1.914-1.279T8 2zm2.245 3.995q.276 0 .471.195t.195.471-.198.474L7.885 9.963q-.193.193-.469.193-.281 0-.474-.193L5.525 8.552q-.193-.193-.193-.474 0-.276.195-.471t.471-.195.474.198l.943.943 2.354-2.359q.198-.198.474-.198z"/></symbol><symbol id="Circle-cross"><path class="path1" d="M8 .667q1.495 0 2.852.581t2.339 1.563 1.563 2.339.581 2.852-.581 2.852-1.563 2.339-2.339 1.563T8 15.337t-2.852-.581-2.339-1.563-1.563-2.339-.581-2.852.581-2.852 1.563-2.339 2.339-1.563T8 .667zM8 2q-1.219 0-2.331.477T3.755 3.756 2.476 5.67t-.477 2.331.477 2.331 1.279 1.914 1.914 1.279T8 14.002t2.331-.477 1.914-1.279 1.279-1.914.477-2.331-.477-2.331-1.279-1.914-1.914-1.279T8 2zm1.885 3.443q.276 0 .474.195t.198.471-.198.474L8.942 8l1.417 1.411q.198.198.198.469 0 .276-.198.471t-.474.195-.469-.193L7.999 8.942l-1.411 1.411q-.193.193-.474.193-.276 0-.471-.193t-.195-.469q0-.281.193-.474l1.417-1.411-1.417-1.417q-.193-.193-.193-.469t.195-.474.471-.198.474.198l1.411 1.417 1.417-1.417q.198-.198.469-.198z"/></symbol><symbol id="Square-plus"><path class="path1" d="M2.667.667h10.667q.828 0 1.414.586t.586 1.414v10.667q0 .828-.586 1.414t-1.414.586H2.667q-.828 0-1.414-.586t-.586-1.414V2.667q0-.828.586-1.414T2.667.667zM13.333 2H2.666q-.276 0-.471.195T2 2.666v10.667q0 .276.195.471t.471.195h10.667q.276 0 .471-.195t.195-.471V2.666q0-.276-.195-.471T13.333 2zM8 4.667q.276 0 .471.195t.195.471v2h2q.276 0 .471.195t.195.471-.195.471-.471.195h-2v2q0 .276-.195.471T8 11.331t-.471-.195-.195-.471v-2h-2q-.276 0-.471-.195t-.195-.471.195-.471.471-.195h2v-2q0-.276.195-.471T8 4.667z"/></symbol><symbol id="Square-minus"><path class="path1" d="M2.667.667h10.667q.828 0 1.414.586t.586 1.414v10.667q0 .828-.586 1.414t-1.414.586H2.667q-.828 0-1.414-.586t-.586-1.414V2.667q0-.828.586-1.414T2.667.667zM13.333 2H2.666q-.276 0-.471.195T2 2.666v10.667q0 .276.195.471t.471.195h10.667q.276 0 .471-.195t.195-.471V2.666q0-.276-.195-.471T13.333 2zm-8 5.333h5.333q.276 0 .471.195t.195.471-.195.471-.471.195H5.333q-.276 0-.471-.195t-.195-.471.195-.471.471-.195z"/></symbol><symbol id="Square-check"><path class="path1" d="M2.667.667h10.667q.828 0 1.414.586t.586 1.414v10.667q0 .828-.586 1.414t-1.414.586H2.667q-.828 0-1.414-.586t-.586-1.414V2.667q0-.828.586-1.414T2.667.667zM13.333 2H2.666q-.276 0-.471.195T2 2.666v10.667q0 .276.195.471t.471.195h10.667q.276 0 .471-.195t.195-.471V2.666q0-.276-.195-.471T13.333 2zm-2.666 3.682q.271 0 .469.195t.198.471-.198.474l-3.297 3.297q-.193.193-.469.193-.281 0-.474-.193L5.011 8.234q-.193-.193-.193-.474 0-.276.195-.471t.471-.195q.271 0 .469.198l1.411 1.417 2.828-2.828q.198-.198.474-.198z"/></symbol><symbol id="Square-cross"><path class="path1" d="M2.667.667h10.667q.828 0 1.414.586t.586 1.414v10.667q0 .828-.586 1.414t-1.414.586H2.667q-.828 0-1.414-.586t-.586-1.414V2.667q0-.828.586-1.414T2.667.667zM13.333 2H2.666q-.276 0-.471.195T2 2.666v10.667q0 .276.195.471t.471.195h10.667q.276 0 .471-.195t.195-.471V2.666q0-.276-.195-.471T13.333 2zM9.885 5.443q.276 0 .474.198t.198.474-.198.474L8.942 8l1.417 1.411q.198.198.198.474t-.198.471-.474.195-.469-.193L7.999 8.941l-1.417 1.417q-.188.193-.469.193-.286 0-.477-.19t-.19-.477q0-.281.193-.474l1.417-1.411-1.417-1.411q-.193-.193-.193-.474 0-.276.195-.474t.471-.198q.281 0 .469.198l1.417 1.417L9.415 5.64q.198-.198.469-.198z"/></symbol><symbol id="Microphone"><path class="path1" d="M12.667 6q.276 0 .471.195t.195.471v1.333q0 1-.362 1.924t-.984 1.62-1.484 1.161-1.836.586v1.375h2q.276 0 .471.195t.195.471-.195.471-.471.195H5.334q-.276 0-.471-.195t-.195-.471.195-.471.471-.195h2V13.29q-.974-.12-1.836-.586t-1.484-1.161-.984-1.62-.362-1.924V6.666q0-.276.195-.471T3.334 6t.471.195.195.471v1.333q0 1.089.536 2.008t1.456 1.456T8 11.999t2.008-.536 1.456-1.456T12 7.999V6.666q0-.276.195-.471T12.666 6zM8 0q1.104 0 1.885.781t.781 1.885v5.333q0 1.104-.781 1.885T8 10.665t-1.885-.781-.781-1.885V2.666q0-1.104.781-1.885T8 0zm0 1.333q-.552 0-.943.391t-.391.943V8q0 .552.391.943T8 9.334t.943-.391T9.334 8V2.667q0-.552-.391-.943T8 1.333z"/></symbol><symbol id="Record"><path class="path1" d="M8 2q1.219 0 2.331.477t1.914 1.279 1.279 1.914.477 2.331-.477 2.331-1.279 1.914-1.914 1.279T8 14.002t-2.331-.477-1.914-1.279-1.279-1.914-.477-2.331.477-2.331 1.279-1.914 1.914-1.279T8 2zm0 1.333q-.948 0-1.813.37t-1.49.995-.995 1.49-.37 1.813.37 1.813.995 1.49 1.49.995 1.813.37 1.813-.37 1.49-.995.995-1.49.37-1.813-.37-1.813-.995-1.49-1.49-.995T8 3.333z"/></symbol><symbol id="Skip-back"><path class="path1" d="M11.333 2.667q.276 0 .471.195t.195.471q0 .281-.193.474L7.608 8l4.198 4.198q.193.193.193.474 0 .276-.195.469t-.471.193q-.281 0-.474-.193L6.192 8.474Q5.999 8.271 5.999 8q0-.266.193-.469l4.667-4.667q.198-.198.474-.198zM4 2.667q.276 0 .471.195t.195.471v9.333q0 .276-.195.471T4 13.332t-.471-.195-.195-.471V3.333q0-.276.195-.471T4 2.667z"/></symbol><symbol id="Rewind"><path class="path1" d="M12 2.667q.276 0 .471.195t.195.471-.198.474L8.275 8l4.193 4.193q.198.198.198.474t-.195.471-.471.195q-.281 0-.474-.193L6.859 8.473q-.193-.193-.193-.474t.193-.474l4.667-4.667q.193-.193.474-.193zm-4 0q.276 0 .471.195t.195.471-.198.474L4.275 8l4.193 4.193q.198.198.198.474t-.195.471-.471.195q-.281 0-.474-.193L2.859 8.473q-.193-.193-.193-.474t.193-.474l4.667-4.667q.193-.193.474-.193z"/></symbol><symbol id="Play"><path class="path1" d="M2.667 14V2l10 6zm7.406-6L4 4.354v7.292z"/></symbol><symbol id="Pause"><path class="path1" d="M10.667 2q.828 0 1.414.586T12.667 4v8q0 .828-.586 1.414T10.667 14t-1.414-.586T8.667 12V4q0-.828.586-1.414T10.667 2zM5.333 2q.828 0 1.414.586T7.333 4v8q0 .828-.586 1.414T5.333 14t-1.414-.586T3.333 12V4q0-.828.586-1.414T5.333 2zm0 1.333q-.276 0-.471.195t-.195.471v8q0 .276.195.471t.471.195.471-.195.195-.471v-8q0-.276-.195-.471t-.471-.195zm5.334 0q-.276 0-.471.195t-.195.471v8q0 .276.195.471t.471.195.471-.195.195-.471v-8q0-.276-.195-.471t-.471-.195z"/></symbol><symbol id="Stop"><path class="path1" d="M4 2h8q.828 0 1.414.586T14 4v8q0 .828-.586 1.414T12 14H4q-.828 0-1.414-.586T2 12V4q0-.828.586-1.414T4 2zm8 1.333H4q-.276 0-.471.195t-.195.471v8q0 .276.195.471t.471.195h8q.276 0 .471-.195t.195-.471v-8q0-.276-.195-.471T12 3.333z"/></symbol><symbol id="Fast-forward"><path class="path1" d="M7.333 2.667q.276 0 .469.193l4.667 4.667q.198.198.198.474t-.198.474l-4.667 4.667q-.193.193-.469.193t-.471-.195-.195-.471q0-.281.193-.474l4.193-4.193L6.86 3.809q-.193-.193-.193-.474 0-.286.19-.477t.477-.19zm-4 0q.276 0 .469.193l4.667 4.667q.198.198.198.474t-.198.474l-4.667 4.667q-.193.193-.469.193t-.471-.195-.195-.471q0-.281.193-.474l4.193-4.193L2.86 3.809q-.193-.193-.193-.474 0-.286.19-.477t.477-.19z"/></symbol><symbol id="Skip-forward"><path class="path1" d="M4 2.667q.276 0 .474.198l4.667 4.667q.193.193.193.469 0 .281-.193.474l-4.667 4.667q-.193.193-.474.193-.276 0-.471-.193t-.195-.469q0-.271.193-.474l4.198-4.198-4.198-4.193q-.193-.203-.193-.474 0-.276.195-.471T4 2.668zm7.333 0q.276 0 .471.195t.195.471v9.333q0 .276-.195.471t-.471.195-.471-.195-.195-.471V3.333q0-.276.195-.471t.471-.195z"/></symbol><symbol id="Shuffle"><path class="path1" d="M12 0q.276 0 .474.198l2.667 2.667q.193.193.193.469 0 .281-.193.474l-2.667 2.667q-.193.193-.474.193-.276 0-.471-.195t-.195-.471q0-.266.193-.469l1.531-1.531h-1.057q-.938 0-1.76.409t-1.38 1.117q-.859 1.094-.859 2.474 0 1.391-.667 2.583-.354.641-.859 1.151-.74.755-1.724 1.177t-2.083.422H1.336q-.276 0-.471-.195t-.195-.471.195-.471.471-.195h1.333q.943 0 1.763-.406t1.378-1.115q.859-1.094.859-2.479 0-1.391.667-2.583.359-.646.859-1.146.74-.755 1.724-1.18t2.083-.424h1.057l-1.531-1.526q-.193-.203-.193-.474 0-.276.195-.471t.471-.195zm0 9.333q.276 0 .474.198l2.667 2.667q.193.193.193.474 0 .276-.193.469l-2.667 2.667q-.193.193-.474.193-.276 0-.471-.193t-.195-.469q0-.271.193-.474l1.531-1.531h-1.057q-1.099 0-2.083-.422t-1.724-1.177q.401-.589.667-1.255.557.708 1.378 1.115t1.763.406h1.057l-1.531-1.526q-.193-.203-.193-.474 0-.276.195-.471t.471-.195zM1.333 2.667h1.333q1.099 0 2.083.424t1.724 1.18q-.406.599-.667 1.255-.557-.708-1.38-1.117T2.666 4H1.333q-.276 0-.471-.195t-.195-.471.195-.471.471-.195z"/></symbol><symbol id="Repeat"><path class="path1" d="M.667 8.667h4q.276 0 .471.195t.195.471-.195.471-.471.195h-2.25L4.23 11.77q.771.776 1.766 1.172.953.391 2.005.391t2.005-.391q.521-.214.977-.523t.776-.635.583-.698.422-.685.268-.625q.094-.26.344-.378t.505-.029q.26.094.378.341t.029.503q-.219.667-.635 1.323t-.938 1.177q-.958.958-2.203 1.464-1.208.49-2.51.49-1.297 0-2.51-.49-1.245-.505-2.203-1.464l-1.953-1.911v2.531q0 .276-.195.471t-.471.195-.471-.195-.195-.471v-4q0-.276.195-.471t.471-.195zM8 1.333q1.297 0 2.51.49 1.245.505 2.203 1.464l.01.01 1.943 1.901V2.667q0-.276.195-.471t.471-.195.471.195.195.471v4q0 .276-.195.471t-.471.195h-4q-.276 0-.471-.195t-.195-.471.195-.471.471-.195h2.25L11.769 4.23q-.76-.76-1.732-1.161t-2.039-.401q-1.052 0-2.005.391-.995.396-1.766 1.172-.313.276-.685.841t-.576 1.154q-.094.26-.344.378t-.505.029q-.26-.094-.378-.341t-.029-.503q.219-.667.635-1.323t.938-1.177q.958-.958 2.203-1.464 1.214-.49 2.51-.49z"/></symbol><symbol id="Folder"><path class="path1" d="M2.667 1.333H6l1.333 2h6q.828 0 1.414.586t.586 1.414v7.333q0 .828-.586 1.414t-1.414.586H2.666q-.828 0-1.414-.586t-.586-1.414V3.333q0-.828.586-1.414t1.414-.586zM6.62 4.667l-1.286-2H2.667q-.276 0-.471.195t-.195.471v9.333q0 .276.195.471t.471.195h10.667q.276 0 .471-.195t.195-.471V5.333q0-.276-.195-.471t-.471-.195H6.62z"/></symbol><symbol id="Umbrella"><path class="path1" d="M8 .667q1.172 0 2.279.328t2.031.932 1.667 1.424 1.234 1.841.68 2.141Q16 7.979 16 8.666H8.667v4q0 .552.391.943t.943.391.943-.391.391-.943q0-.276.195-.471t.471-.195.471.195.195.471q0 1.104-.781 1.885t-1.885.781-1.885-.781-.781-1.885v-4H.002q0-.688.109-1.333.188-1.12.68-2.141t1.234-1.841 1.667-1.424T5.723.995 8.002.667zM8 2q-1.583 0-2.974.698t-2.32 1.911-1.237 2.724h13.063q-.307-1.51-1.237-2.724t-2.32-1.911T8.001 2z"/></symbol><symbol id="Moon"><path class="path1" d="M8 1.333q.224 0 .443.016Q8 2.302 8 3.333q0 .948.37 1.812t.995 1.49 1.49.995 1.813.37q1.031 0 1.984-.443.016.219.016.443 0 .906-.24 1.771t-.669 1.596-1.044 1.346-1.346 1.044-1.596.669-1.771.24-1.771-.24-1.596-.669-1.346-1.044-1.044-1.346-.669-1.596T1.336 8t.24-1.771.669-1.596 1.044-1.346 1.346-1.044 1.596-.669 1.771-.24zM6.688 2.828q-.859.219-1.602.708T3.81 4.697t-.839 1.529-.305 1.773q0 1.083.422 2.07t1.138 1.703 1.703 1.138 2.07.422q.917 0 1.773-.305t1.529-.839 1.161-1.276.708-1.602q-.224.021-.505.021-1.219 0-2.328-.477T8.423 7.573 7.142 5.659t-.477-2.328q0-.281.021-.505z"/></symbol><symbol id="Thermometer"><path class="path1" d="M7.667 0q.964 0 1.648.685T10 2.333v7.172q.62.516.977 1.253t.357 1.576q0 .745-.289 1.424t-.781 1.172-1.172.781T7.668 16t-1.424-.289-1.172-.781-.781-1.172-.289-1.424q0-.839.357-1.576t.977-1.253V2.333q0-.964.685-1.648T7.669 0zm0 1.333q-.417 0-.708.292t-.292.708v7.896q-.599.286-.966.852t-.367 1.253q0 .964.685 1.648t1.648.685 1.648-.685.685-1.648q0-.688-.367-1.253t-.966-.852V2.333q0-.417-.292-.708t-.708-.292z"/></symbol><symbol id="Drop"><path class="path1" d="M3.755 5.089L8 .844l4.245 4.245q.865.865 1.31 1.969T14 9.334q0 1.177-.445 2.276t-1.31 1.964-1.969 1.313T8 15.335t-2.276-.448-1.969-1.313q-.859-.865-1.307-1.966T2 9.335t.448-2.276T3.755 5.09zm7.547.942L8 2.729 4.698 6.031q-.667.672-1.016 1.531t-.349 1.771.346 1.768 1.018 1.529 1.531 1.021T7.999 14q.917 0 1.773-.349t1.529-1.021 1.018-1.526.346-1.771q0-.911-.346-1.771t-1.018-1.531z"/></symbol><symbol id="Sun"><path class="path1" d="M8 4q1.089 0 2.008.536t1.456 1.456T12 8t-.536 2.008-1.456 1.456T8 12t-2.008-.536-1.456-1.456T4 8t.536-2.008 1.456-1.456T8 4zm-4.24 7.573q.276 0 .471.198t.195.474q0 .271-.198.469l-.943.943q-.198.198-.469.198-.276 0-.471-.195t-.195-.471q0-.281.193-.474l.943-.943q.198-.198.474-.198zM8 13.333q.276 0 .471.195t.195.471v1.333q0 .276-.195.471T8 15.998t-.471-.195-.195-.471v-1.333q0-.276.195-.471T8 13.333zm-7.333-6H2q.276 0 .471.195t.195.471-.195.471T2 8.665H.667q-.276 0-.471-.195t-.195-.471.195-.471.471-.195zm7.333-2q-1.104 0-1.885.781t-.781 1.885.781 1.885T8 10.665t1.885-.781.781-1.885-.781-1.885T8 5.333zm4.245 6.24q.271 0 .469.198l.943.943q.198.198.198.474 0 .271-.198.469t-.469.198q-.276 0-.474-.198l-.943-.943q-.193-.193-.193-.469t.195-.474.471-.198zM2.818 2.146q.271 0 .469.198l.943.943q.198.198.198.469 0 .276-.195.471t-.471.195q-.281 0-.474-.193l-.943-.943q-.193-.193-.193-.474 0-.276.195-.471t.471-.195zM8 0q.276 0 .471.195t.195.471v1.333q0 .276-.195.471T8 2.665t-.471-.195-.195-.471V.666q0-.276.195-.471T8 0zm6 7.333h1.333q.276 0 .471.195t.195.471-.195.471-.471.195H14q-.276 0-.471-.195t-.195-.471.195-.471.471-.195zm-.812-5.187q.271 0 .469.198t.198.469q0 .276-.198.474l-.943.943q-.193.193-.469.193-.286 0-.477-.19t-.19-.477q0-.276.193-.469l.943-.943q.198-.198.474-.198z"/></symbol><symbol id="Cloud"><path class="path1" d="M10 2q1.219 0 2.331.477t1.914 1.279 1.279 1.914.477 2.331-.477 2.331-1.279 1.914-1.914 1.279-2.331.477H4q-1.089 0-2.008-.536T.536 12.01 0 10.002t.536-2.008 1.456-1.456T4 6.002h.344q.411-1.161 1.24-2.065t1.982-1.419 2.435-.516zm0 1.333q-.865 0-1.664.31t-1.406.841-1.016 1.271-.529 1.578H4q-1.104 0-1.885.781t-.781 1.885.781 1.885T4 12.665h6q.948 0 1.813-.37t1.49-.995.995-1.49.37-1.813-.37-1.813-.995-1.49-1.49-.995T10 3.329z"/></symbol><symbol id="Cloud-upload"><path class="path1" d="M10 1.333q1.219 0 2.331.477t1.914 1.279 1.279 1.914.477 2.331q0 1.135-.414 2.182t-1.125 1.833-1.698 1.305-2.096.643v-1.344q1.12-.161 2.034-.81t1.44-1.651.526-2.159q0-.948-.37-1.813t-.995-1.49-1.49-.995T10 2.665q-.865 0-1.664.31t-1.406.841-1.016 1.271-.529 1.578H4q-1.104 0-1.885.781t-.781 1.885q0 .604.237 1.12t.622.846.857.516.951.185h2.667v1.333H4.001q-1.089 0-2.008-.536T.537 11.339.001 9.331t.536-2.008 1.456-1.456 2.008-.536h.344q.411-1.161 1.24-2.065t1.982-1.419 2.435-.516zM8.667 6.667q.276 0 .474.198l2 2q.193.193.193.469 0 .286-.19.477t-.477.19q-.281 0-.474-.193l-.859-.865v4.391q0 .276-.195.471T8.668 14t-.471-.195-.195-.471V8.943l-.859.865q-.193.193-.474.193-.276 0-.471-.195t-.195-.471q0-.266.193-.469l2-2q.198-.198.474-.198z"/></symbol><symbol id="Cloud-download"><path class="path1" d="M10 1.333q1.219 0 2.331.477t1.914 1.279 1.279 1.914.477 2.331q0 1.328-.547 2.51t-1.51 2.018-2.188 1.211l.328-.323q.281-.286.438-.667.146-.354.146-.771 0-.104-.005-.146.927-.646 1.466-1.654t.539-2.18q0-.948-.37-1.813t-.995-1.49-1.49-.995T10 2.664q-.865 0-1.664.31t-1.406.841-1.016 1.271-.529 1.578H4q-1.104 0-1.885.781T1.334 9.33q0 .604.237 1.12t.622.846.857.516.951.185h.781q.182.458.469.75l.589.583H4.001q-1.089 0-2.008-.536T.537 11.338.001 9.33t.536-2.008 1.456-1.456 2.008-.536h.344q.411-1.161 1.24-2.065t1.982-1.419 2.435-.516zM8.667 6.667q.276 0 .471.195t.195.471v4.391l.859-.865q.193-.193.474-.193.286 0 .477.19t.19.477q0 .281-.193.474l-2 2Q8.947 14 8.666 14t-.474-.193l-2-2q-.193-.203-.193-.474 0-.276.195-.471t.471-.195q.281 0 .474.193l.859.865V7.334q0-.276.195-.471t.471-.195z"/></symbol><symbol id="Upload"><path class="path1" d="M3.333 0h9.333q.828 0 1.414.586T14.666 2v9.333q0 .828-.586 1.414t-1.414.586H9.999V12h2.667q.276 0 .471-.195t.195-.471V2.001q0-.276-.195-.471t-.471-.195H3.333q-.276 0-.471.195t-.195.471v9.333q0 .276.195.471t.471.195H6v1.333H3.333q-.828 0-1.414-.586t-.586-1.414V2q0-.828.586-1.414T3.333 0zM8 4.667q.281 0 .474.193l2.667 2.667q.193.193.193.474 0 .276-.195.471t-.471.195q-.271 0-.474-.193L8.668 6.943v8.391q0 .276-.195.471T8.002 16t-.471-.195-.195-.471V6.943L5.81 8.474q-.203.193-.474.193-.276 0-.471-.195t-.195-.471q0-.271.193-.474L7.53 4.86q.193-.193.474-.193z"/></symbol><symbol id="Download"><path class="path1" d="M10 2.667h2.667q.828 0 1.414.586t.586 1.414V14q0 .828-.586 1.414T12.667 16H3.334q-.828 0-1.414-.586T1.334 14V4.667q0-.828.586-1.414t1.414-.586h2.667V4H3.334q-.276 0-.471.195t-.195.471v9.333q0 .276.195.471t.471.195h9.333q.276 0 .471-.195t.195-.471V4.666q0-.276-.195-.471T12.667 4H10V2.667zM8 0q.276 0 .471.195t.195.471v8.391l1.526-1.531q.193-.193.474-.193.286 0 .477.19t.19.477q0 .281-.193.474l-2.667 2.667q-.193.193-.474.193t-.474-.193L4.858 8.474Q4.665 8.271 4.665 8q0-.276.195-.471t.471-.195q.281 0 .474.193l1.526 1.531V.667q0-.276.195-.471t.471-.195z"/></symbol><symbol id="Location"><path class="path1" d="M0 7.333L16 0 8.667 16l-2-6.667zm8.927 4.896l4.365-9.521-9.521 4.365L7.74 8.261z"/></symbol><symbol id="Location-2"><path class="path1" d="M8 .667q1.495 0 2.852.581t2.339 1.563 1.563 2.339.581 2.852-.581 2.852-1.563 2.339-2.339 1.563T8 15.337t-2.852-.581-2.339-1.563-1.563-2.339-.581-2.852.581-2.852 1.563-2.339 2.339-1.563T8 .667zm.667 1.369V4q0 .276-.195.471t-.471.195-.471-.195T7.335 4V2.036q-1.031.115-1.956.568T3.757 3.755 2.606 5.377t-.568 1.956h1.964q.276 0 .471.195t.195.471-.195.471-.471.195H2.038q.115 1.031.568 1.956t1.151 1.622 1.622 1.151 1.956.568v-1.964q0-.276.195-.471t.471-.195.471.195.195.471v1.964q1.031-.115 1.956-.568t1.622-1.151 1.151-1.622.568-1.956H12q-.276 0-.471-.195t-.195-.471.195-.471.471-.195h1.964q-.115-1.031-.568-1.956t-1.151-1.622-1.622-1.151-1.956-.568z"/></symbol><symbol id="Map"><path class="path1" d="M10.667 3.333L16 0v12.667L10.667 16l-5.333-3.333L.001 16V3.333L5.334 0zm-6 8.177V1.994L1.334 4.077v9.516zM10 4.49L6 1.985v9.526l4 2.5V4.49zm4.667 7.437V2.406l-3.333 2.083v9.521z"/></symbol><symbol id="Battery"><path class="path1" d="M2 3.333h10q.828 0 1.414.586T14 5.333q.828 0 1.414.586T16 7.333v1.333q0 .828-.586 1.414T14 10.666q0 .828-.586 1.414T12 12.666H2q-.828 0-1.414-.586T0 10.666V5.333q0-.828.586-1.414T2 3.333zm10 1.334H2q-.276 0-.471.195t-.195.471v5.333q0 .276.195.471t.471.195h10q.276 0 .471-.195t.195-.471V5.333q0-.276-.195-.471T12 4.667zm2 2v2.667q.276 0 .471-.195t.195-.471V7.335q0-.276-.195-.471T14 6.669z"/></symbol><symbol id="Head"><path class="path1" d="M8 0q1.089 0 2.008.536t1.456 1.456T12 4v2q0 .833-.323 1.578t-.901 1.297q1.521.24 2.703.706t1.852 1.102.669 1.339v1.313q0 .828-.586 1.414T14 15.335H2q-.828 0-1.414-.586T0 13.335v-1.318q0-.703.669-1.339t1.849-1.102 2.701-.701q-.573-.557-.896-1.299T4 6V4q0-1.089.536-2.008T5.992.536 8 0zm0 10q-1.448 0-2.794.232t-2.346.648q-.401.167-.716.354t-.479.339-.247.263-.083.18v1.318q0 .276.195.471t.471.195h12q.276 0 .471-.195t.195-.471v-1.313q0-.068-.083-.18t-.247-.263-.479-.339-.716-.359q-1-.417-2.346-.648T8.002 10zm0-8.667q-1.104 0-1.885.781t-.781 1.885v2q0 1.104.781 1.885T8 8.665t1.885-.781.781-1.885v-2q0-1.104-.781-1.885T8 1.333z"/></symbol><symbol id="Briefcase"><path class="path1" d="M6.667 1.333h2.667q.828 0 1.414.586t.586 1.414V4h2q.828 0 1.414.586T15.334 6v6.667q0 .828-.586 1.414t-1.414.586H2.667q-.828 0-1.414-.586t-.586-1.414V6q0-.828.586-1.414T2.667 4h2v-.667q0-.828.586-1.414t1.414-.586zm-3.334 12v-8h-.667q-.276 0-.471.195T2 5.999v6.667q0 .276.195.471t.471.195h.667zm8 0v-8H4.666v8h6.667zm2-8h-.667v8h.667q.276 0 .471-.195t.195-.471V6q0-.276-.195-.471t-.471-.195zm-4-2.666H6.666q-.276 0-.471.195T6 3.333V4h4v-.667q0-.276-.195-.471t-.471-.195z"/></symbol><symbol id="Speech-bubble"><path class="path1" d="M2.667.667h10.667q.828 0 1.414.586t.586 1.414V10q0 .828-.586 1.414T13.334 12H8.001l-4.667 3.333V12h-.667q-.828 0-1.414-.586T.667 10V2.667q0-.828.586-1.414T2.667.667zM13.333 2H2.666q-.276 0-.471.195T2 2.666v7.333q0 .276.195.471t.471.195h2v2.078l2.906-2.078h5.76q.276 0 .471-.195t.195-.471V2.666q0-.276-.195-.471T13.332 2z"/></symbol><symbol id="Anchor"><path class="path1" d="M8 .667q1.104 0 1.885.781t.781 1.885q0 .922-.563 1.638t-1.438.94v8.052q1.109-.125 2.096-.643t1.698-1.305 1.125-1.833T13.998 8q0-.276.195-.471t.471-.195.471.195.195.471q0 1.495-.581 2.852t-1.563 2.339-2.339 1.563-2.852.581-2.852-.581-2.339-1.563-1.563-2.339T.66 8q0-.276.195-.471t.471-.195.471.195.195.471q0 1.135.414 2.182t1.125 1.833 1.698 1.305 2.096.643V5.911q-.875-.224-1.438-.94t-.563-1.638q0-1.104.781-1.885T7.99.667zM8 2q-.552 0-.943.391t-.391.943.391.943.943.391.943-.391.391-.943-.391-.943T8 2z"/></symbol><symbol id="Globe"><path class="path1" d="M8 .667q.188 0 .281.005.969.036 1.883.32t1.69.763 1.424 1.154 1.099 1.466.703 1.721T15.333 8t-.253 1.904-.703 1.721-1.099 1.466-1.424 1.154-1.69.763-1.883.32q-.094.005-.281.005t-.281-.005q-.969-.036-1.883-.32t-1.69-.763-1.424-1.154-1.099-1.466T.92 9.904.667 8 .92 6.096t.703-1.721 1.099-1.466 1.424-1.154 1.69-.763 1.883-.32Q7.813.667 8 .667zm-3.307 8H2.037q.208 1.859 1.432 3.266t3.01 1.875q-.677-1.026-1.18-2.326t-.607-2.815zm5.281 0H6.026q.052.667.216 1.333t.367 1.18.469 1.013.479.823.443.62q.229-.297.443-.622t.479-.826.469-1.013.367-1.177.216-1.331zM6.479 2.193q-1.786.469-3.01 1.875T2.037 7.334h2.656q.182-2.719 1.786-5.141zm7.485 6.474h-2.651q-.193 2.724-1.792 5.141 1.786-.469 3.01-1.875t1.432-3.266zM8 2.365q-.229.297-.44.622t-.479.826-.471 1.013-.367 1.177-.216 1.331h3.948q-.052-.667-.216-1.333t-.367-1.18-.469-1.013-.479-.823-.443-.62zm1.521-.172q1.599 2.417 1.792 5.141h2.651q-.208-1.859-1.432-3.266t-3.01-1.875z"/></symbol><symbol id="Box"><path class="path1" d="M.667 3.333L8 0l7.333 3.333v9.333L8 15.999.667 12.666V3.333zm6.666 3.761L2 4.672v7.135l5.333 2.427V7.093zM14 11.807V4.672L8.667 7.094v7.141zm-1.083-8.109L8 1.464 3.083 3.698 8 5.932z"/></symbol><symbol id="Reload"><path class="path1" d="M7.333 1.333q1.297 0 2.51.49 1.245.505 2.203 1.464l1.953 1.911V2.667q0-.276.195-.471t.471-.195.471.195.195.471v4q0 .276-.195.471t-.471.195h-4q-.276 0-.471-.195t-.195-.471.195-.471.471-.195h2.25q-1.448-1.406-1.813-1.771-.776-.776-1.766-1.172-.953-.391-2.005-.391t-2.005.391q-.995.396-1.766 1.172-.771.771-1.172 1.766-.391.953-.391 2.005t.391 2.005q.401.995 1.172 1.766.771.776 1.766 1.172.953.391 2.005.391t2.005-.391q.99-.396 1.766-1.172.865-.865 1.26-1.995.089-.26.339-.378t.51-.029q.26.094.38.344t.026.51q-.24.682-.648 1.333t-.924 1.156q-.958.958-2.203 1.464-1.214.49-2.51.49t-2.51-.49q-1.245-.505-2.203-1.464T1.155 10.51Q.665 9.296.665 8t.49-2.51q.505-1.245 1.464-2.203t2.203-1.464q1.214-.49 2.51-.49z"/></symbol><symbol id="Share"><path class="path1" d="M12 1.333q1.104 0 1.885.781t.781 1.885-.781 1.885T12 6.665q-.589 0-1.112-.242t-.898-.674L6.61 7.442q.057.276.057.557t-.057.557l3.38 1.693q.375-.432.898-.674T12 9.333q1.104 0 1.885.781t.781 1.885-.781 1.885-1.885.781-1.885-.781-.781-1.885q0-.281.057-.557l-3.38-1.693q-.375.432-.898.674t-1.112.242q-1.104 0-1.885-.781t-.781-1.885.781-1.885 1.885-.781q.589 0 1.112.242t.898.674l3.38-1.693q-.057-.276-.057-.557 0-1.104.781-1.885T12 1.333zM4 6.667q-.552 0-.943.391t-.391.943.391.943.943.391.943-.391.391-.943-.391-.943T4 6.667zm8 4q-.552 0-.943.391t-.391.943.391.943.943.391.943-.391.391-.943-.391-.943-.943-.391zm0-8q-.552 0-.943.391t-.391.943.391.943.943.391.943-.391.391-.943-.391-.943T12 2.667z"/></symbol><symbol id="Marquee"><path class="path1" d="M12 .667h1.333q.828 0 1.414.586t.586 1.414V4q0 .276-.195.471t-.471.195-.471-.195T14.001 4V2.667q0-.276-.195-.471t-.471-.195h-1.333q-.276 0-.471-.195t-.195-.471.195-.471.471-.195zM1.333 11.333q.276 0 .471.195t.195.471v1.333q0 .276.195.471t.471.195h1.333q.276 0 .471.195t.195.471-.195.471-.471.195H2.665q-.828 0-1.414-.586T.665 13.33v-1.333q0-.276.195-.471t.471-.195zm0-5.333q.276 0 .471.195t.195.471v2.667q0 .276-.195.471t-.471.195-.471-.195-.195-.471V6.666q0-.276.195-.471T1.333 6zm5.334 8h2.667q.276 0 .471.195t.195.471-.195.471-.471.195H6.667q-.276 0-.471-.195t-.195-.471.195-.471.471-.195zm-4-13.333H4q.276 0 .471.195t.195.471-.195.471T4 1.999H2.667q-.276 0-.471.195t-.195.471v1.333q0 .276-.195.471t-.471.195-.471-.195-.195-.471V2.665q0-.828.586-1.414T2.669.665zm12 10.666q.276 0 .471.195t.195.471v1.333q0 .828-.586 1.414t-1.414.586H12q-.276 0-.471-.195t-.195-.471.195-.471T12 14h1.333q.276 0 .471-.195t.195-.471v-1.333q0-.276.195-.471t.471-.195zm0-5.333q.276 0 .471.195t.195.471v2.667q0 .276-.195.471t-.471.195-.471-.195-.195-.471V6.666q0-.276.195-.471T14.667 6zm-8-5.333h2.667q.276 0 .471.195t.195.471-.195.471-.471.195H6.667q-.276 0-.471-.195t-.195-.471.195-.471.471-.195z"/></symbol><symbol id="Marquee-plus"><path class="path1" d="M8 4.667q.276 0 .471.195t.195.471v2h2q.276 0 .471.195t.195.471-.195.471-.471.195h-2v2q0 .276-.195.471T8 11.331t-.471-.195-.195-.471v-2h-2q-.276 0-.471-.195t-.195-.471.195-.471.471-.195h2v-2q0-.276.195-.471T8 4.667zm-6.667 6.666q.276 0 .471.195t.195.471v1.333q0 .276.195.471t.471.195h1.333q.276 0 .471.195t.195.471-.195.471-.471.195H2.665q-.828 0-1.414-.586T.665 13.33v-1.333q0-.276.195-.471t.471-.195zm0-5.333q.276 0 .471.195t.195.471v2.667q0 .276-.195.471t-.471.195-.471-.195-.195-.471V6.666q0-.276.195-.471T1.333 6zm5.334 8h2.667q.276 0 .471.195t.195.471-.195.471-.471.195H6.667q-.276 0-.471-.195t-.195-.471.195-.471.471-.195zm-4-13.333H4q.276 0 .471.195t.195.471-.195.471T4 1.999H2.667q-.276 0-.471.195t-.195.471v1.333q0 .276-.195.471t-.471.195-.471-.195-.195-.471V2.665q0-.828.586-1.414T2.669.665zm12 10.666q.276 0 .471.195t.195.471v1.333q0 .828-.586 1.414t-1.414.586H12q-.276 0-.471-.195t-.195-.471.195-.471T12 14h1.333q.276 0 .471-.195t.195-.471v-1.333q0-.276.195-.471t.471-.195zm0-5.333q.276 0 .471.195t.195.471v2.667q0 .276-.195.471t-.471.195-.471-.195-.195-.471V6.666q0-.276.195-.471T14.667 6zm-8-5.333h2.667q.276 0 .471.195t.195.471-.195.471-.471.195H6.667q-.276 0-.471-.195t-.195-.471.195-.471.471-.195zm5.333 0h1.333q.828 0 1.414.586t.586 1.414V4q0 .276-.195.471t-.471.195-.471-.195T14.001 4V2.667q0-.276-.195-.471t-.471-.195h-1.333q-.276 0-.471-.195t-.195-.471.195-.471.471-.195z"/></symbol><symbol id="Marquee-minus"><path class="path1" d="M12 .667h1.333q.828 0 1.414.586t.586 1.414V4q0 .276-.195.471t-.471.195-.471-.195T14.001 4V2.667q0-.276-.195-.471t-.471-.195h-1.333q-.276 0-.471-.195t-.195-.471.195-.471.471-.195zM1.333 11.333q.276 0 .471.195t.195.471v1.333q0 .276.195.471t.471.195h1.333q.276 0 .471.195t.195.471-.195.471-.471.195H2.665q-.828 0-1.414-.586T.665 13.33v-1.333q0-.276.195-.471t.471-.195zm0-5.333q.276 0 .471.195t.195.471v2.667q0 .276-.195.471t-.471.195-.471-.195-.195-.471V6.666q0-.276.195-.471T1.333 6zm5.334 8h2.667q.276 0 .471.195t.195.471-.195.471-.471.195H6.667q-.276 0-.471-.195t-.195-.471.195-.471.471-.195zm-4-13.333H4q.276 0 .471.195t.195.471-.195.471T4 1.999H2.667q-.276 0-.471.195t-.195.471v1.333q0 .276-.195.471t-.471.195-.471-.195-.195-.471V2.665q0-.828.586-1.414T2.669.665zm12 10.666q.276 0 .471.195t.195.471v1.333q0 .828-.586 1.414t-1.414.586H12q-.276 0-.471-.195t-.195-.471.195-.471T12 14h1.333q.276 0 .471-.195t.195-.471v-1.333q0-.276.195-.471t.471-.195zm-9.334-4h5.333q.276 0 .471.195t.195.471-.195.471-.471.195H5.333q-.276 0-.471-.195t-.195-.471.195-.471.471-.195zM14.667 6q.276 0 .471.195t.195.471v2.667q0 .276-.195.471t-.471.195-.471-.195-.195-.471V6.666q0-.276.195-.471T14.667 6zm-8-5.333h2.667q.276 0 .471.195t.195.471-.195.471-.471.195H6.667q-.276 0-.471-.195t-.195-.471.195-.471.471-.195z"/></symbol><symbol id="Tag"><path class="path1" d="M.667.667h7.542l6.542 6.536q.583.583.583 1.411 0 .833-.583 1.417l-4.719 4.719q-.583.583-1.411.583-.833 0-1.417-.583L.668 8.208V.666zm13.14 7.479L7.656 2H2v5.656l6.146 6.151q.198.193.474.193t.469-.193l4.719-4.719q.193-.193.193-.469t-.193-.474zM5.667 4q.693 0 1.18.487t.487 1.18-.487 1.18-1.18.487-1.18-.487T4 5.667t.487-1.18T5.667 4zm0 1.333q-.135 0-.234.099t-.099.234.099.234.234.099.234-.099T6 5.666t-.099-.234-.234-.099z"/></symbol><symbol id="Power"><path class="path1" d="M12.714 3.953q.922.922 1.427 2.12.526 1.24.526 2.594t-.526 2.594q-.505 1.198-1.427 2.12t-2.12 1.427q-1.24.526-2.594.526t-2.594-.526q-1.198-.505-2.12-1.427t-1.427-2.12q-.526-1.24-.526-2.594t.526-2.594q.505-1.198 1.427-2.12.193-.193.469-.193t.474.193.198.469-.198.474q-.734.734-1.146 1.693-.417 1-.417 2.078t.417 2.078q.411.958 1.146 1.693t1.693 1.146q1 .417 2.078.417t2.078-.417q.958-.411 1.693-1.146t1.146-1.693q.417-1 .417-2.078t-.417-2.078q-.411-.958-1.146-1.693-.198-.198-.198-.474t.198-.469.474-.193.469.193zM8 .667q.276 0 .471.195t.195.471V8q0 .276-.195.471T8 8.666t-.471-.195T7.334 8V1.333q0-.276.195-.471T8 .667z"/></symbol><symbol id="Command"><path class="path1" d="M12 1.333q1.104 0 1.885.781t.781 1.885-.781 1.885T12 6.665h-1.333v2.667H12q1.104 0 1.885.781t.781 1.885-.781 1.885-1.885.781-1.885-.781-.781-1.885v-1.333H6.667v1.333q0 1.104-.781 1.885t-1.885.781-1.885-.781-.781-1.885.781-1.885 1.885-.781h1.333V6.665H4.001q-1.104 0-1.885-.781t-.781-1.885.781-1.885 1.885-.781 1.885.781.781 1.885v1.333h2.667V3.999q0-1.104.781-1.885T12 1.333zM5.333 12v-1.333H4q-.552 0-.943.391t-.391.943.391.943.943.391.943-.391.391-.943zM4 2.667q-.552 0-.943.391t-.391.943.391.943.943.391h1.333V4.002q0-.552-.391-.943t-.943-.391zm5.333 6.666V6.666H6.666v2.667h2.667zM12 10.667h-1.333V12q0 .552.391.943t.943.391.943-.391.391-.943-.391-.943-.943-.391zm0-8q-.552 0-.943.391t-.391.943v1.333h1.333q.552 0 .943-.391T13.333 4t-.391-.943-.943-.391z"/></symbol><symbol id="Alt"><path class="path1" d="M2 2.667h3.333q.38 0 .578.333l5.141 9H14q.276 0 .471.195t.195.471-.195.471-.471.195h-3.333q-.38 0-.578-.333l-5.141-9H2q-.276 0-.471-.195t-.195-.471.195-.471T2 2.667zm7.333 0h3.333q.276 0 .471.195t.195.471-.195.471-.471.195H9.333q-.276 0-.471-.195t-.195-.471.195-.471.471-.195z"/></symbol><symbol id="Esc"><path class="path1" d="M8.734.703q1.349.135 2.56.745t2.128 1.615q.901.99 1.401 2.245.51 1.297.51 2.693 0 1.495-.578 2.854-.536 1.286-1.568 2.333-1.047 1.031-2.333 1.568-1.359.578-2.854.578-1.396 0-2.693-.51-1.255-.5-2.245-1.401-1.005-.917-1.615-2.128t-.745-2.56q-.026-.297.169-.516T1.368 8q.255 0 .445.172t.216.427q.109 1.109.607 2.099t1.326 1.74q.807.745 1.833 1.146 1.063.417 2.203.417 1.224 0 2.333-.469 1.052-.443 1.911-1.286.844-.859 1.286-1.911.469-1.109.469-2.333 0-1.141-.417-2.203-.401-1.026-1.146-1.833-.75-.828-1.74-1.326t-2.099-.607q-.255-.026-.427-.216t-.172-.445q0-.198.076-.339t.201-.208.237-.094.221-.026zM1.333.667h4q.276 0 .471.195t.195.471-.195.471-.471.195H2.942L8.473 7.53q.193.188.193.469 0 .286-.19.477t-.477.19q-.281 0-.474-.193L1.999 2.942v2.391q0 .276-.195.471t-.471.195-.471-.195-.195-.471v-4q0-.276.195-.471t.471-.195z"/></symbol><symbol id="Bar-graph"><path class="path1" d="M13.333.667q.828 0 1.414.586t.586 1.414v10.667q0 .828-.586 1.414t-1.414.586-1.414-.586-.586-1.414V2.667q0-.828.586-1.414t1.414-.586zm-10.666 8q.828 0 1.414.586t.586 1.414v2.667q0 .828-.586 1.414t-1.414.586-1.414-.586-.586-1.414v-2.667q0-.828.586-1.414t1.414-.586zm0 1.333q-.276 0-.471.195t-.195.471v2.667q0 .276.195.471t.471.195.471-.195.195-.471v-2.667q0-.276-.195-.471T2.667 10zM8 4.667q.828 0 1.414.586T10 6.667v6.667q0 .828-.586 1.414T8 15.334t-1.414-.586T6 13.334V6.667q0-.828.586-1.414T8 4.667zM8 6q-.276 0-.471.195t-.195.471v6.667q0 .276.195.471t.471.195.471-.195.195-.471V6.666q0-.276-.195-.471T8 6zm5.333-4q-.276 0-.471.195t-.195.471v10.667q0 .276.195.471t.471.195.471-.195.195-.471V2.666q0-.276-.195-.471T13.333 2z"/></symbol><symbol id="Bar-graph-2"><path class="path1" d="M8 .667q.828 0 1.414.586T10 2.667v10.667q0 .828-.586 1.414T8 15.334t-1.414-.586T6 13.334V2.667q0-.828.586-1.414T8 .667zm-5.333 8q.828 0 1.414.586t.586 1.414v2.667q0 .828-.586 1.414t-1.414.586-1.414-.586-.586-1.414v-2.667q0-.828.586-1.414t1.414-.586zm0 1.333q-.276 0-.471.195t-.195.471v2.667q0 .276.195.471t.471.195.471-.195.195-.471v-2.667q0-.276-.195-.471T2.667 10zM8 2q-.276 0-.471.195t-.195.471v10.667q0 .276.195.471t.471.195.471-.195.195-.471V2.666q0-.276-.195-.471T8 2zm5.333 2.667q.828 0 1.414.586t.586 1.414v6.667q0 .828-.586 1.414t-1.414.586-1.414-.586-.586-1.414V6.667q0-.828.586-1.414t1.414-.586zm0 1.333q-.276 0-.471.195t-.195.471v6.667q0 .276.195.471t.471.195.471-.195.195-.471V6.666q0-.276-.195-.471T13.333 6z"/></symbol><symbol id="Pie-graph"><path class="path1" d="M8 .667q1.495 0 2.852.581t2.339 1.563 1.563 2.339.581 2.852-.581 2.852-1.563 2.339-2.339 1.563T8 15.337t-2.852-.581-2.339-1.563-1.563-2.339-.581-2.852.581-2.852 1.563-2.339 2.339-1.563T8 .667zm-.667 8v-6.63q-1.109.125-2.096.643T3.539 3.985 2.414 5.818 2 8q0 1.219.477 2.331t1.279 1.914 1.914 1.279 2.331.477q1.135 0 2.182-.414t1.833-1.125 1.305-1.698.643-2.096h-6.63zm1.334-6.631v5.297h5.297q-.115-1.031-.568-1.956t-1.151-1.622-1.622-1.151-1.956-.568z"/></symbol><symbol id="Star"><path class="path1" d="M6.198 6L8 .453 9.802 6h5.833l-4.719 3.276 1.802 5.448-4.719-3.453-4.719 3.427 1.802-5.422L.363 6h5.833zm2.635 1.333L8 4.682l-.833 2.651H4.578l2.083 1.38-.818 2.464 2.161-1.563 2.151 1.578-.818-2.464 2.078-1.396H8.832z"/></symbol><symbol id="Arrow-leftwards"><path class="path1" d="M6.667 2.667q.276 0 .471.195t.195.471q0 .281-.198.474L3.609 7.333H14q.276 0 .471.195t.195.471-.195.471-.471.195H3.609l3.526 3.526q.198.193.198.474 0 .276-.195.471t-.471.195q-.281 0-.474-.193L1.526 8.471q-.193-.203-.193-.474t.193-.474l4.667-4.667q.198-.193.474-.193z"/></symbol><symbol id="Arrow-rightwards"><path class="path1" d="M9.333 2.667q.281 0 .474.193l4.667 4.667q.193.193.193.474t-.193.474l-4.667 4.667q-.193.193-.474.193-.286 0-.477-.19t-.19-.477q0-.281.193-.474l3.531-3.526H1.999q-.276 0-.471-.195t-.195-.471.195-.471.471-.195H12.39L8.859 3.81q-.193-.193-.193-.474 0-.286.19-.477t.477-.19z"/></symbol><symbol id="Arrow-upwards"><path class="path1" d="M8 1.333q.281 0 .474.193l4.667 4.667q.193.193.193.474 0 .286-.19.477t-.477.19q-.281 0-.474-.193L8.667 3.61v10.391q0 .276-.195.471t-.471.195-.471-.195-.195-.471V3.61L3.809 7.141q-.193.193-.474.193-.286 0-.477-.19t-.19-.477q0-.281.193-.474l4.667-4.667q.193-.193.474-.193z"/></symbol><symbol id="Arrow-downwards"><path class="path1" d="M8 1.333q.276 0 .471.195t.195.471V12.39l3.526-3.531q.193-.193.474-.193.286 0 .477.19t.19.477q0 .281-.193.474l-4.667 4.667q-.193.193-.474.193t-.474-.193L2.858 9.807q-.193-.193-.193-.474 0-.286.19-.477t.477-.19q.281 0 .474.193l3.526 3.531V1.999q0-.276.195-.471t.471-.195z"/></symbol><symbol id="Volume"><path class="path1" d="M3.333 5.333L6.666 2v12l-3.333-3.333H2q-.828 0-1.414-.586T0 8.667V7.36q0-.828.586-1.427T2 5.334h1.333zm2 5.448V5.192L3.885 6.666H2q-.271 0-.469.206t-.198.487v1.307q0 .276.195.471t.471.195h1.885zm4.355-5.005q.193 0 .362.109t.253.297q.365.88.365 1.818 0 .953-.365 1.807-.078.188-.247.299t-.367.112q-.245 0-.456-.185t-.211-.482q0-.12.052-.26.26-.615.26-1.292 0-.672-.26-1.297-.052-.12-.052-.26 0-.297.201-.482t.466-.185zm2.036-1.859q.375 0 .573.328.516.859.766 1.776.271.979.271 1.979 0 .995-.271 1.984-.255.927-.766 1.776-.193.323-.573.323-.26 0-.464-.188t-.203-.479q0-.182.099-.344.406-.677.62-1.448Q12 8.843 12 7.999q0-.839-.224-1.62-.214-.771-.62-1.453-.099-.151-.099-.339 0-.281.206-.477t.461-.195zm1.995-1.828q.359 0 .552.292.849 1.245 1.289 2.677T16 8.001t-.44 2.943-1.289 2.677q-.188.292-.552.292-.271 0-.466-.188t-.195-.479q0-.208.115-.375 1.495-2.193 1.495-4.87 0-1.313-.38-2.552t-1.115-2.318q-.115-.167-.115-.375 0-.292.195-.479t.466-.188z"/></symbol><symbol id="Mute"><path class="path1" d="M4 5.333L7.333 2v12L4 10.667H2.667q-.828 0-1.414-.586T.667 8.667V7.36q0-.828.586-1.427t1.414-.599H4zm2 5.448V5.192L4.552 6.666H2.667q-.271 0-.469.206T2 7.359v1.307q0 .276.195.471t.471.195h1.885zm8-5.448q.286 0 .477.19t.19.477q0 .281-.193.474L12.943 8l1.531 1.526q.193.193.193.474 0 .286-.19.477t-.477.19q-.281 0-.474-.193L12 8.943l-1.526 1.531q-.193.193-.474.193-.286 0-.477-.19T9.333 10q0-.281.193-.474L11.057 8 9.526 6.474Q9.333 6.281 9.333 6q0-.286.19-.477t.477-.19q.281 0 .474.193L12 7.057l1.526-1.531q.193-.193.474-.193z"/></symbol><symbol id="Content-right"><path class="path1" d="M10.667.667h2.667q.828 0 1.414.586t.586 1.414v10.667q0 .828-.586 1.414t-1.414.586h-2.667q-.828 0-1.414-.586t-.586-1.414V2.667q0-.828.586-1.414t1.414-.586zm-8 8h2.667q.828 0 1.414.586t.586 1.414v2.667q0 .828-.586 1.414t-1.414.586H2.667q-.828 0-1.414-.586t-.586-1.414v-2.667q0-.828.586-1.414t1.414-.586zM5.333 10H2.666q-.276 0-.471.195T2 10.666v2.667q0 .276.195.471t.471.195h2.667q.276 0 .471-.195t.195-.471v-2.667q0-.276-.195-.471T5.333 10zM2.667.667h2.667q.828 0 1.414.586t.586 1.414v2.667q0 .828-.586 1.414t-1.414.586H2.667q-.828 0-1.414-.586T.667 5.334V2.667q0-.828.586-1.414T2.667.667zM5.333 2H2.666q-.276 0-.471.195T2 2.666v2.667q0 .276.195.471t.471.195h2.667q.276 0 .471-.195t.195-.471V2.666q0-.276-.195-.471T5.333 2zm8 0h-2.667q-.276 0-.471.195T10 2.666v10.667q0 .276.195.471t.471.195h2.667q.276 0 .471-.195t.195-.471V2.666q0-.276-.195-.471T13.333 2z"/></symbol><symbol id="Content-left"><path class="path1" d="M2.667.667h2.667q.828 0 1.414.586t.586 1.414v10.667q0 .828-.586 1.414t-1.414.586H2.667q-.828 0-1.414-.586t-.586-1.414V2.667q0-.828.586-1.414T2.667.667zM5.333 2H2.666q-.276 0-.471.195T2 2.666v10.667q0 .276.195.471t.471.195h2.667q.276 0 .471-.195t.195-.471V2.666q0-.276-.195-.471T5.333 2zm5.334 6.667h2.667q.828 0 1.414.586t.586 1.414v2.667q0 .828-.586 1.414t-1.414.586h-2.667q-.828 0-1.414-.586t-.586-1.414v-2.667q0-.828.586-1.414t1.414-.586zM13.333 10h-2.667q-.276 0-.471.195t-.195.471v2.667q0 .276.195.471t.471.195h2.667q.276 0 .471-.195t.195-.471v-2.667q0-.276-.195-.471T13.333 10zM10.667.667h2.667q.828 0 1.414.586t.586 1.414v2.667q0 .828-.586 1.414t-1.414.586h-2.667q-.828 0-1.414-.586t-.586-1.414V2.667q0-.828.586-1.414t1.414-.586zM13.333 2h-2.667q-.276 0-.471.195T10 2.666v2.667q0 .276.195.471t.471.195h2.667q.276 0 .471-.195t.195-.471V2.666q0-.276-.195-.471T13.333 2z"/></symbol><symbol id="Grid"><path class="path1" d="M10.667.667h2.667q.828 0 1.414.586t.586 1.414v2.667q0 .828-.586 1.414t-1.414.586h-2.667q-.828 0-1.414-.586t-.586-1.414V2.667q0-.828.586-1.414t1.414-.586zm-8 8h2.667q.828 0 1.414.586t.586 1.414v2.667q0 .828-.586 1.414t-1.414.586H2.667q-.828 0-1.414-.586t-.586-1.414v-2.667q0-.828.586-1.414t1.414-.586zM5.333 10H2.666q-.276 0-.471.195T2 10.666v2.667q0 .276.195.471t.471.195h2.667q.276 0 .471-.195t.195-.471v-2.667q0-.276-.195-.471T5.333 10zM2.667.667h2.667q.828 0 1.414.586t.586 1.414v2.667q0 .828-.586 1.414t-1.414.586H2.667q-.828 0-1.414-.586T.667 5.334V2.667q0-.828.586-1.414T2.667.667zM5.333 2H2.666q-.276 0-.471.195T2 2.666v2.667q0 .276.195.471t.471.195h2.667q.276 0 .471-.195t.195-.471V2.666q0-.276-.195-.471T5.333 2zm5.334 6.667h2.667q.828 0 1.414.586t.586 1.414v2.667q0 .828-.586 1.414t-1.414.586h-2.667q-.828 0-1.414-.586t-.586-1.414v-2.667q0-.828.586-1.414t1.414-.586zM13.333 10h-2.667q-.276 0-.471.195t-.195.471v2.667q0 .276.195.471t.471.195h2.667q.276 0 .471-.195t.195-.471v-2.667q0-.276-.195-.471T13.333 10zm0-8h-2.667q-.276 0-.471.195T10 2.666v2.667q0 .276.195.471t.471.195h2.667q.276 0 .471-.195t.195-.471V2.666q0-.276-.195-.471T13.333 2z"/></symbol><symbol id="Grid-2"><path class="path1" d="M2.667.667h10.667q.828 0 1.414.586t.586 1.414v10.667q0 .828-.586 1.414t-1.414.586H2.667q-.828 0-1.414-.586t-.586-1.414V2.667q0-.828.586-1.414T2.667.667zM7.333 14V8.667H2v4.667q0 .276.195.471t.471.195h4.667zm0-6.667V2H2.666q-.276 0-.471.195T2 2.666v4.667h5.333zm6.667 6V8.666H8.667v5.333h4.667q.276 0 .471-.195t.195-.471zM13.333 2H8.666v5.333h5.333V2.666q0-.276-.195-.471T13.333 2z"/></symbol><symbol id="Columns"><path class="path1" d="M2 2h12q.828 0 1.414.586T16 4v8q0 .828-.586 1.414T14 14H2q-.828 0-1.414-.586T0 12V4q0-.828.586-1.414T2 2zm2.667 10.667V3.334H2q-.276 0-.471.195T1.334 4v8q0 .276.195.471t.471.195h2.667zm5.333 0V3.334H6v9.333h4zm4-9.334h-2.667v9.333H14q.276 0 .471-.195t.195-.471V4q0-.276-.195-.471T14 3.334z"/></symbol><symbol id="Loader"><path class="path1" d="M10.833 10.161q.271 0 .469.198l1.885 1.885q.198.198.198.474 0 .271-.198.469t-.469.198q-.276 0-.474-.198l-1.885-1.885q-.193-.193-.193-.474 0-.276.195-.471t.471-.195zm-5.661 0q.276 0 .471.195t.195.471-.198.474l-1.885 1.885q-.198.198-.469.198-.276 0-.471-.195t-.195-.471q0-.281.193-.474l1.885-1.885q.198-.198.474-.198zM1.333 7.333H4q.276 0 .471.195t.195.471-.195.471T4 8.665H1.333q-.276 0-.471-.195t-.195-.471.195-.471.471-.195zm6.667 4q.276 0 .471.195t.195.471v2.667q0 .276-.195.471T8 15.332t-.471-.195-.195-.471v-2.667q0-.276.195-.471T8 11.333zM3.286 2.615q.271 0 .469.198L5.64 4.698q.198.198.198.469 0 .276-.195.471t-.471.195q-.281 0-.474-.193L2.813 3.755q-.193-.193-.193-.474 0-.276.195-.471t.471-.195zM12 7.333h2.667q.276 0 .471.195t.195.471-.195.471-.471.195H12q-.276 0-.471-.195t-.195-.471.195-.471.471-.195zM8 .667q.276 0 .471.195t.195.471V4q0 .276-.195.471T8 4.666t-.471-.195T7.334 4V1.333q0-.276.195-.471T8 .667zm4.719 1.948q.271 0 .469.198t.198.469q0 .276-.198.474l-1.885 1.885q-.193.193-.469.193-.286 0-.477-.19t-.19-.477q0-.276.193-.469l1.885-1.885q.198-.198.474-.198z"/></symbol><symbol id="Bag"><path class="path1" d="M8 0q.677 0 1.294.266t1.063.711.711 1.063.266 1.294v.667h2.667v10q0 .828-.586 1.414t-1.414.586h-8q-.828 0-1.414-.586t-.586-1.414v-10h2.667v-.667q0-.677.266-1.294T5.645.977 6.708.266 8.002 0zm4.667 14V5.333H3.334V14q0 .276.195.471t.471.195h8q.276 0 .471-.195t.195-.471zM8 1.333q-.828 0-1.414.586T6 3.333V4h4v-.667q0-.828-.586-1.414T8 1.333z"/></symbol><symbol id="Ban"><path class="path1" d="M8 .667q1.495 0 2.852.581t2.339 1.563 1.563 2.339.581 2.852-.581 2.852-1.563 2.339-2.339 1.563T8 15.337t-2.852-.581-2.339-1.563-1.563-2.339-.581-2.852.581-2.852 1.563-2.339 2.339-1.563T8 .667zm3.745 12.021L3.313 4.256q-.625.786-.969 1.745t-.344 2q0 1.219.477 2.331t1.279 1.914 1.914 1.279 2.331.477q1.047 0 2.005-.341t1.74-.971zM8 2q-1.047 0-2.005.341t-1.74.971l8.432 8.432q.63-.781.971-1.74t.341-2.005q0-1.219-.477-2.331t-1.279-1.914-1.914-1.279-2.331-.477z"/></symbol><symbol id="Flag"><path class="path1" d="M4.667.667q.552 0 1.188.138t1.224.333l1.177.391 1.224.333L10.668 2q.563 0 1.109-.068t.932-.167.69-.198.456-.167l.146-.068v9.333q-.052.026-.156.07t-.44.161-.701.203-.919.159-1.117.073q-.552 0-1.188-.138t-1.224-.333l-1.177-.391-1.224-.333-1.188-.138q-.995 0-2 .224v4.443q0 .276-.195.471t-.471.195-.471-.195-.195-.471V1.332q.052-.026.156-.07t.44-.161.701-.203.919-.159T4.668.666zm0 1.333q-1.021 0-2 .266v6.599q1-.198 2-.198.74 0 1.479.169t1.682.482l.451.154q.331.112.484.161t.451.135.497.125.461.073.495.034q1.021 0 2-.266V3.135q-1 .198-2 .198-.74 0-1.479-.169t-1.682-.482l-.451-.154q-.331-.112-.484-.161t-.451-.135-.497-.125-.461-.073T4.667 2z"/></symbol><symbol id="Trash"><path class="path1" d="M6.667.667h2.667q.828 0 1.414.586t.586 1.414v.667h2.667q.276 0 .471.195t.195.471-.195.471-.471.195h-.667v8q0 .828-.586 1.414t-1.414.586H4.667q-.828 0-1.414-.586t-.586-1.414v-8H2q-.276 0-.471-.195T1.334 4t.195-.471T2 3.334h2.667v-.667q0-.828.586-1.414T6.667.667zm5.333 12v-8H4v8q0 .276.195.471t.471.195h6.667q.276 0 .471-.195t.195-.471zM9.333 2H6.666q-.276 0-.471.195T6 2.666v.667h4v-.667q0-.276-.195-.471T9.334 2z"/></symbol><symbol id="Expand"><path class="path1" d="M11.333.667h2q.828 0 1.414.586t.586 1.414v2q0 .276-.195.471t-.471.195-.471-.195-.195-.471v-2q0-.276-.195-.471t-.471-.195h-2q-.276 0-.471-.195t-.195-.471.195-.471.471-.195zm-10 10q.276 0 .471.195t.195.471v2q0 .276.195.471t.471.195h2q.276 0 .471.195t.195.471-.195.471-.471.195h-2q-.828 0-1.414-.586t-.586-1.414v-2q0-.276.195-.471t.471-.195zm1.334-10h2q.276 0 .471.195t.195.471-.195.471-.471.195h-2q-.276 0-.471.195t-.195.471v2q0 .276-.195.471t-.471.195-.471-.195-.195-.471v-2q0-.828.586-1.414T2.669.665zm12 10q.276 0 .471.195t.195.471v2q0 .828-.586 1.414t-1.414.586h-2q-.276 0-.471-.195t-.195-.471.195-.471.471-.195h2q.276 0 .471-.195t.195-.471v-2q0-.276.195-.471t.471-.195z"/></symbol><symbol id="Contract"><path class="path1" d="M11.333.667q.276 0 .471.195t.195.471v2q0 .276.195.471t.471.195h2q.276 0 .471.195t.195.471-.195.471-.471.195h-2q-.828 0-1.414-.586t-.586-1.414v-2q0-.276.195-.471t.471-.195zm-10 10h2q.828 0 1.414.586t.586 1.414v2q0 .276-.195.471t-.471.195-.471-.195-.195-.471v-2q0-.276-.195-.471t-.471-.195h-2q-.276 0-.471-.195t-.195-.471.195-.471.471-.195zm3.334-10q.276 0 .471.195t.195.471v2q0 .828-.586 1.414t-1.414.586h-2q-.276 0-.471-.195t-.195-.471.195-.471.471-.195h2q.276 0 .471-.195t.195-.471v-2q0-.276.195-.471t.471-.195zm8 10h2q.276 0 .471.195t.195.471-.195.471-.471.195h-2q-.276 0-.471.195t-.195.471v2q0 .276-.195.471t-.471.195-.471-.195-.195-.471v-2q0-.828.586-1.414t1.414-.586z"/></symbol><symbol id="Maximize"><path class="path1" d="M9.333 8.661q.276 0 .474.198L14 13.052V9.995q0-.276.195-.471t.471-.195.471.195.195.471v4.667q0 .276-.198.474t-.474.198H9.993q-.276 0-.471-.195t-.195-.471.195-.471.471-.195h3.057L8.857 9.809q-.193-.203-.193-.474 0-.276.195-.474t.471-.198zm-8-7.994H6q.276 0 .471.195t.195.471-.195.471T6 1.999H2.943l4.193 4.188q.198.198.198.474t-.198.471-.474.195q-.266 0-.474-.193L2 2.941v3.057q0 .276-.195.471t-.471.195-.471-.195-.195-.471V1.331q0-.276.195-.471t.471-.195z"/></symbol><symbol id="Minimize"><path class="path1" d="M1.333.667q.281 0 .474.193L6 5.053V1.996q0-.276.195-.471t.471-.195.471.195.195.471v4.667q0 .276-.198.474t-.474.198H1.993q-.276 0-.471-.195t-.195-.471.195-.471.471-.195H5.05L.857 1.81q-.193-.193-.193-.474 0-.286.19-.477t.477-.19zm8.006 8h4.667q.276 0 .471.195t.195.471-.195.471-.471.195h-3.057l4.188 4.193q.198.198.198.474t-.195.471-.471.195q-.281 0-.474-.193l-4.193-4.193v3.057q0 .276-.195.471t-.471.195-.471-.195-.195-.471V9.336q0-.276.198-.474t.474-.198z"/></symbol><symbol id="Plus"><path class="path1" d="M8 1.333q.276 0 .471.195t.195.471v5.333h5.333q.276 0 .471.195t.195.471-.195.471-.471.195H8.666v5.333q0 .276-.195.471T8 14.663t-.471-.195-.195-.471V8.664H2.001q-.276 0-.471-.195t-.195-.471.195-.471.471-.195h5.333V1.999q0-.276.195-.471T8 1.333z"/></symbol><symbol id="Minus"><path class="path1" d="M2 7.333h12q.276 0 .471.195t.195.471-.195.471-.471.195H2q-.276 0-.471-.195t-.195-.471.195-.471T2 7.333z"/></symbol><symbol id="Check"><path class="path1" d="M14 3.333q.286 0 .477.19t.19.477q0 .281-.193.474l-8 8q-.193.193-.474.193t-.474-.193l-4-4Q1.333 8.281 1.333 8q0-.286.19-.477T2 7.333q.281 0 .474.193L6 11.057l7.526-7.531q.193-.193.474-.193z"/></symbol><symbol id="Cross"><path class="path1" d="M12.667 2.667q.286 0 .477.19t.19.477q0 .281-.193.474L8.943 8.001l4.198 4.193q.193.193.193.474 0 .286-.19.477t-.477.19q-.281 0-.474-.193L8 8.944l-4.193 4.198q-.193.193-.474.193-.286 0-.477-.19t-.19-.477q0-.281.193-.474l4.198-4.193-4.198-4.193q-.193-.193-.193-.474 0-.286.19-.477t.477-.19q.281 0 .474.193L8 7.058l4.193-4.198q.193-.193.474-.193z"/></symbol><symbol id="Move"><path class="path1" d="M8 0q.281 0 .474.193l2.354 2.359q.198.198.198.474t-.195.471-.471.195-.474-.198L8.667 2.275v5.057h5.057l-1.219-1.219q-.198-.198-.198-.474t.195-.471.471-.195.474.198l2.359 2.354q.193.193.193.474t-.193.469l-2.359 2.359q-.198.198-.474.198t-.471-.195-.195-.471.198-.474l1.219-1.219H8.667v5.057l1.219-1.219q.198-.198.474-.198t.471.195.195.471-.198.474l-2.354 2.359q-.193.193-.474.193-.276 0-.469-.193l-2.359-2.359q-.198-.198-.198-.474t.195-.471.471-.195.474.198l1.219 1.219V8.666H2.276l1.219 1.219q.198.198.198.474t-.195.471-.471.195-.474-.198L.194 8.473Q.001 8.28.001 7.999t.193-.474l2.359-2.354q.198-.198.474-.198t.471.195.195.471-.198.474L2.276 7.332h5.057V2.275L6.114 3.494q-.198.198-.474.198t-.471-.195-.195-.471.198-.474L7.526.193Q7.719 0 8 0z"/></symbol><symbol id="Delete"><path class="path1" d="M5.333 2H14q.828 0 1.414.586T16 4v8q0 .828-.586 1.414T14 14H5.333L0 8zM14 3.333H5.932L1.786 8l4.146 4.667H14q.276 0 .471-.195t.195-.471v-8q0-.276-.195-.471T14 3.335zM12.667 6q0 .281-.193.474L10.943 8l1.531 1.526q.193.193.193.474 0 .286-.19.477t-.477.19q-.281 0-.474-.193L10 8.943l-1.526 1.531q-.193.193-.474.193-.276 0-.471-.195t-.195-.471q0-.271.193-.474l1.531-1.526-1.531-1.526q-.193-.203-.193-.474 0-.276.195-.471T8 5.335q.281 0 .474.193L10 7.059l1.526-1.531q.193-.193.474-.193.286 0 .477.19t.19.477z"/></symbol><symbol id="Menu"><path class="path1" d="M2 3.333h12q.276 0 .471.195t.195.471-.195.471-.471.195H2q-.276 0-.471-.195t-.195-.471.195-.471T2 3.333zm0 8h12q.276 0 .471.195t.195.471-.195.471-.471.195H2q-.276 0-.471-.195t-.195-.471.195-.471.471-.195zm0-4h12q.276 0 .471.195t.195.471-.195.471-.471.195H2q-.276 0-.471-.195t-.195-.471.195-.471T2 7.333z"/></symbol><symbol id="Archive"><path class="path1" d="M4 2h8l4 4v6q0 .828-.586 1.414T14 14H2q-.828 0-1.414-.586T0 12V6zm10.667 10V7.333H11.74q-.443 1.156-1.477 1.911T8 9.999q-.818 0-1.589-.349t-1.344-.956-.859-1.362H1.333v4.667q0 .271.193.469t.474.198h12q.276 0 .471-.195t.195-.471zm-.552-6l-2.641-2.667H4.552L1.885 6h3.448q0 .661.354 1.276t.977 1.003T8 8.667t1.336-.388.977-1.003T10.667 6h3.448z"/></symbol><symbol id="Inbox"><path class="path1" d="M8 .667q.276 0 .471.195t.195.471v7.724l2.193-2.198q.193-.193.474-.193.286 0 .477.19t.19.477q0 .281-.193.474L8.474 11.14q-.193.193-.474.193t-.474-.193L4.193 7.807Q4 7.604 4 7.333q0-.276.195-.471t.471-.195q.281 0 .474.193l2.193 2.198V1.334q0-.276.195-.471t.471-.195zM14.667 10q.276 0 .471.195t.195.471v2.667q0 .833-.578 1.411-.589.589-1.406.589H2.667q-.818 0-1.417-.583-.583-.599-.583-1.417v-2.667q0-.276.195-.471T1.333 10t.471.195.195.471v2.667q0 .276.195.471t.471.195h10.682q.271 0 .461-.195t.19-.471v-2.667q0-.276.195-.471t.471-.195z"/></symbol><symbol id="Outbox"><path class="path1" d="M8 .698q.281 0 .474.193l3.333 3.333q.193.193.193.474 0 .286-.19.477t-.477.19q-.281 0-.474-.193L8.666 2.974v7.724q0 .276-.195.471T8 11.364t-.471-.195-.195-.471V2.974L5.141 5.172q-.203.193-.474.193-.276 0-.471-.195t-.195-.471q0-.271.193-.474L7.527.892q.193-.193.474-.193zm6.667 9.333q.276 0 .471.195t.195.471v2.667q0 .833-.578 1.411-.589.589-1.406.589H2.667q-.818 0-1.417-.583-.583-.599-.583-1.417v-2.667q0-.276.195-.471t.471-.195.471.195.195.471v2.667q0 .276.195.471t.471.195h10.682q.271 0 .461-.195t.19-.471v-2.667q0-.276.195-.471t.471-.195z"/></symbol><symbol id="File"><path class="path1" d="M3.333 0H10l4.667 4.667V14q0 .828-.586 1.414T12.667 16H3.334q-.828 0-1.414-.586T1.334 14V2q0-.828.586-1.414T3.334 0zm5.334 6V1.333H3.334q-.281 0-.474.193T2.667 2v12q0 .281.193.474t.474.193h9.333q.281 0 .474-.193t.193-.474V6H8.667zm4.114-1.333L10 1.886v2.781h2.781z"/></symbol><symbol id="File-add"><path class="path1" d="M3.333 0H10l4.667 4.667V14q0 .828-.586 1.414T12.667 16H3.334q-.828 0-1.414-.586T1.334 14V2q0-.828.586-1.414T3.334 0zM8 7.333q.276 0 .471.195t.195.471v1.333h1.333q.276 0 .471.195t.195.471-.195.471-.471.195H8.666v1.333q0 .276-.195.471T8 12.663t-.471-.195-.195-.471v-1.333H6.001q-.276 0-.471-.195t-.195-.471.195-.471.471-.195h1.333V7.999q0-.276.195-.471T8 7.333zM8.667 6V1.333H3.334q-.281 0-.474.193T2.667 2v12q0 .281.193.474t.474.193h9.333q.281 0 .474-.193t.193-.474V6H8.667zm4.114-1.333L10 1.886v2.781h2.781z"/></symbol><symbol id="File-subtract"><path class="path1" d="M3.333 0H10l4.667 4.667V14q0 .828-.586 1.414T12.667 16H3.334q-.828 0-1.414-.586T1.334 14V2q0-.828.586-1.414T3.334 0zM6 9.333h4q.276 0 .471.195t.195.471-.195.471-.471.195H6q-.276 0-.471-.195t-.195-.471.195-.471T6 9.333zM8.667 6V1.333H3.334q-.281 0-.474.193T2.667 2v12q0 .281.193.474t.474.193h9.333q.281 0 .474-.193t.193-.474V6H8.667zm4.114-1.333L10 1.886v2.781h2.781z"/></symbol><symbol id="Help"><path class="path1" d="M8 .667q1.438 0 2.786.547t2.401 1.599 1.599 2.401T15.333 8t-.547 2.786-1.599 2.401-2.401 1.599T8 15.333t-2.786-.547-2.401-1.599-1.599-2.401T.667 8t.547-2.786 1.599-2.401 2.401-1.599T8 .667zM5.219 6.161L3.313 4.255q-.646.807-.979 1.771T2.001 8t.333 1.974.979 1.771l1.906-1.906Q4.667 9.006 4.667 8t.552-1.839zm6.526 6.527l-1.906-1.906q-.833.552-1.839.552t-1.839-.552l-1.906 1.906q.807.646 1.771.979T8 14t1.974-.333 1.771-.979zM8 6q-.828 0-1.414.586T6 8t.586 1.414T8 10t1.414-.586T10 8t-.586-1.414T8 6zm0-4q-1.01 0-1.974.333t-1.771.979l1.906 1.906Q6.994 4.666 8 4.666t1.839.552l1.906-1.906q-.807-.646-1.771-.979T8 2zm4.688 2.255l-1.906 1.906q.552.833.552 1.839t-.552 1.839l1.906 1.906q.646-.807.979-1.771T14 8t-.333-1.974-.979-1.771z"/></symbol><symbol id="Open"><path class="path1" d="M2.667.667h4.667q.276 0 .471.195T8 1.333t-.195.471-.471.195H2.667q-.276 0-.471.195t-.195.471v10.667q0 .276.195.471t.471.195h10.667q.276 0 .471-.195t.195-.471V8.665q0-.276.195-.471t.471-.195.471.195.195.471v4.667q0 .828-.586 1.414t-1.414.586H2.665q-.828 0-1.414-.586t-.586-1.414V2.665q0-.828.586-1.414T2.665.665zm8 0h4q.276 0 .471.195t.195.471v4q0 .276-.195.471t-.471.195-.471-.195-.195-.471V2.942L8.47 8.473q-.193.193-.469.193-.286 0-.477-.19t-.19-.477q0-.276.193-.469l5.531-5.531h-2.391q-.276 0-.471-.195t-.195-.471.195-.471.471-.195z"/></symbol><symbol id="Ellipsis"><path class="path1" d="M13.333 6q.828 0 1.414.586T15.333 8t-.586 1.414-1.414.586-1.414-.586T11.333 8t.586-1.414T13.333 6zM2.667 6q.828 0 1.414.586T4.667 8t-.586 1.414T2.667 10t-1.414-.586T.667 8t.586-1.414T2.667 6zm0 1.333q-.276 0-.471.195t-.195.471.195.471.471.195.471-.195.195-.471-.195-.471-.471-.195zM8 6q.828 0 1.414.586T10 8t-.586 1.414T8 10t-1.414-.586T6 8t.586-1.414T8 6zm0 1.333q-.276 0-.471.195t-.195.471.195.471.471.195.471-.195.195-.471-.195-.471T8 7.333zm5.333 0q-.276 0-.471.195t-.195.471.195.471.471.195.471-.195.195-.471-.195-.471-.471-.195z"/></symbol></defs><defs><use id="arrow" xlink:href="#Arrow"/><use id="eye" xlink:href="#Eye"/><use id="paper-clip" xlink:href="#Paper-clip"/><use id="mail" xlink:href="#Mail"/><use id="toggle" xlink:href="#Toggle"/><use id="layout" xlink:href="#Layout"/><use id="link" xlink:href="#Link"/><use id="bell" xlink:href="#Bell"/><use id="lock" xlink:href="#Lock"/><use id="unlock" xlink:href="#Unlock"/><use id="ribbon" xlink:href="#Ribbon"/><use id="image" xlink:href="#Image"/><use id="signal" xlink:href="#Signal"/><use id="target" xlink:href="#Target"/><use id="clipboard" xlink:href="#Clipboard"/><use id="clock" xlink:href="#Clock"/><use id="watch" xlink:href="#Watch"/><use id="air-play" xlink:href="#Air-play"/><use id="camera" xlink:href="#Camera"/><use id="video" xlink:href="#Video"/><use id="disc" xlink:href="#Disc"/><use id="printer" xlink:href="#Printer"/><use id="monitor" xlink:href="#Monitor"/><use id="server" xlink:href="#Server"/><use id="cog" xlink:href="#Cog"/><use id="heart" xlink:href="#Heart"/><use id="paragraph" xlink:href="#Paragraph"/><use id="align-justify" xlink:href="#Align-justify"/><use id="align-left" xlink:href="#Align-left"/><use id="align-center" xlink:href="#Align-center"/><use id="align-right" xlink:href="#Align-right"/><use id="book" xlink:href="#Book"/><use id="layers" xlink:href="#Layers"/><use id="stack" xlink:href="#Stack"/><use id="stack-2" xlink:href="#Stack-2"/><use id="paper" xlink:href="#Paper"/><use id="paper-stack" xlink:href="#Paper-stack"/><use id="search" xlink:href="#Search"/><use id="zoom-in" xlink:href="#Zoom-in"/><use id="zoom-out" xlink:href="#Zoom-out"/><use id="reply" xlink:href="#Reply"/><use id="circle-plus" xlink:href="#Circle-plus"/><use id="circle-minus" xlink:href="#Circle-minus"/><use id="circle-check" xlink:href="#Circle-check"/><use id="circle-cross" xlink:href="#Circle-cross"/><use id="square-plus" xlink:href="#Square-plus"/><use id="square-minus" xlink:href="#Square-minus"/><use id="square-check" xlink:href="#Square-check"/><use id="square-cross" xlink:href="#Square-cross"/><use id="microphone" xlink:href="#Microphone"/><use id="record" xlink:href="#Record"/><use id="skip-back" xlink:href="#Skip-back"/><use id="rewind" xlink:href="#Rewind"/><use id="play" xlink:href="#Play"/><use id="pause" xlink:href="#Pause"/><use id="stop" xlink:href="#Stop"/><use id="fast-forward" xlink:href="#Fast-forward"/><use id="skip-forward" xlink:href="#Skip-forward"/><use id="shuffle" xlink:href="#Shuffle"/><use id="repeat" xlink:href="#Repeat"/><use id="folder" xlink:href="#Folder"/><use id="umbrella" xlink:href="#Umbrella"/><use id="moon" xlink:href="#Moon"/><use id="thermometer" xlink:href="#Thermometer"/><use id="drop" xlink:href="#Drop"/><use id="sun" xlink:href="#Sun"/><use id="cloud" xlink:href="#Cloud"/><use id="cloud-upload" xlink:href="#Cloud-upload"/><use id="cloud-download" xlink:href="#Cloud-download"/><use id="upload" xlink:href="#Upload"/><use id="download" xlink:href="#Download"/><use id="location" xlink:href="#Location"/><use id="location-2" xlink:href="#Location-2"/><use id="map" xlink:href="#Map"/><use id="battery" xlink:href="#Battery"/><use id="head" xlink:href="#Head"/><use id="briefcase" xlink:href="#Briefcase"/><use id="speech-bubble" xlink:href="#Speech-bubble"/><use id="anchor" xlink:href="#Anchor"/><use id="globe" xlink:href="#Globe"/><use id="box" xlink:href="#Box"/><use id="reload" xlink:href="#Reload"/><use id="share" xlink:href="#Share"/><use id="marquee" xlink:href="#Marquee"/><use id="marquee-plus" xlink:href="#Marquee-plus"/><use id="marquee-minus" xlink:href="#Marquee-minus"/><use id="tag" xlink:href="#Tag"/><use id="power" xlink:href="#Power"/><use id="command" xlink:href="#Command"/><use id="alt" xlink:href="#Alt"/><use id="esc" xlink:href="#Esc"/><use id="bar-graph" xlink:href="#Bar-graph"/><use id="bar-graph-2" xlink:href="#Bar-graph-2"/><use id="pie-graph" xlink:href="#Pie-graph"/><use id="star" xlink:href="#Star"/><use id="arrow-leftwards" xlink:href="#Arrow-leftwards"/><use id="arrow-rightwards" xlink:href="#Arrow-rightwards"/><use id="arrow-upwards" xlink:href="#Arrow-upwards"/><use id="arrow-downwards" xlink:href="#Arrow-downwards"/><use id="volume" xlink:href="#Volume"/><use id="mute" xlink:href="#Mute"/><use id="content-right" xlink:href="#Content-right"/><use id="content-left" xlink:href="#Content-left"/><use id="grid" xlink:href="#Grid"/><use id="grid-2" xlink:href="#Grid-2"/><use id="columns" xlink:href="#Columns"/><use id="loader" xlink:href="#Loader"/><use id="bag" xlink:href="#Bag"/><use id="ban" xlink:href="#Ban"/><use id="flag" xlink:href="#Flag"/><use id="trash" xlink:href="#Trash"/><use id="expand" xlink:href="#Expand"/><use id="contract" xlink:href="#Contract"/><use id="maximize" xlink:href="#Maximize"/><use id="minimize" xlink:href="#Minimize"/><use id="plus" xlink:href="#Plus"/><use id="minus" xlink:href="#Minus"/><use id="check" xlink:href="#Check"/><use id="cross" xlink:href="#Cross"/><use id="move" xlink:href="#Move"/><use id="delete" xlink:href="#Delete"/><use id="menu" xlink:href="#Menu"/><use id="archive" xlink:href="#Archive"/><use id="inbox" xlink:href="#Inbox"/><use id="outbox" xlink:href="#Outbox"/><use id="file" xlink:href="#File"/><use id="file-add" xlink:href="#File-add"/><use id="file-subtract" xlink:href="#File-subtract"/><use id="help" xlink:href="#Help"/><use id="open" xlink:href="#Open"/><use id="ellipsis" xlink:href="#Ellipsis"/><style>.primary{fill:#666}.white{fill:#fff}</style><use id="mono-base-arrow" class="primary" xlink:href="#arrow"/><use id="mono-base-clock" class="primary" xlink:href="#clock"/><use id="mono-incolor-arrow" class="white" xlink:href="#arrow"/></defs><use xlink:href="#mono-base-arrow"/><use transform="translate(20)" xlink:href="#mono-incolor-arrow"/><use transform="translate(40)" xlink:href="#mono-base-clock"/></svg>