<?xml version="1.0" encoding="utf-8"?>
<!-- Generated by IcoMoon.io -->
<!DOCTYPE svg PUBLIC "-//W3C//DTD SVG 1.1//EN" "http://www.w3.org/Graphics/SVG/1.1/DTD/svg11.dtd">
<svg version="1.1" xmlns="http://www.w3.org/2000/svg" xmlns:xlink="http://www.w3.org/1999/xlink" width="16" height="16" viewBox="0 0 16 16">
<path d="M8 0.667q1.104 0 1.885 0.781t0.781 1.885q0 0.922-0.563 1.638t-1.438 0.94v8.052q1.109-0.125 2.096-0.643t1.698-1.305 1.125-1.833 0.414-2.182q0-0.276 0.195-0.471t0.471-0.195 0.471 0.195 0.195 0.471q0 1.495-0.581 2.852t-1.563 2.339-2.339 1.563-2.852 0.581-2.852-0.581-2.339-1.563-1.563-2.339-0.581-2.852q0-0.276 0.195-0.471t0.471-0.195 0.471 0.195 0.195 0.471q0 1.135 0.414 2.182t1.125 1.833 1.698 1.305 2.096 0.643v-8.052q-0.875-0.224-1.438-0.94t-0.563-1.638q0-1.104 0.781-1.885t1.885-0.781zM8 2q-0.552 0-0.943 0.391t-0.391 0.943 0.391 0.943 0.943 0.391 0.943-0.391 0.391-0.943-0.391-0.943-0.943-0.391z"></path>
</svg>
