<?xml version="1.0" encoding="utf-8"?>
<!-- Generated by IcoMoon.io -->
<!DOCTYPE svg PUBLIC "-//W3C//DTD SVG 1.1//EN" "http://www.w3.org/Graphics/SVG/1.1/DTD/svg11.dtd">
<svg version="1.1" xmlns="http://www.w3.org/2000/svg" xmlns:xlink="http://www.w3.org/1999/xlink" width="16" height="16" viewBox="0 0 16 16">
<path d="M4 2h8l4 4v6q0 0.828-0.586 1.414t-1.414 0.586h-12q-0.828 0-1.414-0.586t-0.586-1.414v-6zM14.667 12v-4.667h-2.927q-0.443 1.156-1.477 1.911t-2.263 0.755q-0.818 0-1.589-0.349t-1.344-0.956-0.859-1.362h-2.875v4.667q0 0.271 0.193 0.469t0.474 0.198h12q0.276 0 0.471-0.195t0.195-0.471zM14.115 6l-2.641-2.667h-6.922l-2.667 2.667h3.448q0 0.661 0.354 1.276t0.977 1.003 1.336 0.388 1.336-0.388 0.977-1.003 0.354-1.276h3.448z"></path>
</svg>
