<?xml version="1.0" encoding="utf-8"?>
<!-- Generated by IcoMoon.io -->
<!DOCTYPE svg PUBLIC "-//W3C//DTD SVG 1.1//EN" "http://www.w3.org/Graphics/SVG/1.1/DTD/svg11.dtd">
<svg version="1.1" xmlns="http://www.w3.org/2000/svg" xmlns:xlink="http://www.w3.org/1999/xlink" width="16" height="16" viewBox="0 0 16 16">
<path d="M8 1.333q0.281 0 0.474 0.193l4.667 4.667q0.193 0.193 0.193 0.474 0 0.286-0.19 0.477t-0.477 0.19q-0.281 0-0.474-0.193l-3.526-3.531v10.391q0 0.276-0.195 0.471t-0.471 0.195-0.471-0.195-0.195-0.471v-10.391l-3.526 3.531q-0.193 0.193-0.474 0.193-0.286 0-0.477-0.19t-0.19-0.477q0-0.281 0.193-0.474l4.667-4.667q0.193-0.193 0.474-0.193z"></path>
</svg>
