<?xml version="1.0" encoding="utf-8"?>
<!-- Generated by IcoMoon.io -->
<!DOCTYPE svg PUBLIC "-//W3C//DTD SVG 1.1//EN" "http://www.w3.org/Graphics/SVG/1.1/DTD/svg11.dtd">
<svg version="1.1" xmlns="http://www.w3.org/2000/svg" xmlns:xlink="http://www.w3.org/1999/xlink" width="16" height="16" viewBox="0 0 16 16">
<path d="M8 0q0.677 0 1.294 0.266t1.063 0.711 0.711 1.063 0.266 1.294v0.667h2.667v10q0 0.828-0.586 1.414t-1.414 0.586h-8q-0.828 0-1.414-0.586t-0.586-1.414v-10h2.667v-0.667q0-0.677 0.266-1.294t0.711-1.063 1.063-0.711 1.294-0.266zM12.667 14v-8.667h-9.333v8.667q0 0.276 0.195 0.471t0.471 0.195h8q0.276 0 0.471-0.195t0.195-0.471zM8 1.333q-0.828 0-1.414 0.586t-0.586 1.414v0.667h4v-0.667q0-0.828-0.586-1.414t-1.414-0.586z"></path>
</svg>
