<?xml version="1.0" encoding="utf-8"?>
<!-- Generated by IcoMoon.io -->
<!DOCTYPE svg PUBLIC "-//W3C//DTD SVG 1.1//EN" "http://www.w3.org/Graphics/SVG/1.1/DTD/svg11.dtd">
<svg version="1.1" xmlns="http://www.w3.org/2000/svg" xmlns:xlink="http://www.w3.org/1999/xlink" width="16" height="16" viewBox="0 0 16 16">
<path d="M8 0.667q1.495 0 2.852 0.581t2.339 1.563 1.563 2.339 0.581 2.852-0.581 2.852-1.563 2.339-2.339 1.563-2.852 0.581-2.852-0.581-2.339-1.563-1.563-2.339-0.581-2.852 0.581-2.852 1.563-2.339 2.339-1.563 2.852-0.581zM11.745 12.688l-8.432-8.432q-0.625 0.786-0.969 1.745t-0.344 2q0 1.219 0.477 2.331t1.279 1.914 1.914 1.279 2.331 0.477q1.047 0 2.005-0.341t1.74-0.971zM8 2q-1.047 0-2.005 0.341t-1.74 0.971l8.432 8.432q0.63-0.781 0.971-1.74t0.341-2.005q0-1.219-0.477-2.331t-1.279-1.914-1.914-1.279-2.331-0.477z"></path>
</svg>
