<?xml version="1.0" encoding="utf-8"?>
<!-- Generated by IcoMoon.io -->
<!DOCTYPE svg PUBLIC "-//W3C//DTD SVG 1.1//EN" "http://www.w3.org/Graphics/SVG/1.1/DTD/svg11.dtd">
<svg version="1.1" xmlns="http://www.w3.org/2000/svg" xmlns:xlink="http://www.w3.org/1999/xlink" width="16" height="16" viewBox="0 0 16 16">
<path d="M8 0.667q0.828 0 1.414 0.586t0.586 1.414v10.667q0 0.828-0.586 1.414t-1.414 0.586-1.414-0.586-0.586-1.414v-10.667q0-0.828 0.586-1.414t1.414-0.586zM2.667 8.667q0.828 0 1.414 0.586t0.586 1.414v2.667q0 0.828-0.586 1.414t-1.414 0.586-1.414-0.586-0.586-1.414v-2.667q0-0.828 0.586-1.414t1.414-0.586zM2.667 10q-0.276 0-0.471 0.195t-0.195 0.471v2.667q0 0.276 0.195 0.471t0.471 0.195 0.471-0.195 0.195-0.471v-2.667q0-0.276-0.195-0.471t-0.471-0.195zM8 2q-0.276 0-0.471 0.195t-0.195 0.471v10.667q0 0.276 0.195 0.471t0.471 0.195 0.471-0.195 0.195-0.471v-10.667q0-0.276-0.195-0.471t-0.471-0.195zM13.333 4.667q0.828 0 1.414 0.586t0.586 1.414v6.667q0 0.828-0.586 1.414t-1.414 0.586-1.414-0.586-0.586-1.414v-6.667q0-0.828 0.586-1.414t1.414-0.586zM13.333 6q-0.276 0-0.471 0.195t-0.195 0.471v6.667q0 0.276 0.195 0.471t0.471 0.195 0.471-0.195 0.195-0.471v-6.667q0-0.276-0.195-0.471t-0.471-0.195z"></path>
</svg>
