<?xml version="1.0" encoding="utf-8"?>
<!-- Generated by IcoMoon.io -->
<!DOCTYPE svg PUBLIC "-//W3C//DTD SVG 1.1//EN" "http://www.w3.org/Graphics/SVG/1.1/DTD/svg11.dtd">
<svg version="1.1" xmlns="http://www.w3.org/2000/svg" xmlns:xlink="http://www.w3.org/1999/xlink" width="16" height="16" viewBox="0 0 16 16">
<path d="M8 0.667q0.859 0 1.625 0.279t1.359 0.768 1.068 1.164 0.789 1.458 0.492 1.664q0.526 2.641 1.117 4.174t1.549 2.492h-6.115q0.115 0.328 0.115 0.667 0 0.828-0.586 1.414t-1.414 0.586-1.414-0.586-0.586-1.414q0-0.339 0.115-0.667h-6.115q0.958-0.958 1.549-2.492t1.117-4.174q0.177-0.88 0.492-1.664t0.789-1.458 1.068-1.164 1.359-0.768 1.625-0.279zM8 12.667q-0.276 0-0.471 0.195t-0.195 0.471 0.195 0.471 0.471 0.195 0.471-0.195 0.195-0.471-0.195-0.471-0.471-0.195zM8 2q-0.604 0-1.138 0.188t-0.914 0.479-0.706 0.701-0.529 0.794-0.367 0.823-0.242 0.721-0.13 0.555q-0.667 3.359-1.469 5.073h10.99q-0.802-1.714-1.469-5.073-0.052-0.271-0.13-0.555t-0.242-0.721-0.367-0.823-0.529-0.794-0.706-0.701-0.914-0.479-1.138-0.188z"></path>
</svg>
