<?xml version="1.0" encoding="utf-8"?>
<!-- Generated by IcoMoon.io -->
<!DOCTYPE svg PUBLIC "-//W3C//DTD SVG 1.1//EN" "http://www.w3.org/Graphics/SVG/1.1/DTD/svg11.dtd">
<svg version="1.1" xmlns="http://www.w3.org/2000/svg" xmlns:xlink="http://www.w3.org/1999/xlink" width="16" height="16" viewBox="0 0 16 16">
<path d="M5.333 1.333h5.333l1.333 2h2q0.828 0 1.414 0.596t0.586 1.424v7.323q0 0.828-0.586 1.409t-1.414 0.581h-12q-0.828 0-1.414-0.586t-0.586-1.414v-7.323q0-0.828 0.586-1.419t1.414-0.591h2zM8 5.333q0.677 0 1.294 0.266t1.063 0.711 0.711 1.063 0.266 1.294-0.266 1.294-0.711 1.063-1.063 0.711-1.294 0.266-1.294-0.266-1.063-0.711-0.711-1.063-0.266-1.294 0.266-1.294 0.711-1.063 1.063-0.711 1.294-0.266zM8 6.667q-0.828 0-1.414 0.586t-0.586 1.414 0.586 1.414 1.414 0.586 1.414-0.586 0.586-1.414-0.586-1.414-1.414-0.586zM11.286 4.667l-1.307-2h-3.932l-1.333 2h-2.714q-0.276 0-0.471 0.198t-0.195 0.479v7.323q0 0.276 0.195 0.471t0.471 0.195h12q0.281 0 0.474-0.19t0.193-0.466v-7.323q0-0.281-0.198-0.484t-0.469-0.203h-2.714z"></path>
</svg>
