<?xml version="1.0" encoding="utf-8"?>
<!-- Generated by IcoMoon.io -->
<!DOCTYPE svg PUBLIC "-//W3C//DTD SVG 1.1//EN" "http://www.w3.org/Graphics/SVG/1.1/DTD/svg11.dtd">
<svg version="1.1" xmlns="http://www.w3.org/2000/svg" xmlns:xlink="http://www.w3.org/1999/xlink" width="16" height="16" viewBox="0 0 16 16">
<path d="M8 0.667q1.495 0 2.852 0.581t2.339 1.563 1.563 2.339 0.581 2.852-0.581 2.852-1.563 2.339-2.339 1.563-2.852 0.581-2.852-0.581-2.339-1.563-1.563-2.339-0.581-2.852 0.581-2.852 1.563-2.339 2.339-1.563 2.852-0.581zM8 2q-1.219 0-2.331 0.477t-1.914 1.279-1.279 1.914-0.477 2.331 0.477 2.331 1.279 1.914 1.914 1.279 2.331 0.477 2.331-0.477 1.914-1.279 1.279-1.914 0.477-2.331-0.477-2.331-1.279-1.914-1.914-1.279-2.331-0.477zM9.885 5.443q0.276 0 0.474 0.195t0.198 0.471-0.198 0.474l-1.417 1.417 1.417 1.411q0.198 0.198 0.198 0.469 0 0.276-0.198 0.471t-0.474 0.195-0.469-0.193l-1.417-1.411-1.411 1.411q-0.193 0.193-0.474 0.193-0.276 0-0.471-0.193t-0.195-0.469q0-0.281 0.193-0.474l1.417-1.411-1.417-1.417q-0.193-0.193-0.193-0.469t0.195-0.474 0.471-0.198 0.474 0.198l1.411 1.417 1.417-1.417q0.198-0.198 0.469-0.198z"></path>
</svg>
