<?xml version="1.0" encoding="utf-8"?>
<!-- Generated by IcoMoon.io -->
<!DOCTYPE svg PUBLIC "-//W3C//DTD SVG 1.1//EN" "http://www.w3.org/Graphics/SVG/1.1/DTD/svg11.dtd">
<svg version="1.1" xmlns="http://www.w3.org/2000/svg" xmlns:xlink="http://www.w3.org/1999/xlink" width="16" height="16" viewBox="0 0 16 16">
<path d="M6.667 0.667h2.667q0.646 0 1.161 0.372t0.724 0.961h0.781q0.828 0 1.414 0.586t0.586 1.414v9.333q0 0.828-0.586 1.414t-1.414 0.586h-8q-0.828 0-1.414-0.586t-0.586-1.414v-9.333q0-0.828 0.586-1.414t1.414-0.586h0.781q0.208-0.589 0.724-0.961t1.161-0.372zM12 3.333h-0.781q-0.208 0.589-0.724 0.961t-1.161 0.372h-2.667q-0.646 0-1.161-0.372t-0.724-0.961h-0.781q-0.276 0-0.471 0.195t-0.195 0.471v9.333q0 0.276 0.195 0.471t0.471 0.195h8q0.276 0 0.471-0.195t0.195-0.471v-9.333q0-0.276-0.195-0.471t-0.471-0.195zM9.333 2h-2.667q-0.276 0-0.471 0.195t-0.195 0.471 0.195 0.471 0.471 0.195h2.667q0.276 0 0.471-0.195t0.195-0.471-0.195-0.471-0.471-0.195z"></path>
</svg>
