<?xml version="1.0" encoding="utf-8"?>
<!-- Generated by IcoMoon.io -->
<!DOCTYPE svg PUBLIC "-//W3C//DTD SVG 1.1//EN" "http://www.w3.org/Graphics/SVG/1.1/DTD/svg11.dtd">
<svg version="1.1" xmlns="http://www.w3.org/2000/svg" xmlns:xlink="http://www.w3.org/1999/xlink" width="16" height="16" viewBox="0 0 16 16">
<path d="M10 1.333q1.219 0 2.331 0.477t1.914 1.279 1.279 1.914 0.477 2.331q0 1.328-0.547 2.51t-1.51 2.018-2.188 1.211l0.328-0.323q0.281-0.286 0.438-0.667 0.146-0.354 0.146-0.771 0-0.104-0.005-0.146 0.927-0.646 1.466-1.654t0.539-2.18q0-0.948-0.37-1.813t-0.995-1.49-1.49-0.995-1.813-0.37q-0.865 0-1.664 0.31t-1.406 0.841-1.016 1.271-0.529 1.578h-1.385q-1.104 0-1.885 0.781t-0.781 1.885q0 0.604 0.237 1.12t0.622 0.846 0.857 0.516 0.951 0.185h0.781q0.182 0.458 0.469 0.75l0.589 0.583h-1.839q-1.089 0-2.008-0.536t-1.456-1.456-0.536-2.008 0.536-2.008 1.456-1.456 2.008-0.536h0.344q0.411-1.161 1.24-2.065t1.982-1.419 2.435-0.516zM8.667 6.667q0.276 0 0.471 0.195t0.195 0.471v4.391l0.859-0.865q0.193-0.193 0.474-0.193 0.286 0 0.477 0.19t0.19 0.477q0 0.281-0.193 0.474l-2 2q-0.193 0.193-0.474 0.193t-0.474-0.193l-2-2q-0.193-0.203-0.193-0.474 0-0.276 0.195-0.471t0.471-0.195q0.281 0 0.474 0.193l0.859 0.865v-4.391q0-0.276 0.195-0.471t0.471-0.195z"></path>
</svg>
