<?xml version="1.0" encoding="utf-8"?>
<!-- Generated by IcoMoon.io -->
<!DOCTYPE svg PUBLIC "-//W3C//DTD SVG 1.1//EN" "http://www.w3.org/Graphics/SVG/1.1/DTD/svg11.dtd">
<svg version="1.1" xmlns="http://www.w3.org/2000/svg" xmlns:xlink="http://www.w3.org/1999/xlink" width="16" height="16" viewBox="0 0 16 16">
<path d="M10 1.333q1.219 0 2.331 0.477t1.914 1.279 1.279 1.914 0.477 2.331q0 1.135-0.414 2.182t-1.125 1.833-1.698 1.305-2.096 0.643v-1.344q1.12-0.161 2.034-0.81t1.44-1.651 0.526-2.159q0-0.948-0.37-1.813t-0.995-1.49-1.49-0.995-1.813-0.37q-0.865 0-1.664 0.31t-1.406 0.841-1.016 1.271-0.529 1.578h-1.385q-1.104 0-1.885 0.781t-0.781 1.885q0 0.604 0.237 1.12t0.622 0.846 0.857 0.516 0.951 0.185h2.667v1.333h-2.667q-1.089 0-2.008-0.536t-1.456-1.456-0.536-2.008 0.536-2.008 1.456-1.456 2.008-0.536h0.344q0.411-1.161 1.24-2.065t1.982-1.419 2.435-0.516zM8.667 6.667q0.276 0 0.474 0.198l2 2q0.193 0.193 0.193 0.469 0 0.286-0.19 0.477t-0.477 0.19q-0.281 0-0.474-0.193l-0.859-0.865v4.391q0 0.276-0.195 0.471t-0.471 0.195-0.471-0.195-0.195-0.471v-4.391l-0.859 0.865q-0.193 0.193-0.474 0.193-0.276 0-0.471-0.195t-0.195-0.471q0-0.266 0.193-0.469l2-2q0.198-0.198 0.474-0.198z"></path>
</svg>
