<?xml version="1.0" encoding="utf-8"?>
<!-- Generated by IcoMoon.io -->
<!DOCTYPE svg PUBLIC "-//W3C//DTD SVG 1.1//EN" "http://www.w3.org/Graphics/SVG/1.1/DTD/svg11.dtd">
<svg version="1.1" xmlns="http://www.w3.org/2000/svg" xmlns:xlink="http://www.w3.org/1999/xlink" width="16" height="16" viewBox="0 0 16 16">
<path d="M10 2q1.219 0 2.331 0.477t1.914 1.279 1.279 1.914 0.477 2.331-0.477 2.331-1.279 1.914-1.914 1.279-2.331 0.477h-6q-1.089 0-2.008-0.536t-1.456-1.456-0.536-2.008 0.536-2.008 1.456-1.456 2.008-0.536h0.344q0.411-1.161 1.24-2.065t1.982-1.419 2.435-0.516zM10 3.333q-0.865 0-1.664 0.31t-1.406 0.841-1.016 1.271-0.529 1.578h-1.385q-1.104 0-1.885 0.781t-0.781 1.885 0.781 1.885 1.885 0.781h6q0.948 0 1.813-0.37t1.49-0.995 0.995-1.49 0.37-1.813-0.37-1.813-0.995-1.49-1.49-0.995-1.813-0.37z"></path>
</svg>
