<?xml version="1.0" encoding="utf-8"?>
<!-- Generated by IcoMoon.io -->
<!DOCTYPE svg PUBLIC "-//W3C//DTD SVG 1.1//EN" "http://www.w3.org/Graphics/SVG/1.1/DTD/svg11.dtd">
<svg version="1.1" xmlns="http://www.w3.org/2000/svg" xmlns:xlink="http://www.w3.org/1999/xlink" width="16" height="16" viewBox="0 0 16 16">
<path d="M8 0q0.828 0 1.414 0.586t0.586 1.414v0.344q0.245 0.083 0.589 0.24l0.24-0.24q0.589-0.589 1.417-0.589 0.823 0 1.411 0.589t0.589 1.411q0 0.828-0.589 1.417l-0.24 0.24q0.156 0.344 0.24 0.589h0.344q0.828 0 1.414 0.586t0.586 1.414-0.586 1.414-1.414 0.586h-0.344q-0.083 0.245-0.24 0.589l0.24 0.24q0.589 0.589 0.589 1.417 0 0.823-0.589 1.411t-1.411 0.589q-0.828 0-1.417-0.589l-0.24-0.24q-0.344 0.156-0.589 0.24v0.344q0 0.828-0.586 1.414t-1.414 0.586-1.414-0.586-0.586-1.414v-0.344q-0.245-0.083-0.589-0.24l-0.24 0.24q-0.589 0.589-1.411 0.589-0.828 0-1.414-0.589t-0.586-1.411q0-0.833 0.583-1.417l0.24-0.24q-0.156-0.344-0.24-0.589h-0.344q-0.828 0-1.414-0.586t-0.586-1.414 0.586-1.414 1.414-0.586h0.344q0.083-0.245 0.24-0.589l-0.24-0.24q-0.583-0.583-0.583-1.417 0-0.823 0.586-1.411t1.414-0.589q0.823 0 1.411 0.589l0.24 0.24q0.344-0.156 0.589-0.24v-0.344q0-0.828 0.586-1.414t1.414-0.586zM8 1.333q-0.276 0-0.471 0.195t-0.195 0.471v1.38q-1.167 0.167-2.13 0.88l-0.974-0.974q-0.198-0.198-0.469-0.198-0.276 0-0.471 0.195t-0.195 0.471q0 0.281 0.193 0.474l0.974 0.974q-0.714 0.964-0.88 2.13h-1.38q-0.276 0-0.471 0.195t-0.195 0.471 0.195 0.471 0.471 0.195h1.38q0.167 1.167 0.88 2.13l-0.974 0.974q-0.193 0.193-0.193 0.474 0 0.276 0.195 0.471t0.471 0.195q0.271 0 0.469-0.198l0.974-0.974q0.964 0.714 2.13 0.88v1.38q0 0.276 0.195 0.471t0.471 0.195 0.471-0.195 0.195-0.471v-1.38q1.167-0.167 2.13-0.88l0.974 0.974q0.198 0.198 0.474 0.198t0.471-0.195 0.195-0.471-0.198-0.474l-0.974-0.974q0.714-0.964 0.88-2.13h1.38q0.276 0 0.471-0.195t0.195-0.471-0.195-0.471-0.471-0.195h-1.38q-0.167-1.167-0.88-2.13l0.974-0.974q0.198-0.198 0.198-0.474t-0.195-0.471-0.471-0.195-0.474 0.198l-0.974 0.974q-0.964-0.714-2.13-0.88v-1.38q0-0.276-0.195-0.471t-0.471-0.195zM8 5.333q1.104 0 1.885 0.781t0.781 1.885-0.781 1.885-1.885 0.781-1.885-0.781-0.781-1.885 0.781-1.885 1.885-0.781zM8 6.667q-0.552 0-0.943 0.391t-0.391 0.943 0.391 0.943 0.943 0.391 0.943-0.391 0.391-0.943-0.391-0.943-0.943-0.391z"></path>
</svg>
