<?xml version="1.0" encoding="utf-8"?>
<!-- Generated by IcoMoon.io -->
<!DOCTYPE svg PUBLIC "-//W3C//DTD SVG 1.1//EN" "http://www.w3.org/Graphics/SVG/1.1/DTD/svg11.dtd">
<svg version="1.1" xmlns="http://www.w3.org/2000/svg" xmlns:xlink="http://www.w3.org/1999/xlink" width="16" height="16" viewBox="0 0 16 16">
<path d="M12 1.333q1.104 0 1.885 0.781t0.781 1.885-0.781 1.885-1.885 0.781h-1.333v2.667h1.333q1.104 0 1.885 0.781t0.781 1.885-0.781 1.885-1.885 0.781-1.885-0.781-0.781-1.885v-1.333h-2.667v1.333q0 1.104-0.781 1.885t-1.885 0.781-1.885-0.781-0.781-1.885 0.781-1.885 1.885-0.781h1.333v-2.667h-1.333q-1.104 0-1.885-0.781t-0.781-1.885 0.781-1.885 1.885-0.781 1.885 0.781 0.781 1.885v1.333h2.667v-1.333q0-1.104 0.781-1.885t1.885-0.781zM5.333 12v-1.333h-1.333q-0.552 0-0.943 0.391t-0.391 0.943 0.391 0.943 0.943 0.391 0.943-0.391 0.391-0.943zM4 2.667q-0.552 0-0.943 0.391t-0.391 0.943 0.391 0.943 0.943 0.391h1.333v-1.333q0-0.552-0.391-0.943t-0.943-0.391zM9.333 9.333v-2.667h-2.667v2.667h2.667zM12 10.667h-1.333v1.333q0 0.552 0.391 0.943t0.943 0.391 0.943-0.391 0.391-0.943-0.391-0.943-0.943-0.391zM12 2.667q-0.552 0-0.943 0.391t-0.391 0.943v1.333h1.333q0.552 0 0.943-0.391t0.391-0.943-0.391-0.943-0.943-0.391z"></path>
</svg>
