<?xml version="1.0" encoding="utf-8"?>
<!-- Generated by IcoMoon.io -->
<!DOCTYPE svg PUBLIC "-//W3C//DTD SVG 1.1//EN" "http://www.w3.org/Graphics/SVG/1.1/DTD/svg11.dtd">
<svg version="1.1" xmlns="http://www.w3.org/2000/svg" xmlns:xlink="http://www.w3.org/1999/xlink" width="16" height="16" viewBox="0 0 16 16">
<path d="M5.333 2h8.667q0.828 0 1.414 0.586t0.586 1.414v8q0 0.828-0.586 1.414t-1.414 0.586h-8.667l-5.333-6zM14 3.333h-8.068l-4.146 4.667 4.146 4.667h8.068q0.276 0 0.471-0.195t0.195-0.471v-8q0-0.276-0.195-0.471t-0.471-0.195zM12.667 6q0 0.281-0.193 0.474l-1.531 1.526 1.531 1.526q0.193 0.193 0.193 0.474 0 0.286-0.19 0.477t-0.477 0.19q-0.281 0-0.474-0.193l-1.526-1.531-1.526 1.531q-0.193 0.193-0.474 0.193-0.276 0-0.471-0.195t-0.195-0.471q0-0.271 0.193-0.474l1.531-1.526-1.531-1.526q-0.193-0.203-0.193-0.474 0-0.276 0.195-0.471t0.471-0.195q0.281 0 0.474 0.193l1.526 1.531 1.526-1.531q0.193-0.193 0.474-0.193 0.286 0 0.477 0.19t0.19 0.477z"></path>
</svg>
