<?xml version="1.0" encoding="utf-8"?>
<!-- Generated by IcoMoon.io -->
<!DOCTYPE svg PUBLIC "-//W3C//DTD SVG 1.1//EN" "http://www.w3.org/Graphics/SVG/1.1/DTD/svg11.dtd">
<svg version="1.1" xmlns="http://www.w3.org/2000/svg" xmlns:xlink="http://www.w3.org/1999/xlink" width="16" height="16" viewBox="0 0 16 16">
<path d="M8 0.667q1.495 0 2.852 0.581t2.339 1.563 1.563 2.339 0.581 2.852-0.581 2.852-1.563 2.339-2.339 1.563-2.852 0.581-2.852-0.581-2.339-1.563-1.563-2.339-0.581-2.852 0.581-2.852 1.563-2.339 2.339-1.563 2.852-0.581zM8 2q-1.219 0-2.331 0.477t-1.914 1.279-1.279 1.914-0.477 2.331 0.477 2.331 1.279 1.914 1.914 1.279 2.331 0.477 2.331-0.477 1.914-1.279 1.279-1.914 0.477-2.331-0.477-2.331-1.279-1.914-1.914-1.279-2.331-0.477zM8 5.333q1.104 0 1.885 0.781t0.781 1.885-0.781 1.885-1.885 0.781-1.885-0.781-0.781-1.885 0.781-1.885 1.885-0.781zM8 6.667q-0.552 0-0.943 0.391t-0.391 0.943 0.391 0.943 0.943 0.391 0.943-0.391 0.391-0.943-0.391-0.943-0.943-0.391z"></path>
</svg>
