<?xml version="1.0" encoding="utf-8"?>
<!-- Generated by IcoMoon.io -->
<!DOCTYPE svg PUBLIC "-//W3C//DTD SVG 1.1//EN" "http://www.w3.org/Graphics/SVG/1.1/DTD/svg11.dtd">
<svg version="1.1" xmlns="http://www.w3.org/2000/svg" xmlns:xlink="http://www.w3.org/1999/xlink" width="16" height="16" viewBox="0 0 16 16">
<path d="M3.755 5.089l4.245-4.245 4.245 4.245q0.865 0.865 1.31 1.969t0.445 2.276q0 1.177-0.445 2.276t-1.31 1.964-1.969 1.313-2.276 0.448-2.276-0.448-1.969-1.313q-0.859-0.865-1.307-1.966t-0.448-2.273 0.448-2.276 1.307-1.969zM11.302 6.031l-3.302-3.302-3.302 3.302q-0.667 0.672-1.016 1.531t-0.349 1.771 0.346 1.768 1.018 1.529 1.531 1.021 1.771 0.349q0.917 0 1.773-0.349t1.529-1.021 1.018-1.526 0.346-1.771q0-0.911-0.346-1.771t-1.018-1.531z"></path>
</svg>
