<?xml version="1.0" encoding="utf-8"?>
<!-- Generated by IcoMoon.io -->
<!DOCTYPE svg PUBLIC "-//W3C//DTD SVG 1.1//EN" "http://www.w3.org/Graphics/SVG/1.1/DTD/svg11.dtd">
<svg version="1.1" xmlns="http://www.w3.org/2000/svg" xmlns:xlink="http://www.w3.org/1999/xlink" width="16" height="16" viewBox="0 0 16 16">
<path d="M13.333 6q0.828 0 1.414 0.586t0.586 1.414-0.586 1.414-1.414 0.586-1.414-0.586-0.586-1.414 0.586-1.414 1.414-0.586zM2.667 6q0.828 0 1.414 0.586t0.586 1.414-0.586 1.414-1.414 0.586-1.414-0.586-0.586-1.414 0.586-1.414 1.414-0.586zM2.667 7.333q-0.276 0-0.471 0.195t-0.195 0.471 0.195 0.471 0.471 0.195 0.471-0.195 0.195-0.471-0.195-0.471-0.471-0.195zM8 6q0.828 0 1.414 0.586t0.586 1.414-0.586 1.414-1.414 0.586-1.414-0.586-0.586-1.414 0.586-1.414 1.414-0.586zM8 7.333q-0.276 0-0.471 0.195t-0.195 0.471 0.195 0.471 0.471 0.195 0.471-0.195 0.195-0.471-0.195-0.471-0.471-0.195zM13.333 7.333q-0.276 0-0.471 0.195t-0.195 0.471 0.195 0.471 0.471 0.195 0.471-0.195 0.195-0.471-0.195-0.471-0.471-0.195z"></path>
</svg>
