<?xml version="1.0" encoding="utf-8"?>
<!-- Generated by IcoMoon.io -->
<!DOCTYPE svg PUBLIC "-//W3C//DTD SVG 1.1//EN" "http://www.w3.org/Graphics/SVG/1.1/DTD/svg11.dtd">
<svg version="1.1" xmlns="http://www.w3.org/2000/svg" xmlns:xlink="http://www.w3.org/1999/xlink" width="16" height="16" viewBox="0 0 16 16">
<path d="M8.734 0.703q1.349 0.135 2.56 0.745t2.128 1.615q0.901 0.99 1.401 2.245 0.51 1.297 0.51 2.693 0 1.495-0.578 2.854-0.536 1.286-1.568 2.333-1.047 1.031-2.333 1.568-1.359 0.578-2.854 0.578-1.396 0-2.693-0.51-1.255-0.5-2.245-1.401-1.005-0.917-1.615-2.128t-0.745-2.56q-0.026-0.297 0.169-0.516t0.497-0.219q0.255 0 0.445 0.172t0.216 0.427q0.109 1.109 0.607 2.099t1.326 1.74q0.807 0.745 1.833 1.146 1.063 0.417 2.203 0.417 1.224 0 2.333-0.469 1.052-0.443 1.911-1.286 0.844-0.859 1.286-1.911 0.469-1.109 0.469-2.333 0-1.141-0.417-2.203-0.401-1.026-1.146-1.833-0.75-0.828-1.74-1.326t-2.099-0.607q-0.255-0.026-0.427-0.216t-0.172-0.445q0-0.198 0.076-0.339t0.201-0.208 0.237-0.094 0.221-0.026zM1.333 0.667h4q0.276 0 0.471 0.195t0.195 0.471-0.195 0.471-0.471 0.195h-2.391l5.531 5.531q0.193 0.188 0.193 0.469 0 0.286-0.19 0.477t-0.477 0.19q-0.281 0-0.474-0.193l-5.526-5.531v2.391q0 0.276-0.195 0.471t-0.471 0.195-0.471-0.195-0.195-0.471v-4q0-0.276 0.195-0.471t0.471-0.195z"></path>
</svg>
