<?xml version="1.0" encoding="utf-8"?>
<!-- Generated by IcoMoon.io -->
<!DOCTYPE svg PUBLIC "-//W3C//DTD SVG 1.1//EN" "http://www.w3.org/Graphics/SVG/1.1/DTD/svg11.dtd">
<svg version="1.1" xmlns="http://www.w3.org/2000/svg" xmlns:xlink="http://www.w3.org/1999/xlink" width="16" height="16" viewBox="0 0 16 16">
<path d="M8 2q1.089 0 2.117 0.331t1.805 0.859 1.461 1.169 1.151 1.281 0.807 1.169 0.503 0.857l0.156 0.333q-0.036 0.078-0.099 0.211t-0.294 0.542-0.495 0.807-0.693 0.938-0.888 1.005-1.086 0.94-1.286 0.805-1.482 0.542-1.677 0.211q-1.089 0-2.117-0.331t-1.805-0.857-1.461-1.161-1.151-1.273-0.807-1.164-0.503-0.859l-0.156-0.328q0.036-0.078 0.099-0.211t0.294-0.544 0.495-0.81 0.693-0.943 0.888-1.010 1.086-0.943 1.286-0.81 1.482-0.544 1.677-0.211zM8 3.333q-0.729 0-1.432 0.193t-1.268 0.497-1.104 0.737-0.932 0.852-0.763 0.901-0.589 0.826-0.411 0.688q0.193 0.339 0.411 0.68t0.589 0.818 0.763 0.891 0.932 0.841 1.104 0.729 1.268 0.492 1.432 0.19 1.432-0.193 1.268-0.495 1.104-0.732 0.932-0.846 0.763-0.896 0.589-0.823 0.411-0.682q-0.193-0.339-0.411-0.682t-0.589-0.823-0.763-0.896-0.932-0.846-1.104-0.732-1.268-0.495-1.432-0.193zM8 5.333q1.104 0 1.885 0.781t0.781 1.885-0.781 1.885-1.885 0.781-1.885-0.781-0.781-1.885 0.781-1.885 1.885-0.781zM8 6.667q-0.552 0-0.943 0.391t-0.391 0.943 0.391 0.943 0.943 0.391 0.943-0.391 0.391-0.943-0.391-0.943-0.943-0.391z"></path>
</svg>
