<?xml version="1.0" encoding="utf-8"?>
<!-- Generated by IcoMoon.io -->
<!DOCTYPE svg PUBLIC "-//W3C//DTD SVG 1.1//EN" "http://www.w3.org/Graphics/SVG/1.1/DTD/svg11.dtd">
<svg version="1.1" xmlns="http://www.w3.org/2000/svg" xmlns:xlink="http://www.w3.org/1999/xlink" width="16" height="16" viewBox="0 0 16 16">
<path d="M3.333 0h6.667l4.667 4.667v9.333q0 0.828-0.586 1.414t-1.414 0.586h-9.333q-0.828 0-1.414-0.586t-0.586-1.414v-12q0-0.828 0.586-1.414t1.414-0.586zM8.667 6v-4.667h-5.333q-0.281 0-0.474 0.193t-0.193 0.474v12q0 0.281 0.193 0.474t0.474 0.193h9.333q0.281 0 0.474-0.193t0.193-0.474v-8h-4.667zM12.781 4.667l-2.781-2.781v2.781h2.781z"></path>
</svg>
