<?xml version="1.0" encoding="utf-8"?>
<!-- Generated by IcoMoon.io -->
<!DOCTYPE svg PUBLIC "-//W3C//DTD SVG 1.1//EN" "http://www.w3.org/Graphics/SVG/1.1/DTD/svg11.dtd">
<svg version="1.1" xmlns="http://www.w3.org/2000/svg" xmlns:xlink="http://www.w3.org/1999/xlink" width="16" height="16" viewBox="0 0 16 16">
<path d="M4.667 0.667q0.552 0 1.188 0.138t1.224 0.333l1.177 0.391t1.224 0.333 1.188 0.138q0.563 0 1.109-0.068t0.932-0.167 0.69-0.198 0.456-0.167l0.146-0.068v9.333q-0.052 0.026-0.156 0.070t-0.44 0.161-0.701 0.203-0.919 0.159-1.117 0.073q-0.552 0-1.188-0.138t-1.224-0.333l-1.177-0.391t-1.224-0.333-1.188-0.138q-0.995 0-2 0.224v4.443q0 0.276-0.195 0.471t-0.471 0.195-0.471-0.195-0.195-0.471v-13.333q0.052-0.026 0.156-0.070t0.44-0.161 0.701-0.203 0.919-0.159 1.117-0.073zM4.667 2q-1.021 0-2 0.266v6.599q1-0.198 2-0.198 0.74 0 1.479 0.169t1.682 0.482q0.12 0.042 0.451 0.154t0.484 0.161 0.451 0.135 0.497 0.125 0.461 0.073 0.495 0.034q1.021 0 2-0.266v-6.599q-1 0.198-2 0.198-0.74 0-1.479-0.169t-1.682-0.482q-0.12-0.042-0.451-0.154t-0.484-0.161-0.451-0.135-0.497-0.125-0.461-0.073-0.495-0.034z"></path>
</svg>
