<?xml version="1.0" encoding="utf-8"?>
<!-- Generated by IcoMoon.io -->
<!DOCTYPE svg PUBLIC "-//W3C//DTD SVG 1.1//EN" "http://www.w3.org/Graphics/SVG/1.1/DTD/svg11.dtd">
<svg version="1.1" xmlns="http://www.w3.org/2000/svg" xmlns:xlink="http://www.w3.org/1999/xlink" width="16" height="16" viewBox="0 0 16 16">
<path d="M2.667 1.333h3.333l1.333 2h6q0.828 0 1.414 0.586t0.586 1.414v7.333q0 0.828-0.586 1.414t-1.414 0.586h-10.667q-0.828 0-1.414-0.586t-0.586-1.414v-9.333q0-0.828 0.586-1.414t1.414-0.586zM6.62 4.667l-1.286-2h-2.667q-0.276 0-0.471 0.195t-0.195 0.471v9.333q0 0.276 0.195 0.471t0.471 0.195h10.667q0.276 0 0.471-0.195t0.195-0.471v-7.333q0-0.276-0.195-0.471t-0.471-0.195h-6.714z"></path>
</svg>
