<?xml version="1.0" encoding="utf-8"?>
<!-- Generated by IcoMoon.io -->
<!DOCTYPE svg PUBLIC "-//W3C//DTD SVG 1.1//EN" "http://www.w3.org/Graphics/SVG/1.1/DTD/svg11.dtd">
<svg version="1.1" xmlns="http://www.w3.org/2000/svg" xmlns:xlink="http://www.w3.org/1999/xlink" width="16" height="16" viewBox="0 0 16 16">
<path d="M8 0q1.089 0 2.008 0.536t1.456 1.456 0.536 2.008v2q0 0.833-0.323 1.578t-0.901 1.297q1.521 0.24 2.703 0.706t1.852 1.102 0.669 1.339v1.313q0 0.828-0.586 1.414t-1.414 0.586h-12q-0.828 0-1.414-0.586t-0.586-1.414v-1.318q0-0.703 0.669-1.339t1.849-1.102 2.701-0.701q-0.573-0.557-0.896-1.299t-0.323-1.576v-2q0-1.089 0.536-2.008t1.456-1.456 2.008-0.536zM8 10q-1.448 0-2.794 0.232t-2.346 0.648q-0.401 0.167-0.716 0.354t-0.479 0.339-0.247 0.263-0.083 0.18v1.318q0 0.276 0.195 0.471t0.471 0.195h12q0.276 0 0.471-0.195t0.195-0.471v-1.313q0-0.068-0.083-0.18t-0.247-0.263-0.479-0.339-0.716-0.359q-1-0.417-2.346-0.648t-2.794-0.232zM8 1.333q-1.104 0-1.885 0.781t-0.781 1.885v2q0 1.104 0.781 1.885t1.885 0.781 1.885-0.781 0.781-1.885v-2q0-1.104-0.781-1.885t-1.885-0.781z"></path>
</svg>
