<?xml version="1.0" encoding="utf-8"?>
<!-- Generated by IcoMoon.io -->
<!DOCTYPE svg PUBLIC "-//W3C//DTD SVG 1.1//EN" "http://www.w3.org/Graphics/SVG/1.1/DTD/svg11.dtd">
<svg version="1.1" xmlns="http://www.w3.org/2000/svg" xmlns:xlink="http://www.w3.org/1999/xlink" width="16" height="16" viewBox="0 0 16 16">
<path d="M11.771 1.333q1.089 0 2.008 0.536t1.456 1.456 0.536 2.008q0 0.781-0.299 1.518t-0.872 1.31l-6.599 6.599-6.599-6.599q-0.573-0.573-0.872-1.31t-0.299-1.518q0-1.089 0.536-2.008t1.456-1.456 2.008-0.536q0.786 0 1.518 0.297t1.31 0.875l0.943 0.943 0.943-0.943q0.573-0.573 1.31-0.872t1.518-0.299zM11.771 2.667q-0.521 0-1.010 0.198t-0.875 0.583l-1.885 1.885-1.885-1.885q-0.385-0.385-0.875-0.583t-1.010-0.198q-0.729 0-1.341 0.357t-0.969 0.969-0.357 1.341q0 0.521 0.198 1.010t0.583 0.875l5.656 5.656 5.656-5.656q0.385-0.385 0.583-0.875t0.198-1.010q0-0.729-0.357-1.341t-0.969-0.969-1.341-0.357z"></path>
</svg>
