<?xml version="1.0" encoding="utf-8"?>
<!-- Generated by IcoMoon.io -->
<!DOCTYPE svg PUBLIC "-//W3C//DTD SVG 1.1//EN" "http://www.w3.org/Graphics/SVG/1.1/DTD/svg11.dtd">
<svg version="1.1" xmlns="http://www.w3.org/2000/svg" xmlns:xlink="http://www.w3.org/1999/xlink" width="16" height="16" viewBox="0 0 16 16">
<path d="M8 0.667q1.438 0 2.786 0.547t2.401 1.599 1.599 2.401 0.547 2.786-0.547 2.786-1.599 2.401-2.401 1.599-2.786 0.547-2.786-0.547-2.401-1.599-1.599-2.401-0.547-2.786 0.547-2.786 1.599-2.401 2.401-1.599 2.786-0.547zM5.219 6.161l-1.906-1.906q-0.646 0.807-0.979 1.771t-0.333 1.974 0.333 1.974 0.979 1.771l1.906-1.906q-0.552-0.833-0.552-1.839t0.552-1.839zM11.745 12.688l-1.906-1.906q-0.833 0.552-1.839 0.552t-1.839-0.552l-1.906 1.906q0.807 0.646 1.771 0.979t1.974 0.333 1.974-0.333 1.771-0.979zM8 6q-0.828 0-1.414 0.586t-0.586 1.414 0.586 1.414 1.414 0.586 1.414-0.586 0.586-1.414-0.586-1.414-1.414-0.586zM8 2q-1.010 0-1.974 0.333t-1.771 0.979l1.906 1.906q0.833-0.552 1.839-0.552t1.839 0.552l1.906-1.906q-0.807-0.646-1.771-0.979t-1.974-0.333zM12.688 4.255l-1.906 1.906q0.552 0.833 0.552 1.839t-0.552 1.839l1.906 1.906q0.646-0.807 0.979-1.771t0.333-1.974-0.333-1.974-0.979-1.771z"></path>
</svg>
