<?xml version="1.0" encoding="utf-8"?>
<!-- Generated by IcoMoon.io -->
<!DOCTYPE svg PUBLIC "-//W3C//DTD SVG 1.1//EN" "http://www.w3.org/Graphics/SVG/1.1/DTD/svg11.dtd">
<svg version="1.1" xmlns="http://www.w3.org/2000/svg" xmlns:xlink="http://www.w3.org/1999/xlink" width="16" height="16" viewBox="0 0 16 16">
<path d="M2.667 0.667h10.667q0.828 0 1.414 0.586t0.586 1.414v10.667q0 0.828-0.586 1.414t-1.414 0.586h-10.667q-0.828 0-1.414-0.586t-0.586-1.414v-10.667q0-0.828 0.586-1.414t1.414-0.586zM14 11.609l-3.333-3.333-5.724 5.724h8.391q0.276 0 0.471-0.195t0.195-0.471v-1.724zM13.333 2h-10.667q-0.276 0-0.471 0.195t-0.195 0.471v10.667q0 0.276 0.195 0.471t0.471 0.195h0.391l7.609-7.609 3.333 3.333v-7.057q0-0.276-0.195-0.471t-0.471-0.195zM5.333 3.333q0.828 0 1.414 0.586t0.586 1.414-0.586 1.414-1.414 0.586-1.414-0.586-0.586-1.414 0.586-1.414 1.414-0.586zM5.333 4.667q-0.276 0-0.471 0.195t-0.195 0.471 0.195 0.471 0.471 0.195 0.471-0.195 0.195-0.471-0.195-0.471-0.471-0.195z"></path>
</svg>
