<?xml version="1.0" encoding="utf-8"?>
<!-- Generated by IcoMoon.io -->
<!DOCTYPE svg PUBLIC "-//W3C//DTD SVG 1.1//EN" "http://www.w3.org/Graphics/SVG/1.1/DTD/svg11.dtd">
<svg version="1.1" xmlns="http://www.w3.org/2000/svg" xmlns:xlink="http://www.w3.org/1999/xlink" width="16" height="16" viewBox="0 0 16 16">
<path d="M11.333 0.667q0.786 0 1.518 0.297t1.31 0.875 0.875 1.31 0.297 1.518q0 0.781-0.299 1.518t-0.872 1.31l-2 2q-0.057 0.057-0.172 0.161-0.557 0.495-1.245 0.753t-1.411 0.258q-0.911 0-1.724-0.391-0.609-0.286-1.104-0.781t-0.781-1.104q0.391-0.391 0.943-0.391 0.193 0 0.391 0.057 0.339 0.547 0.885 0.885 0.641 0.391 1.391 0.391 0.521 0 1.010-0.198t0.875-0.583l2-2q0.385-0.385 0.583-0.875t0.198-1.010-0.198-1.010-0.583-0.875-0.875-0.583-1.010-0.198-1.010 0.198-0.875 0.583l-1.401 1.401q-0.667-0.182-1.38-0.182-0.115 0-0.323 0.010 0.104-0.115 0.161-0.172l2-2q0.573-0.573 1.31-0.872t1.518-0.299zM6.667 5.333q0.911 0 1.724 0.391 0.609 0.286 1.104 0.781t0.781 1.104q-0.391 0.391-0.943 0.391-0.193 0-0.391-0.057-0.339-0.547-0.885-0.885-0.641-0.391-1.391-0.391-0.521 0-1.010 0.198t-0.875 0.583l-2 2q-0.385 0.385-0.583 0.875t-0.198 1.010 0.198 1.010 0.583 0.875 0.875 0.583 1.010 0.198 1.010-0.198 0.875-0.583l1.401-1.401q0.667 0.182 1.38 0.182 0.115 0 0.323-0.010-0.104 0.115-0.161 0.172l-2 2q-0.578 0.578-1.31 0.875t-1.518 0.297q-0.781 0-1.518-0.299t-1.31-0.872q-0.578-0.578-0.875-1.31t-0.297-1.518 0.297-1.518 0.875-1.31l2-2q0.057-0.057 0.172-0.161 0.557-0.495 1.245-0.753t1.411-0.258z"></path>
</svg>
