<?xml version="1.0" encoding="utf-8"?>
<!-- Generated by IcoMoon.io -->
<!DOCTYPE svg PUBLIC "-//W3C//DTD SVG 1.1//EN" "http://www.w3.org/Graphics/SVG/1.1/DTD/svg11.dtd">
<svg version="1.1" xmlns="http://www.w3.org/2000/svg" xmlns:xlink="http://www.w3.org/1999/xlink" width="16" height="16" viewBox="0 0 16 16">
<path d="M10.833 10.161q0.271 0 0.469 0.198l1.885 1.885q0.198 0.198 0.198 0.474 0 0.271-0.198 0.469t-0.469 0.198q-0.276 0-0.474-0.198l-1.885-1.885q-0.193-0.193-0.193-0.474 0-0.276 0.195-0.471t0.471-0.195zM5.172 10.161q0.276 0 0.471 0.195t0.195 0.471-0.198 0.474l-1.885 1.885q-0.198 0.198-0.469 0.198-0.276 0-0.471-0.195t-0.195-0.471q0-0.281 0.193-0.474l1.885-1.885q0.198-0.198 0.474-0.198zM1.333 7.333h2.667q0.276 0 0.471 0.195t0.195 0.471-0.195 0.471-0.471 0.195h-2.667q-0.276 0-0.471-0.195t-0.195-0.471 0.195-0.471 0.471-0.195zM8 11.333q0.276 0 0.471 0.195t0.195 0.471v2.667q0 0.276-0.195 0.471t-0.471 0.195-0.471-0.195-0.195-0.471v-2.667q0-0.276 0.195-0.471t0.471-0.195zM3.286 2.615q0.271 0 0.469 0.198l1.885 1.885q0.198 0.198 0.198 0.469 0 0.276-0.195 0.471t-0.471 0.195q-0.281 0-0.474-0.193l-1.885-1.885q-0.193-0.193-0.193-0.474 0-0.276 0.195-0.471t0.471-0.195zM12 7.333h2.667q0.276 0 0.471 0.195t0.195 0.471-0.195 0.471-0.471 0.195h-2.667q-0.276 0-0.471-0.195t-0.195-0.471 0.195-0.471 0.471-0.195zM8 0.667q0.276 0 0.471 0.195t0.195 0.471v2.667q0 0.276-0.195 0.471t-0.471 0.195-0.471-0.195-0.195-0.471v-2.667q0-0.276 0.195-0.471t0.471-0.195zM12.719 2.615q0.271 0 0.469 0.198t0.198 0.469q0 0.276-0.198 0.474l-1.885 1.885q-0.193 0.193-0.469 0.193-0.286 0-0.477-0.19t-0.19-0.477q0-0.276 0.193-0.469l1.885-1.885q0.198-0.198 0.474-0.198z"></path>
</svg>
