<?xml version="1.0" encoding="utf-8"?>
<!-- Generated by IcoMoon.io -->
<!DOCTYPE svg PUBLIC "-//W3C//DTD SVG 1.1//EN" "http://www.w3.org/Graphics/SVG/1.1/DTD/svg11.dtd">
<svg version="1.1" xmlns="http://www.w3.org/2000/svg" xmlns:xlink="http://www.w3.org/1999/xlink" width="16" height="16" viewBox="0 0 16 16">
<path d="M8 0.667q1.495 0 2.852 0.581t2.339 1.563 1.563 2.339 0.581 2.852-0.581 2.852-1.563 2.339-2.339 1.563-2.852 0.581-2.852-0.581-2.339-1.563-1.563-2.339-0.581-2.852 0.581-2.852 1.563-2.339 2.339-1.563 2.852-0.581zM8.667 2.036v1.964q0 0.276-0.195 0.471t-0.471 0.195-0.471-0.195-0.195-0.471v-1.964q-1.031 0.115-1.956 0.568t-1.622 1.151-1.151 1.622-0.568 1.956h1.964q0.276 0 0.471 0.195t0.195 0.471-0.195 0.471-0.471 0.195h-1.964q0.115 1.031 0.568 1.956t1.151 1.622 1.622 1.151 1.956 0.568v-1.964q0-0.276 0.195-0.471t0.471-0.195 0.471 0.195 0.195 0.471v1.964q1.031-0.115 1.956-0.568t1.622-1.151 1.151-1.622 0.568-1.956h-1.964q-0.276 0-0.471-0.195t-0.195-0.471 0.195-0.471 0.471-0.195h1.964q-0.115-1.031-0.568-1.956t-1.151-1.622-1.622-1.151-1.956-0.568z"></path>
</svg>
