<?xml version="1.0" encoding="utf-8"?>
<!-- Generated by IcoMoon.io -->
<!DOCTYPE svg PUBLIC "-//W3C//DTD SVG 1.1//EN" "http://www.w3.org/Graphics/SVG/1.1/DTD/svg11.dtd">
<svg version="1.1" xmlns="http://www.w3.org/2000/svg" xmlns:xlink="http://www.w3.org/1999/xlink" width="16" height="16" viewBox="0 0 16 16">
<path d="M8 0.667q1.089 0 2.008 0.536t1.456 1.456 0.536 2.008v2.667h1.333q0.828 0 1.414 0.586t0.586 1.414v4q0 0.828-0.586 1.414t-1.414 0.586h-10.667q-0.828 0-1.414-0.586t-0.586-1.414v-4q0-0.828 0.586-1.414t1.414-0.586h1.333v-2.667q0-1.089 0.536-2.008t1.456-1.456 2.008-0.536zM13.333 8.667h-10.667q-0.276 0-0.471 0.195t-0.195 0.471v4q0 0.276 0.195 0.471t0.471 0.195h10.667q0.276 0 0.471-0.195t0.195-0.471v-4q0-0.276-0.195-0.471t-0.471-0.195zM8 2q-1.104 0-1.885 0.781t-0.781 1.885v2.667h5.333v-2.667q0-1.104-0.781-1.885t-1.885-0.781z"></path>
</svg>
