<?xml version="1.0" encoding="utf-8"?>
<!-- Generated by IcoMoon.io -->
<!DOCTYPE svg PUBLIC "-//W3C//DTD SVG 1.1//EN" "http://www.w3.org/Graphics/SVG/1.1/DTD/svg11.dtd">
<svg version="1.1" xmlns="http://www.w3.org/2000/svg" xmlns:xlink="http://www.w3.org/1999/xlink" width="16" height="16" viewBox="0 0 16 16">
<path d="M2.667 2h10.667q0.828 0 1.414 0.586t0.586 1.414v8q0 0.828-0.586 1.414t-1.414 0.586h-10.667q-0.828 0-1.414-0.586t-0.586-1.414v-8q0-0.828 0.586-1.414t1.414-0.586zM14 12v-7.281l-5.583 4.469q-0.177 0.146-0.417 0.146t-0.417-0.146l-5.583-4.469v7.281q0 0.276 0.195 0.471t0.471 0.195h10.667q0.276 0 0.471-0.195t0.195-0.471zM13.333 3.333h-10.667q-0.099 0-0.219 0.036l5.552 4.443 5.552-4.443q-0.12-0.036-0.219-0.036z"></path>
</svg>
