<?xml version="1.0" encoding="utf-8"?>
<!-- Generated by IcoMoon.io -->
<!DOCTYPE svg PUBLIC "-//W3C//DTD SVG 1.1//EN" "http://www.w3.org/Graphics/SVG/1.1/DTD/svg11.dtd">
<svg version="1.1" xmlns="http://www.w3.org/2000/svg" xmlns:xlink="http://www.w3.org/1999/xlink" width="16" height="16" viewBox="0 0 16 16">
<path d="M12.667 6q0.276 0 0.471 0.195t0.195 0.471v1.333q0 1-0.362 1.924t-0.984 1.62-1.484 1.161-1.836 0.586v1.375h2q0.276 0 0.471 0.195t0.195 0.471-0.195 0.471-0.471 0.195h-5.333q-0.276 0-0.471-0.195t-0.195-0.471 0.195-0.471 0.471-0.195h2v-1.375q-0.974-0.12-1.836-0.586t-1.484-1.161-0.984-1.62-0.362-1.924v-1.333q0-0.276 0.195-0.471t0.471-0.195 0.471 0.195 0.195 0.471v1.333q0 1.089 0.536 2.008t1.456 1.456 2.008 0.536 2.008-0.536 1.456-1.456 0.536-2.008v-1.333q0-0.276 0.195-0.471t0.471-0.195zM8 0q1.104 0 1.885 0.781t0.781 1.885v5.333q0 1.104-0.781 1.885t-1.885 0.781-1.885-0.781-0.781-1.885v-5.333q0-1.104 0.781-1.885t1.885-0.781zM8 1.333q-0.552 0-0.943 0.391t-0.391 0.943v5.333q0 0.552 0.391 0.943t0.943 0.391 0.943-0.391 0.391-0.943v-5.333q0-0.552-0.391-0.943t-0.943-0.391z"></path>
</svg>
