<?xml version="1.0" encoding="utf-8"?>
<!-- Generated by IcoMoon.io -->
<!DOCTYPE svg PUBLIC "-//W3C//DTD SVG 1.1//EN" "http://www.w3.org/Graphics/SVG/1.1/DTD/svg11.dtd">
<svg version="1.1" xmlns="http://www.w3.org/2000/svg" xmlns:xlink="http://www.w3.org/1999/xlink" width="16" height="16" viewBox="0 0 16 16">
<path d="M1.333 0.667q0.281 0 0.474 0.193l4.193 4.193v-3.057q0-0.276 0.195-0.471t0.471-0.195 0.471 0.195 0.195 0.471v4.667q0 0.276-0.198 0.474t-0.474 0.198h-4.667q-0.276 0-0.471-0.195t-0.195-0.471 0.195-0.471 0.471-0.195h3.057l-4.193-4.193q-0.193-0.193-0.193-0.474 0-0.286 0.19-0.477t0.477-0.19zM9.339 8.667h4.667q0.276 0 0.471 0.195t0.195 0.471-0.195 0.471-0.471 0.195h-3.057l4.188 4.193q0.198 0.198 0.198 0.474t-0.195 0.471-0.471 0.195q-0.281 0-0.474-0.193l-4.193-4.193v3.057q0 0.276-0.195 0.471t-0.471 0.195-0.471-0.195-0.195-0.471v-4.667q0-0.276 0.198-0.474t0.474-0.198z"></path>
</svg>
