<?xml version="1.0" encoding="utf-8"?>
<!-- Generated by IcoMoon.io -->
<!DOCTYPE svg PUBLIC "-//W3C//DTD SVG 1.1//EN" "http://www.w3.org/Graphics/SVG/1.1/DTD/svg11.dtd">
<svg version="1.1" xmlns="http://www.w3.org/2000/svg" xmlns:xlink="http://www.w3.org/1999/xlink" width="16" height="16" viewBox="0 0 16 16">
<path d="M8 1.333q0.224 0 0.443 0.016-0.443 0.953-0.443 1.984 0 0.948 0.37 1.812t0.995 1.49 1.49 0.995 1.813 0.37q1.031 0 1.984-0.443 0.016 0.219 0.016 0.443 0 0.906-0.24 1.771t-0.669 1.596-1.044 1.346-1.346 1.044-1.596 0.669-1.771 0.24-1.771-0.24-1.596-0.669-1.346-1.044-1.044-1.346-0.669-1.596-0.24-1.771 0.24-1.771 0.669-1.596 1.044-1.346 1.346-1.044 1.596-0.669 1.771-0.24zM6.688 2.828q-0.859 0.219-1.602 0.708t-1.276 1.161-0.839 1.529-0.305 1.773q0 1.083 0.422 2.070t1.138 1.703 1.703 1.138 2.070 0.422q0.917 0 1.773-0.305t1.529-0.839 1.161-1.276 0.708-1.602q-0.224 0.021-0.505 0.021-1.219 0-2.328-0.477t-1.914-1.281-1.281-1.914-0.477-2.328q0-0.281 0.021-0.505z"></path>
</svg>
