<?xml version="1.0" encoding="utf-8"?>
<!-- Generated by IcoMoon.io -->
<!DOCTYPE svg PUBLIC "-//W3C//DTD SVG 1.1//EN" "http://www.w3.org/Graphics/SVG/1.1/DTD/svg11.dtd">
<svg version="1.1" xmlns="http://www.w3.org/2000/svg" xmlns:xlink="http://www.w3.org/1999/xlink" width="16" height="16" viewBox="0 0 16 16">
<path d="M8 0q0.281 0 0.474 0.193l2.354 2.359q0.198 0.198 0.198 0.474t-0.195 0.471-0.471 0.195-0.474-0.198l-1.219-1.219v5.057h5.057l-1.219-1.219q-0.198-0.198-0.198-0.474t0.195-0.471 0.471-0.195 0.474 0.198l2.359 2.354q0.193 0.193 0.193 0.474t-0.193 0.469l-2.359 2.359q-0.198 0.198-0.474 0.198t-0.471-0.195-0.195-0.471 0.198-0.474l1.219-1.219h-5.057v5.057l1.219-1.219q0.198-0.198 0.474-0.198t0.471 0.195 0.195 0.471-0.198 0.474l-2.354 2.359q-0.193 0.193-0.474 0.193-0.276 0-0.469-0.193l-2.359-2.359q-0.198-0.198-0.198-0.474t0.195-0.471 0.471-0.195 0.474 0.198l1.219 1.219v-5.057h-5.057l1.219 1.219q0.198 0.198 0.198 0.474t-0.195 0.471-0.471 0.195-0.474-0.198l-2.359-2.354q-0.193-0.193-0.193-0.474t0.193-0.474l2.359-2.354q0.198-0.198 0.474-0.198t0.471 0.195 0.195 0.471-0.198 0.474l-1.219 1.219h5.057v-5.057l-1.219 1.219q-0.198 0.198-0.474 0.198t-0.471-0.195-0.195-0.471 0.198-0.474l2.354-2.359q0.193-0.193 0.474-0.193z"></path>
</svg>
