<?xml version="1.0" encoding="utf-8"?>
<!-- Generated by IcoMoon.io -->
<!DOCTYPE svg PUBLIC "-//W3C//DTD SVG 1.1//EN" "http://www.w3.org/Graphics/SVG/1.1/DTD/svg11.dtd">
<svg version="1.1" xmlns="http://www.w3.org/2000/svg" xmlns:xlink="http://www.w3.org/1999/xlink" width="16" height="16" viewBox="0 0 16 16">
<path d="M4 5.333l3.333-3.333v12l-3.333-3.333h-1.333q-0.828 0-1.414-0.586t-0.586-1.414v-1.307q0-0.828 0.586-1.427t1.414-0.599h1.333zM6 10.781v-5.589l-1.448 1.474h-1.885q-0.271 0-0.469 0.206t-0.198 0.487v1.307q0 0.276 0.195 0.471t0.471 0.195h1.885zM14 5.333q0.286 0 0.477 0.19t0.19 0.477q0 0.281-0.193 0.474l-1.531 1.526 1.531 1.526q0.193 0.193 0.193 0.474 0 0.286-0.19 0.477t-0.477 0.19q-0.281 0-0.474-0.193l-1.526-1.531-1.526 1.531q-0.193 0.193-0.474 0.193-0.286 0-0.477-0.19t-0.19-0.477q0-0.281 0.193-0.474l1.531-1.526-1.531-1.526q-0.193-0.193-0.193-0.474 0-0.286 0.19-0.477t0.477-0.19q0.281 0 0.474 0.193l1.526 1.531 1.526-1.531q0.193-0.193 0.474-0.193z"></path>
</svg>
