<?xml version="1.0" encoding="utf-8"?>
<!-- Generated by IcoMoon.io -->
<!DOCTYPE svg PUBLIC "-//W3C//DTD SVG 1.1//EN" "http://www.w3.org/Graphics/SVG/1.1/DTD/svg11.dtd">
<svg version="1.1" xmlns="http://www.w3.org/2000/svg" xmlns:xlink="http://www.w3.org/1999/xlink" width="16" height="16" viewBox="0 0 16 16">
<path d="M2.667 0.667h4.667q0.276 0 0.471 0.195t0.195 0.471-0.195 0.471-0.471 0.195h-4.667q-0.276 0-0.471 0.195t-0.195 0.471v10.667q0 0.276 0.195 0.471t0.471 0.195h10.667q0.276 0 0.471-0.195t0.195-0.471v-4.667q0-0.276 0.195-0.471t0.471-0.195 0.471 0.195 0.195 0.471v4.667q0 0.828-0.586 1.414t-1.414 0.586h-10.667q-0.828 0-1.414-0.586t-0.586-1.414v-10.667q0-0.828 0.586-1.414t1.414-0.586zM10.667 0.667h4q0.276 0 0.471 0.195t0.195 0.471v4q0 0.276-0.195 0.471t-0.471 0.195-0.471-0.195-0.195-0.471v-2.391l-5.531 5.531q-0.193 0.193-0.469 0.193-0.286 0-0.477-0.19t-0.19-0.477q0-0.276 0.193-0.469l5.531-5.531h-2.391q-0.276 0-0.471-0.195t-0.195-0.471 0.195-0.471 0.471-0.195z"></path>
</svg>
