<?xml version="1.0" encoding="utf-8"?>
<!-- Generated by IcoMoon.io -->
<!DOCTYPE svg PUBLIC "-//W3C//DTD SVG 1.1//EN" "http://www.w3.org/Graphics/SVG/1.1/DTD/svg11.dtd">
<svg version="1.1" xmlns="http://www.w3.org/2000/svg" xmlns:xlink="http://www.w3.org/1999/xlink" width="16" height="16" viewBox="0 0 16 16">
<path d="M8 0.698q0.281 0 0.474 0.193l3.333 3.333q0.193 0.193 0.193 0.474 0 0.286-0.19 0.477t-0.477 0.19q-0.281 0-0.474-0.193l-2.193-2.198v7.724q0 0.276-0.195 0.471t-0.471 0.195-0.471-0.195-0.195-0.471v-7.724l-2.193 2.198q-0.203 0.193-0.474 0.193-0.276 0-0.471-0.195t-0.195-0.471q0-0.271 0.193-0.474l3.333-3.333q0.193-0.193 0.474-0.193zM14.667 10.031q0.276 0 0.471 0.195t0.195 0.471v2.667q0 0.833-0.578 1.411-0.589 0.589-1.406 0.589h-10.682q-0.818 0-1.417-0.583-0.583-0.599-0.583-1.417v-2.667q0-0.276 0.195-0.471t0.471-0.195 0.471 0.195 0.195 0.471v2.667q0 0.276 0.195 0.471t0.471 0.195h10.682q0.271 0 0.461-0.195t0.19-0.471v-2.667q0-0.276 0.195-0.471t0.471-0.195z"></path>
</svg>
