<?xml version="1.0" encoding="utf-8"?>
<!-- Generated by IcoMoon.io -->
<!DOCTYPE svg PUBLIC "-//W3C//DTD SVG 1.1//EN" "http://www.w3.org/Graphics/SVG/1.1/DTD/svg11.dtd">
<svg version="1.1" xmlns="http://www.w3.org/2000/svg" xmlns:xlink="http://www.w3.org/1999/xlink" width="16" height="16" viewBox="0 0 16 16">
<path d="M10.531 0q0.651 0 1.25 0.245 0.625 0.25 1.104 0.729 0.484 0.49 0.729 1.099 0.24 0.589 0.24 1.25t-0.24 1.25q-0.245 0.609-0.729 1.099l-6.135 6.135q-0.281 0.281-0.667 0.443-0.375 0.146-0.75 0.146t-0.75-0.146q-0.385-0.161-0.667-0.443-0.292-0.292-0.438-0.661-0.146-0.354-0.146-0.75 0-0.401 0.146-0.755 0.146-0.365 0.438-0.661l5.661-5.656q0.198-0.198 0.474-0.198 0.271 0 0.469 0.198t0.198 0.469q0 0.276-0.198 0.474l-5.661 5.656q-0.193 0.193-0.193 0.474 0 0.276 0.193 0.469 0.208 0.198 0.474 0.198t0.474-0.198l6.135-6.135q0.578-0.578 0.578-1.406t-0.578-1.406q-0.594-0.583-1.411-0.583-0.823 0-1.406 0.583l-6.151 6.12q-0.479 0.479-0.729 1.104-0.245 0.599-0.245 1.255 0 0.646 0.245 1.255 0.25 0.62 0.729 1.099 0.495 0.49 1.104 0.734t1.255 0.245 1.255-0.245 1.104-0.734l6.125-6.125q0.198-0.198 0.474-0.198 0.271 0 0.469 0.198t0.198 0.469q0 0.276-0.198 0.474l-6.125 6.125q-0.672 0.672-1.547 1.026-0.833 0.344-1.755 0.344-0.917 0-1.755-0.344-0.875-0.354-1.547-1.026-0.667-0.667-1.021-1.542-0.344-0.844-0.344-1.755 0-0.917 0.344-1.755 0.349-0.865 1.021-1.547h0.005l6.146-6.12q0.479-0.479 1.099-0.729 0.609-0.245 1.25-0.245z"></path>
</svg>
