<?xml version="1.0" encoding="utf-8"?>
<!-- Generated by IcoMoon.io -->
<!DOCTYPE svg PUBLIC "-//W3C//DTD SVG 1.1//EN" "http://www.w3.org/Graphics/SVG/1.1/DTD/svg11.dtd">
<svg version="1.1" xmlns="http://www.w3.org/2000/svg" xmlns:xlink="http://www.w3.org/1999/xlink" width="16" height="16" viewBox="0 0 16 16">
<path d="M6.667 0.667h6q0.276 0 0.471 0.195t0.195 0.471v13.333q0 0.276-0.195 0.471t-0.471 0.195-0.471-0.195-0.195-0.471v-12.667h-1.333v12.667q0 0.276-0.195 0.471t-0.471 0.195-0.471-0.195-0.195-0.471v-6h-2.667q-1.089 0-2.008-0.536t-1.456-1.456-0.536-2.008 0.536-2.008 1.456-1.456 2.008-0.536zM9.333 7.333v-5.333h-2.667q-1.104 0-1.885 0.781t-0.781 1.885 0.781 1.885 1.885 0.781h2.667z"></path>
</svg>
