<?xml version="1.0" encoding="utf-8"?>
<!-- Generated by IcoMoon.io -->
<!DOCTYPE svg PUBLIC "-//W3C//DTD SVG 1.1//EN" "http://www.w3.org/Graphics/SVG/1.1/DTD/svg11.dtd">
<svg version="1.1" xmlns="http://www.w3.org/2000/svg" xmlns:xlink="http://www.w3.org/1999/xlink" width="16" height="16" viewBox="0 0 16 16">
<path d="M8 0.667q1.495 0 2.852 0.581t2.339 1.563 1.563 2.339 0.581 2.852-0.581 2.852-1.563 2.339-2.339 1.563-2.852 0.581-2.852-0.581-2.339-1.563-1.563-2.339-0.581-2.852 0.581-2.852 1.563-2.339 2.339-1.563 2.852-0.581zM7.333 8.667v-6.63q-1.109 0.125-2.096 0.643t-1.698 1.305-1.125 1.833-0.414 2.182q0 1.219 0.477 2.331t1.279 1.914 1.914 1.279 2.331 0.477q1.135 0 2.182-0.414t1.833-1.125 1.305-1.698 0.643-2.096h-6.63zM8.667 2.036v5.297h5.297q-0.115-1.031-0.568-1.956t-1.151-1.622-1.622-1.151-1.956-0.568z"></path>
</svg>
