<?xml version="1.0" encoding="utf-8"?>
<!-- Generated by IcoMoon.io -->
<!DOCTYPE svg PUBLIC "-//W3C//DTD SVG 1.1//EN" "http://www.w3.org/Graphics/SVG/1.1/DTD/svg11.dtd">
<svg version="1.1" xmlns="http://www.w3.org/2000/svg" xmlns:xlink="http://www.w3.org/1999/xlink" width="16" height="16" viewBox="0 0 16 16">
<path d="M12.714 3.953q0.922 0.922 1.427 2.12 0.526 1.24 0.526 2.594t-0.526 2.594q-0.505 1.198-1.427 2.12t-2.12 1.427q-1.24 0.526-2.594 0.526t-2.594-0.526q-1.198-0.505-2.12-1.427t-1.427-2.12q-0.526-1.24-0.526-2.594t0.526-2.594q0.505-1.198 1.427-2.12 0.193-0.193 0.469-0.193t0.474 0.193 0.198 0.469-0.198 0.474q-0.734 0.734-1.146 1.693-0.417 1-0.417 2.078t0.417 2.078q0.411 0.958 1.146 1.693t1.693 1.146q1 0.417 2.078 0.417t2.078-0.417q0.958-0.411 1.693-1.146t1.146-1.693q0.417-1 0.417-2.078t-0.417-2.078q-0.411-0.958-1.146-1.693-0.198-0.198-0.198-0.474t0.198-0.469 0.474-0.193 0.469 0.193zM8 0.667q0.276 0 0.471 0.195t0.195 0.471v6.667q0 0.276-0.195 0.471t-0.471 0.195-0.471-0.195-0.195-0.471v-6.667q0-0.276 0.195-0.471t0.471-0.195z"></path>
</svg>
