<?xml version="1.0" encoding="utf-8"?>
<!-- Generated by IcoMoon.io -->
<!DOCTYPE svg PUBLIC "-//W3C//DTD SVG 1.1//EN" "http://www.w3.org/Graphics/SVG/1.1/DTD/svg11.dtd">
<svg version="1.1" xmlns="http://www.w3.org/2000/svg" xmlns:xlink="http://www.w3.org/1999/xlink" width="16" height="16" viewBox="0 0 16 16">
<path d="M6 1.333h4q0.828 0 1.414 0.586t0.586 1.414v3.333h1.333q0.828 0 1.414 0.586t0.586 1.414v2.667q0 0.828-0.586 1.414t-1.414 0.586h-1.448q-0.208 0.589-0.724 0.961t-1.161 0.372h-4q-0.646 0-1.161-0.372t-0.724-0.961h-1.448q-0.828 0-1.414-0.586t-0.586-1.414v-2.667q0-0.828 0.586-1.414t1.414-0.586h1.333v-3.333q0-0.828 0.586-1.414t1.414-0.586zM10 12h-4q-0.276 0-0.471 0.195t-0.195 0.471 0.195 0.471 0.471 0.195h4q0.276 0 0.471-0.195t0.195-0.471-0.195-0.471-0.471-0.195zM13.333 8h-10.667q-0.276 0-0.471 0.195t-0.195 0.471v2.667q0 0.276 0.195 0.471t0.471 0.195h1.448q0.208-0.589 0.724-0.961t1.161-0.372h4q0.646 0 1.161 0.372t0.724 0.961h1.448q0.276 0 0.471-0.195t0.195-0.471v-2.667q0-0.276-0.195-0.471t-0.471-0.195zM10 2.667h-4q-0.276 0-0.471 0.195t-0.195 0.471v3.333h5.333v-3.333q0-0.276-0.195-0.471t-0.471-0.195z"></path>
</svg>
