<?xml version="1.0" encoding="utf-8"?>
<!-- Generated by IcoMoon.io -->
<!DOCTYPE svg PUBLIC "-//W3C//DTD SVG 1.1//EN" "http://www.w3.org/Graphics/SVG/1.1/DTD/svg11.dtd">
<svg version="1.1" xmlns="http://www.w3.org/2000/svg" xmlns:xlink="http://www.w3.org/1999/xlink" width="16" height="16" viewBox="0 0 16 16">
<path d="M8 2q1.219 0 2.331 0.477t1.914 1.279 1.279 1.914 0.477 2.331-0.477 2.331-1.279 1.914-1.914 1.279-2.331 0.477-2.331-0.477-1.914-1.279-1.279-1.914-0.477-2.331 0.477-2.331 1.279-1.914 1.914-1.279 2.331-0.477zM8 3.333q-0.948 0-1.813 0.37t-1.49 0.995-0.995 1.49-0.37 1.813 0.37 1.813 0.995 1.49 1.49 0.995 1.813 0.37 1.813-0.37 1.49-0.995 0.995-1.49 0.37-1.813-0.37-1.813-0.995-1.49-1.49-0.995-1.813-0.37z"></path>
</svg>
