<?xml version="1.0" encoding="utf-8"?>
<!-- Generated by IcoMoon.io -->
<!DOCTYPE svg PUBLIC "-//W3C//DTD SVG 1.1//EN" "http://www.w3.org/Graphics/SVG/1.1/DTD/svg11.dtd">
<svg version="1.1" xmlns="http://www.w3.org/2000/svg" xmlns:xlink="http://www.w3.org/1999/xlink" width="16" height="16" viewBox="0 0 16 16">
<path d="M7.333 1.333q1.297 0 2.51 0.49 1.245 0.505 2.203 1.464 0.005 0.005 1.953 1.911v-2.531q0-0.276 0.195-0.471t0.471-0.195 0.471 0.195 0.195 0.471v4q0 0.276-0.195 0.471t-0.471 0.195h-4q-0.276 0-0.471-0.195t-0.195-0.471 0.195-0.471 0.471-0.195h2.25q-1.448-1.406-1.813-1.771-0.776-0.776-1.766-1.172-0.953-0.391-2.005-0.391t-2.005 0.391q-0.995 0.396-1.766 1.172-0.771 0.771-1.172 1.766-0.391 0.953-0.391 2.005t0.391 2.005q0.401 0.995 1.172 1.766 0.771 0.776 1.766 1.172 0.953 0.391 2.005 0.391t2.005-0.391q0.99-0.396 1.766-1.172 0.865-0.865 1.26-1.995 0.089-0.26 0.339-0.378t0.51-0.029q0.26 0.094 0.38 0.344t0.026 0.51q-0.24 0.682-0.648 1.333t-0.924 1.156q-0.958 0.958-2.203 1.464-1.214 0.49-2.51 0.49t-2.51-0.49q-1.245-0.505-2.203-1.464t-1.464-2.203q-0.49-1.214-0.49-2.51t0.49-2.51q0.505-1.245 1.464-2.203t2.203-1.464q1.214-0.49 2.51-0.49z"></path>
</svg>
