<?xml version="1.0" encoding="utf-8"?>
<!-- Generated by IcoMoon.io -->
<!DOCTYPE svg PUBLIC "-//W3C//DTD SVG 1.1//EN" "http://www.w3.org/Graphics/SVG/1.1/DTD/svg11.dtd">
<svg version="1.1" xmlns="http://www.w3.org/2000/svg" xmlns:xlink="http://www.w3.org/1999/xlink" width="16" height="16" viewBox="0 0 16 16">
<path d="M0.667 8.667h4q0.276 0 0.471 0.195t0.195 0.471-0.195 0.471-0.471 0.195h-2.25l1.813 1.771q0.771 0.776 1.766 1.172 0.953 0.391 2.005 0.391t2.005-0.391q0.521-0.214 0.977-0.523t0.776-0.635 0.583-0.698 0.422-0.685 0.268-0.625q0.094-0.26 0.344-0.378t0.505-0.029q0.26 0.094 0.378 0.341t0.029 0.503q-0.219 0.667-0.635 1.323t-0.938 1.177q-0.958 0.958-2.203 1.464-1.208 0.49-2.51 0.49-1.297 0-2.51-0.49-1.245-0.505-2.203-1.464l-1.953-1.911v2.531q0 0.276-0.195 0.471t-0.471 0.195-0.471-0.195-0.195-0.471v-4q0-0.276 0.195-0.471t0.471-0.195zM8 1.333q1.297 0 2.51 0.49 1.245 0.505 2.203 1.464l0.010 0.010 1.943 1.901v-2.531q0-0.276 0.195-0.471t0.471-0.195 0.471 0.195 0.195 0.471v4q0 0.276-0.195 0.471t-0.471 0.195h-4q-0.276 0-0.471-0.195t-0.195-0.471 0.195-0.471 0.471-0.195h2.25l-1.813-1.771q-0.76-0.76-1.732-1.161t-2.039-0.401q-1.052 0-2.005 0.391-0.995 0.396-1.766 1.172-0.313 0.276-0.685 0.841t-0.576 1.154q-0.094 0.26-0.344 0.378t-0.505 0.029q-0.26-0.094-0.378-0.341t-0.029-0.503q0.219-0.667 0.635-1.323t0.938-1.177q0.958-0.958 2.203-1.464 1.214-0.49 2.51-0.49z"></path>
</svg>
