<?xml version="1.0" encoding="utf-8"?>
<!-- Generated by IcoMoon.io -->
<!DOCTYPE svg PUBLIC "-//W3C//DTD SVG 1.1//EN" "http://www.w3.org/Graphics/SVG/1.1/DTD/svg11.dtd">
<svg version="1.1" xmlns="http://www.w3.org/2000/svg" xmlns:xlink="http://www.w3.org/1999/xlink" width="16" height="16" viewBox="0 0 16 16">
<path d="M5.573 2.422q0.271 0 0.469 0.195t0.198 0.471-0.198 0.474l-3.104 3.104h6.396q1.219 0 2.331 0.474t1.914 1.279 1.279 1.914 0.477 2.333v0.667q0 0.276-0.195 0.471t-0.471 0.195q-0.271 0-0.469-0.198t-0.198-0.469v-0.667q0-0.948-0.37-1.813t-0.995-1.49-1.49-0.995-1.813-0.37h-6.396l3.104 3.109q0.198 0.198 0.198 0.469 0 0.276-0.195 0.474t-0.471 0.198-0.474-0.198l-4.24-4.245q-0.193-0.193-0.193-0.474 0-0.276 0.193-0.469l4.24-4.245q0.198-0.198 0.474-0.198z"></path>
</svg>
