<?xml version="1.0" encoding="utf-8"?>
<!-- Generated by IcoMoon.io -->
<!DOCTYPE svg PUBLIC "-//W3C//DTD SVG 1.1//EN" "http://www.w3.org/Graphics/SVG/1.1/DTD/svg11.dtd">
<svg version="1.1" xmlns="http://www.w3.org/2000/svg" xmlns:xlink="http://www.w3.org/1999/xlink" width="16" height="16" viewBox="0 0 16 16">
<path d="M8 0.667q1.365 0 2.641 0.164t2.341 0.479 1.708 0.839 0.643 1.185v9.333q0 0.661-0.643 1.185t-1.708 0.839-2.341 0.479-2.641 0.164-2.641-0.164-2.341-0.479-1.708-0.839-0.643-1.185v-9.333q0-0.661 0.643-1.185t1.708-0.839 2.341-0.479 2.641-0.164zM14 12.656v-3.036q-1.021 0.516-2.63 0.781t-3.37 0.266-3.37-0.266-2.63-0.781v3.047q0.031 0.115 0.279 0.276t0.758 0.349 1.188 0.344 1.672 0.26 2.104 0.104 2.104-0.104 1.672-0.263 1.188-0.346 0.758-0.349 0.279-0.281zM14 7.99v-3.036q-1.021 0.516-2.63 0.781t-3.37 0.266-3.37-0.266-2.63-0.781v3.047q0.031 0.115 0.279 0.276t0.758 0.349 1.188 0.344 1.672 0.26 2.104 0.104 2.104-0.104 1.669-0.26 1.185-0.344 0.76-0.352 0.281-0.284zM8 2q-1.099 0-2.089 0.104t-1.661 0.258-1.185 0.339-0.768 0.349-0.297 0.284q0.042 0.12 0.297 0.284t0.768 0.349 1.185 0.339 1.661 0.258 2.089 0.104 2.089-0.104 1.661-0.258 1.185-0.339 0.768-0.349 0.297-0.284q-0.042-0.12-0.297-0.284t-0.768-0.349-1.185-0.339-1.661-0.258-2.089-0.104z"></path>
</svg>
