<?xml version="1.0" encoding="utf-8"?>
<!-- Generated by IcoMoon.io -->
<!DOCTYPE svg PUBLIC "-//W3C//DTD SVG 1.1//EN" "http://www.w3.org/Graphics/SVG/1.1/DTD/svg11.dtd">
<svg version="1.1" xmlns="http://www.w3.org/2000/svg" xmlns:xlink="http://www.w3.org/1999/xlink" width="16" height="16" viewBox="0 0 16 16">
<path d="M12 1.333q1.104 0 1.885 0.781t0.781 1.885-0.781 1.885-1.885 0.781q-0.589 0-1.112-0.242t-0.898-0.674l-3.38 1.693q0.057 0.276 0.057 0.557t-0.057 0.557l3.38 1.693q0.375-0.432 0.898-0.674t1.112-0.242q1.104 0 1.885 0.781t0.781 1.885-0.781 1.885-1.885 0.781-1.885-0.781-0.781-1.885q0-0.281 0.057-0.557l-3.38-1.693q-0.375 0.432-0.898 0.674t-1.112 0.242q-1.104 0-1.885-0.781t-0.781-1.885 0.781-1.885 1.885-0.781q0.589 0 1.112 0.242t0.898 0.674l3.38-1.693q-0.057-0.276-0.057-0.557 0-1.104 0.781-1.885t1.885-0.781zM4 6.667q-0.552 0-0.943 0.391t-0.391 0.943 0.391 0.943 0.943 0.391 0.943-0.391 0.391-0.943-0.391-0.943-0.943-0.391zM12 10.667q-0.552 0-0.943 0.391t-0.391 0.943 0.391 0.943 0.943 0.391 0.943-0.391 0.391-0.943-0.391-0.943-0.943-0.391zM12 2.667q-0.552 0-0.943 0.391t-0.391 0.943 0.391 0.943 0.943 0.391 0.943-0.391 0.391-0.943-0.391-0.943-0.943-0.391z"></path>
</svg>
