<?xml version="1.0" encoding="utf-8"?>
<!-- Generated by IcoMoon.io -->
<!DOCTYPE svg PUBLIC "-//W3C//DTD SVG 1.1//EN" "http://www.w3.org/Graphics/SVG/1.1/DTD/svg11.dtd">
<svg version="1.1" xmlns="http://www.w3.org/2000/svg" xmlns:xlink="http://www.w3.org/1999/xlink" width="16" height="16" viewBox="0 0 16 16">
<path d="M12 0q0.276 0 0.474 0.198l2.667 2.667q0.193 0.193 0.193 0.469 0 0.281-0.193 0.474l-2.667 2.667q-0.193 0.193-0.474 0.193-0.276 0-0.471-0.195t-0.195-0.471q0-0.266 0.193-0.469l1.531-1.531h-1.057q-0.938 0-1.76 0.409t-1.38 1.117q-0.859 1.094-0.859 2.474 0 1.391-0.667 2.583-0.354 0.641-0.859 1.151-0.74 0.755-1.724 1.177t-2.083 0.422h-1.333q-0.276 0-0.471-0.195t-0.195-0.471 0.195-0.471 0.471-0.195h1.333q0.943 0 1.763-0.406t1.378-1.115q0.859-1.094 0.859-2.479 0-1.391 0.667-2.583 0.359-0.646 0.859-1.146 0.74-0.755 1.724-1.18t2.083-0.424h1.057l-1.531-1.526q-0.193-0.203-0.193-0.474 0-0.276 0.195-0.471t0.471-0.195zM12 9.333q0.276 0 0.474 0.198l2.667 2.667q0.193 0.193 0.193 0.474 0 0.276-0.193 0.469l-2.667 2.667q-0.193 0.193-0.474 0.193-0.276 0-0.471-0.193t-0.195-0.469q0-0.271 0.193-0.474l1.531-1.531h-1.057q-1.099 0-2.083-0.422t-1.724-1.177q0.401-0.589 0.667-1.255 0.557 0.708 1.378 1.115t1.763 0.406h1.057l-1.531-1.526q-0.193-0.203-0.193-0.474 0-0.276 0.195-0.471t0.471-0.195zM1.333 2.667h1.333q1.099 0 2.083 0.424t1.724 1.18q-0.406 0.599-0.667 1.255-0.557-0.708-1.38-1.117t-1.76-0.409h-1.333q-0.276 0-0.471-0.195t-0.195-0.471 0.195-0.471 0.471-0.195z"></path>
</svg>
