<?xml version="1.0" encoding="utf-8"?>
<!-- Generated by IcoMoon.io -->
<!DOCTYPE svg PUBLIC "-//W3C//DTD SVG 1.1//EN" "http://www.w3.org/Graphics/SVG/1.1/DTD/svg11.dtd">
<svg version="1.1" xmlns="http://www.w3.org/2000/svg" xmlns:xlink="http://www.w3.org/1999/xlink" width="16" height="16" viewBox="0 0 16 16">
<path d="M8 2.667q2.047 0 3.984 0.719t3.516 2.115q0.224 0.193 0.224 0.5 0 0.26-0.167 0.443l-0.031 0.031q-0.193 0.193-0.469 0.193-0.26 0-0.443-0.167-1.391-1.229-3.102-1.865t-3.513-0.635-3.513 0.635-3.102 1.865q-0.182 0.167-0.443 0.167-0.307 0-0.5-0.224-0.167-0.182-0.167-0.443 0-0.307 0.224-0.5 1.583-1.396 3.518-2.115t3.982-0.719zM8.005 10.667q0.906 0 1.682 0.458 0.156 0.094 0.245 0.247t0.089 0.331-0.094 0.333q-0.047 0.078-0.104 0.135-0.193 0.193-0.474 0.193-0.188 0-0.333-0.089-0.474-0.276-1.010-0.276-0.542 0-1.016 0.276-0.167 0.094-0.339 0.094-0.38 0-0.578-0.328-0.094-0.156-0.094-0.333 0-0.38 0.328-0.578 0.786-0.464 1.698-0.464zM8 6.672q1.26 0 2.453 0.417t2.188 1.234q0.245 0.198 0.245 0.516 0 0.24-0.151 0.422-0.031 0.042-0.042 0.052-0.193 0.193-0.469 0.193-0.245 0-0.427-0.151-0.813-0.667-1.792-1.010t-2.005-0.344-2.005 0.344-1.792 1.010q-0.182 0.151-0.422 0.151-0.318 0-0.516-0.245-0.151-0.182-0.151-0.422 0-0.318 0.245-0.516 0.99-0.818 2.188-1.234t2.453-0.417z"></path>
</svg>
