<?xml version="1.0" encoding="utf-8"?>
<!-- Generated by IcoMoon.io -->
<!DOCTYPE svg PUBLIC "-//W3C//DTD SVG 1.1//EN" "http://www.w3.org/Graphics/SVG/1.1/DTD/svg11.dtd">
<svg version="1.1" xmlns="http://www.w3.org/2000/svg" xmlns:xlink="http://www.w3.org/1999/xlink" width="16" height="16" viewBox="0 0 16 16">
<path d="M4 2.667q0.276 0 0.474 0.198l4.667 4.667q0.193 0.193 0.193 0.469 0 0.281-0.193 0.474l-4.667 4.667q-0.193 0.193-0.474 0.193-0.276 0-0.471-0.193t-0.195-0.469q0-0.271 0.193-0.474l4.198-4.198-4.198-4.193q-0.193-0.203-0.193-0.474 0-0.276 0.195-0.471t0.471-0.195zM11.333 2.667q0.276 0 0.471 0.195t0.195 0.471v9.333q0 0.276-0.195 0.471t-0.471 0.195-0.471-0.195-0.195-0.471v-9.333q0-0.276 0.195-0.471t0.471-0.195z"></path>
</svg>
