<?xml version="1.0" encoding="utf-8"?>
<!-- Generated by IcoMoon.io -->
<!DOCTYPE svg PUBLIC "-//W3C//DTD SVG 1.1//EN" "http://www.w3.org/Graphics/SVG/1.1/DTD/svg11.dtd">
<svg version="1.1" xmlns="http://www.w3.org/2000/svg" xmlns:xlink="http://www.w3.org/1999/xlink" width="16" height="16" viewBox="0 0 16 16">
<path d="M6 1.333h6.667q0.828 0 1.414 0.586t0.586 1.414v6.667q0 0.828-0.586 1.414t-1.414 0.586h-6.667q-0.828 0-1.414-0.586t-0.586-1.414v-6.667q0-0.828 0.586-1.414t1.414-0.586zM2.667 4.115v8.552q0 0.276 0.195 0.471t0.471 0.195h8.552q-0.208 0.589-0.724 0.961t-1.161 0.372h-6.667q-0.828 0-1.414-0.586t-0.586-1.414v-6.667q0-0.646 0.372-1.161t0.961-0.724zM12.667 2.667h-6.667q-0.276 0-0.471 0.195t-0.195 0.471v6.667q0 0.276 0.195 0.471t0.471 0.195h6.667q0.276 0 0.471-0.195t0.195-0.471v-6.667q0-0.276-0.195-0.471t-0.471-0.195z"></path>
</svg>
