<?xml version="1.0" encoding="utf-8"?>
<!-- Generated by IcoMoon.io -->
<!DOCTYPE svg PUBLIC "-//W3C//DTD SVG 1.1//EN" "http://www.w3.org/Graphics/SVG/1.1/DTD/svg11.dtd">
<svg version="1.1" xmlns="http://www.w3.org/2000/svg" xmlns:xlink="http://www.w3.org/1999/xlink" width="16" height="16" viewBox="0 0 16 16">
<path d="M8 4q1.089 0 2.008 0.536t1.456 1.456 0.536 2.008-0.536 2.008-1.456 1.456-2.008 0.536-2.008-0.536-1.456-1.456-0.536-2.008 0.536-2.008 1.456-1.456 2.008-0.536zM3.76 11.573q0.276 0 0.471 0.198t0.195 0.474q0 0.271-0.198 0.469l-0.943 0.943q-0.198 0.198-0.469 0.198-0.276 0-0.471-0.195t-0.195-0.471q0-0.281 0.193-0.474l0.943-0.943q0.198-0.198 0.474-0.198zM8 13.333q0.276 0 0.471 0.195t0.195 0.471v1.333q0 0.276-0.195 0.471t-0.471 0.195-0.471-0.195-0.195-0.471v-1.333q0-0.276 0.195-0.471t0.471-0.195zM0.667 7.333h1.333q0.276 0 0.471 0.195t0.195 0.471-0.195 0.471-0.471 0.195h-1.333q-0.276 0-0.471-0.195t-0.195-0.471 0.195-0.471 0.471-0.195zM8 5.333q-1.104 0-1.885 0.781t-0.781 1.885 0.781 1.885 1.885 0.781 1.885-0.781 0.781-1.885-0.781-1.885-1.885-0.781zM12.245 11.573q0.271 0 0.469 0.198l0.943 0.943q0.198 0.198 0.198 0.474 0 0.271-0.198 0.469t-0.469 0.198q-0.276 0-0.474-0.198l-0.943-0.943q-0.193-0.193-0.193-0.469t0.195-0.474 0.471-0.198zM2.818 2.146q0.271 0 0.469 0.198l0.943 0.943q0.198 0.198 0.198 0.469 0 0.276-0.195 0.471t-0.471 0.195q-0.281 0-0.474-0.193l-0.943-0.943q-0.193-0.193-0.193-0.474 0-0.276 0.195-0.471t0.471-0.195zM8 0q0.276 0 0.471 0.195t0.195 0.471v1.333q0 0.276-0.195 0.471t-0.471 0.195-0.471-0.195-0.195-0.471v-1.333q0-0.276 0.195-0.471t0.471-0.195zM14 7.333h1.333q0.276 0 0.471 0.195t0.195 0.471-0.195 0.471-0.471 0.195h-1.333q-0.276 0-0.471-0.195t-0.195-0.471 0.195-0.471 0.471-0.195zM13.188 2.146q0.271 0 0.469 0.198t0.198 0.469q0 0.276-0.198 0.474l-0.943 0.943q-0.193 0.193-0.469 0.193-0.286 0-0.477-0.19t-0.19-0.477q0-0.276 0.193-0.469l0.943-0.943q0.198-0.198 0.474-0.198z"></path>
</svg>
