<?xml version="1.0" encoding="utf-8"?>
<!-- Generated by IcoMoon.io -->
<!DOCTYPE svg PUBLIC "-//W3C//DTD SVG 1.1//EN" "http://www.w3.org/Graphics/SVG/1.1/DTD/svg11.dtd">
<svg version="1.1" xmlns="http://www.w3.org/2000/svg" xmlns:xlink="http://www.w3.org/1999/xlink" width="16" height="16" viewBox="0 0 16 16">
<path d="M0.667 0.667h7.542l6.542 6.536q0.583 0.583 0.583 1.411 0 0.833-0.583 1.417l-4.719 4.719q-0.583 0.583-1.411 0.583-0.833 0-1.417-0.583l-6.536-6.542v-7.542zM13.807 8.146l-6.151-6.146h-5.656v5.656l6.146 6.151q0.198 0.193 0.474 0.193t0.469-0.193l4.719-4.719q0.193-0.193 0.193-0.469t-0.193-0.474zM5.667 4q0.693 0 1.18 0.487t0.487 1.18-0.487 1.18-1.18 0.487-1.18-0.487-0.487-1.18 0.487-1.18 1.18-0.487zM5.667 5.333q-0.135 0-0.234 0.099t-0.099 0.234 0.099 0.234 0.234 0.099 0.234-0.099 0.099-0.234-0.099-0.234-0.234-0.099z"></path>
</svg>
