<?xml version="1.0" encoding="utf-8"?>
<!-- Generated by IcoMoon.io -->
<!DOCTYPE svg PUBLIC "-//W3C//DTD SVG 1.1//EN" "http://www.w3.org/Graphics/SVG/1.1/DTD/svg11.dtd">
<svg version="1.1" xmlns="http://www.w3.org/2000/svg" xmlns:xlink="http://www.w3.org/1999/xlink" width="16" height="16" viewBox="0 0 16 16">
<path d="M8 0.667q1.495 0 2.852 0.581t2.339 1.563 1.563 2.339 0.581 2.852-0.581 2.852-1.563 2.339-2.339 1.563-2.852 0.581-2.852-0.581-2.339-1.563-1.563-2.339-0.581-2.852 0.581-2.852 1.563-2.339 2.339-1.563 2.852-0.581zM8 2q-1.219 0-2.331 0.477t-1.914 1.279-1.279 1.914-0.477 2.331 0.477 2.331 1.279 1.914 1.914 1.279 2.331 0.477 2.331-0.477 1.914-1.279 1.279-1.914 0.477-2.331-0.477-2.331-1.279-1.914-1.914-1.279-2.331-0.477zM8 3.333q0.948 0 1.813 0.37t1.49 0.995 0.995 1.49 0.37 1.813-0.37 1.813-0.995 1.49-1.49 0.995-1.813 0.37-1.813-0.37-1.49-0.995-0.995-1.49-0.37-1.813 0.37-1.813 0.995-1.49 1.49-0.995 1.813-0.37zM8 4.667q-0.677 0-1.294 0.266t-1.063 0.711-0.711 1.063-0.266 1.294 0.266 1.294 0.711 1.063 1.063 0.711 1.294 0.266 1.294-0.266 1.063-0.711 0.711-1.063 0.266-1.294-0.266-1.294-0.711-1.063-1.063-0.711-1.294-0.266zM8 6q0.828 0 1.414 0.586t0.586 1.414-0.586 1.414-1.414 0.586-1.414-0.586-0.586-1.414 0.586-1.414 1.414-0.586zM8 7.333q-0.276 0-0.471 0.195t-0.195 0.471 0.195 0.471 0.471 0.195 0.471-0.195 0.195-0.471-0.195-0.471-0.471-0.195z"></path>
</svg>
