<?xml version="1.0" encoding="utf-8"?>
<!-- Generated by IcoMoon.io -->
<!DOCTYPE svg PUBLIC "-//W3C//DTD SVG 1.1//EN" "http://www.w3.org/Graphics/SVG/1.1/DTD/svg11.dtd">
<svg version="1.1" xmlns="http://www.w3.org/2000/svg" xmlns:xlink="http://www.w3.org/1999/xlink" width="16" height="16" viewBox="0 0 16 16">
<path d="M7.667 0q0.964 0 1.648 0.685t0.685 1.648v7.172q0.62 0.516 0.977 1.253t0.357 1.576q0 0.745-0.289 1.424t-0.781 1.172-1.172 0.781-1.424 0.289-1.424-0.289-1.172-0.781-0.781-1.172-0.289-1.424q0-0.839 0.357-1.576t0.977-1.253v-7.172q0-0.964 0.685-1.648t1.648-0.685zM7.667 1.333q-0.417 0-0.708 0.292t-0.292 0.708v7.896q-0.599 0.286-0.966 0.852t-0.367 1.253q0 0.964 0.685 1.648t1.648 0.685 1.648-0.685 0.685-1.648q0-0.688-0.367-1.253t-0.966-0.852v-7.896q0-0.417-0.292-0.708t-0.708-0.292z"></path>
</svg>
