<?xml version="1.0" encoding="utf-8"?>
<!-- Generated by IcoMoon.io -->
<!DOCTYPE svg PUBLIC "-//W3C//DTD SVG 1.1//EN" "http://www.w3.org/Graphics/SVG/1.1/DTD/svg11.dtd">
<svg version="1.1" xmlns="http://www.w3.org/2000/svg" xmlns:xlink="http://www.w3.org/1999/xlink" width="16" height="16" viewBox="0 0 16 16">
<path d="M5.333 2.667h5.333q1.083 0 2.070 0.422t1.703 1.138 1.138 1.703 0.422 2.070-0.422 2.070-1.138 1.703-1.703 1.138-2.070 0.422h-5.333q-1.083 0-2.070-0.422t-1.703-1.138-1.138-1.703-0.422-2.070 0.422-2.070 1.138-1.703 1.703-1.138 2.070-0.422zM5.333 5.333q1.104 0 1.885 0.781t0.781 1.885-0.781 1.885-1.885 0.781-1.885-0.781-0.781-1.885 0.781-1.885 1.885-0.781zM5.333 6.667q-0.552 0-0.943 0.391t-0.391 0.943 0.391 0.943 0.943 0.391 0.943-0.391 0.391-0.943-0.391-0.943-0.943-0.391zM10.667 4h-5.333q-1.089 0-2.008 0.536t-1.456 1.456-0.536 2.008 0.536 2.008 1.456 1.456 2.008 0.536h5.333q1.089 0 2.008-0.536t1.456-1.456 0.536-2.008-0.536-2.008-1.456-1.456-2.008-0.536z"></path>
</svg>
