<?xml version="1.0" encoding="utf-8"?>
<!-- Generated by IcoMoon.io -->
<!DOCTYPE svg PUBLIC "-//W3C//DTD SVG 1.1//EN" "http://www.w3.org/Graphics/SVG/1.1/DTD/svg11.dtd">
<svg version="1.1" xmlns="http://www.w3.org/2000/svg" xmlns:xlink="http://www.w3.org/1999/xlink" width="16" height="16" viewBox="0 0 16 16">
<path d="M8 0.667q1.172 0 2.279 0.328t2.031 0.932 1.667 1.424 1.234 1.841 0.68 2.141q0.109 0.646 0.109 1.333h-7.333v4q0 0.552 0.391 0.943t0.943 0.391 0.943-0.391 0.391-0.943q0-0.276 0.195-0.471t0.471-0.195 0.471 0.195 0.195 0.471q0 1.104-0.781 1.885t-1.885 0.781-1.885-0.781-0.781-1.885v-4h-7.333q0-0.688 0.109-1.333 0.188-1.12 0.68-2.141t1.234-1.841 1.667-1.424 2.031-0.932 2.279-0.328zM8 2q-1.583 0-2.974 0.698t-2.32 1.911-1.237 2.724h13.063q-0.307-1.51-1.237-2.724t-2.32-1.911-2.974-0.698z"></path>
</svg>
