<?xml version="1.0" encoding="utf-8"?>
<!-- Generated by IcoMoon.io -->
<!DOCTYPE svg PUBLIC "-//W3C//DTD SVG 1.1//EN" "http://www.w3.org/Graphics/SVG/1.1/DTD/svg11.dtd">
<svg version="1.1" xmlns="http://www.w3.org/2000/svg" xmlns:xlink="http://www.w3.org/1999/xlink" width="16" height="16" viewBox="0 0 16 16">
<path d="M3.333 0h9.333q0.828 0 1.414 0.586t0.586 1.414v9.333q0 0.828-0.586 1.414t-1.414 0.586h-2.667v-1.333h2.667q0.276 0 0.471-0.195t0.195-0.471v-9.333q0-0.276-0.195-0.471t-0.471-0.195h-9.333q-0.276 0-0.471 0.195t-0.195 0.471v9.333q0 0.276 0.195 0.471t0.471 0.195h2.667v1.333h-2.667q-0.828 0-1.414-0.586t-0.586-1.414v-9.333q0-0.828 0.586-1.414t1.414-0.586zM8 4.667q0.281 0 0.474 0.193l2.667 2.667q0.193 0.193 0.193 0.474 0 0.276-0.195 0.471t-0.471 0.195q-0.271 0-0.474-0.193l-1.526-1.531v8.391q0 0.276-0.195 0.471t-0.471 0.195-0.471-0.195-0.195-0.471v-8.391l-1.526 1.531q-0.203 0.193-0.474 0.193-0.276 0-0.471-0.195t-0.195-0.471q0-0.271 0.193-0.474l2.667-2.667q0.193-0.193 0.474-0.193z"></path>
</svg>
