<?xml version="1.0" encoding="utf-8"?>
<!-- Generated by IcoMoon.io -->
<!DOCTYPE svg PUBLIC "-//W3C//DTD SVG 1.1//EN" "http://www.w3.org/Graphics/SVG/1.1/DTD/svg11.dtd">
<svg version="1.1" xmlns="http://www.w3.org/2000/svg" xmlns:xlink="http://www.w3.org/1999/xlink" width="16" height="16" viewBox="0 0 16 16">
<path d="M2 3.333h7.333q0.828 0 1.414 0.586t0.586 1.414v1.214l4.667-2.547v8l-4.667-2.547v1.214q0 0.828-0.586 1.414t-1.414 0.586h-7.333q-0.828 0-1.414-0.586t-0.586-1.414v-5.333q0-0.828 0.586-1.414t1.414-0.586zM9.333 4.667h-7.333q-0.276 0-0.471 0.195t-0.195 0.471v5.333q0 0.276 0.195 0.471t0.471 0.195h7.333q0.276 0 0.471-0.195t0.195-0.471v-5.333q0-0.276-0.195-0.471t-0.471-0.195zM14.667 9.755v-3.51l-3.214 1.755z"></path>
</svg>
