<?xml version="1.0" encoding="utf-8"?>
<!-- Generated by IcoMoon.io -->
<!DOCTYPE svg PUBLIC "-//W3C//DTD SVG 1.1//EN" "http://www.w3.org/Graphics/SVG/1.1/DTD/svg11.dtd">
<svg version="1.1" xmlns="http://www.w3.org/2000/svg" xmlns:xlink="http://www.w3.org/1999/xlink" width="16" height="16" viewBox="0 0 16 16">
<path d="M3.333 5.333l3.333-3.333v12l-3.333-3.333h-1.333q-0.828 0-1.414-0.586t-0.586-1.414v-1.307q0-0.828 0.586-1.427t1.414-0.599h1.333zM5.333 10.781v-5.589l-1.448 1.474h-1.885q-0.271 0-0.469 0.206t-0.198 0.487v1.307q0 0.276 0.195 0.471t0.471 0.195h1.885zM9.688 5.776q0.193 0 0.362 0.109t0.253 0.297q0.365 0.88 0.365 1.818 0 0.953-0.365 1.807-0.078 0.188-0.247 0.299t-0.367 0.112q-0.245 0-0.456-0.185t-0.211-0.482q0-0.12 0.052-0.26 0.26-0.615 0.26-1.292 0-0.672-0.26-1.297-0.052-0.12-0.052-0.26 0-0.297 0.201-0.482t0.466-0.185zM11.724 3.917q0.375 0 0.573 0.328 0.516 0.859 0.766 1.776 0.271 0.979 0.271 1.979 0 0.995-0.271 1.984-0.255 0.927-0.766 1.776-0.193 0.323-0.573 0.323-0.26 0-0.464-0.188t-0.203-0.479q0-0.182 0.099-0.344 0.406-0.677 0.62-1.448 0.224-0.781 0.224-1.625 0-0.839-0.224-1.62-0.214-0.771-0.62-1.453-0.099-0.151-0.099-0.339 0-0.281 0.206-0.477t0.461-0.195zM13.719 2.089q0.359 0 0.552 0.292 0.849 1.245 1.289 2.677t0.44 2.943-0.44 2.943-1.289 2.677q-0.188 0.292-0.552 0.292-0.271 0-0.466-0.188t-0.195-0.479q0-0.208 0.115-0.375 1.495-2.193 1.495-4.87 0-1.313-0.38-2.552t-1.115-2.318q-0.115-0.167-0.115-0.375 0-0.292 0.195-0.479t0.466-0.188z"></path>
</svg>
