<?xml version="1.0" encoding="utf-8"?>
<!-- Generated by IcoMoon.io -->
<!DOCTYPE svg PUBLIC "-//W3C//DTD SVG 1.1//EN" "http://www.w3.org/Graphics/SVG/1.1/DTD/svg11.dtd">
<svg version="1.1" xmlns="http://www.w3.org/2000/svg" xmlns:xlink="http://www.w3.org/1999/xlink" width="16" height="16" viewBox="0 0 16 16">
<path d="M6 0h4q0.828 0 1.414 0.586t0.586 1.414v1.531q0.938 0.833 1.469 1.997t0.531 2.471-0.531 2.469-1.469 2v1.531q0 0.828-0.586 1.414t-1.414 0.586h-4q-0.828 0-1.414-0.586t-0.586-1.414v-1.531q-0.938-0.839-1.469-2t-0.531-2.469 0.531-2.471 1.469-1.997v-1.531q0-0.828 0.586-1.414t1.414-0.586zM10.667 14v-0.625q-1.25 0.625-2.667 0.625t-2.667-0.625v0.625q0 0.276 0.195 0.471t0.471 0.195h4q0.276 0 0.471-0.195t0.195-0.471zM8 3.333q-0.948 0-1.813 0.37t-1.49 0.995-0.995 1.49-0.37 1.813 0.37 1.813 0.995 1.49 1.49 0.995 1.813 0.37 1.813-0.37 1.49-0.995 0.995-1.49 0.37-1.813-0.37-1.813-0.995-1.49-1.49-0.995-1.813-0.37zM8 4.667q0.276 0 0.471 0.195t0.195 0.471v2.391l1.141 1.135q0.193 0.193 0.193 0.474t-0.193 0.474-0.474 0.193-0.474-0.193l-1.333-1.333q-0.193-0.193-0.193-0.474v-2.667q0-0.276 0.195-0.471t0.471-0.195zM10 1.333h-4q-0.276 0-0.471 0.195t-0.195 0.471v0.625q1.25-0.625 2.667-0.625t2.667 0.625v-0.625q0-0.276-0.195-0.471t-0.471-0.195z"></path>
</svg>
